%TF.GenerationSoftware,KiCad,Pcbnew,8.0.3*%
%TF.CreationDate,2025-09-30T21:19:19-04:00*%
%TF.ProjectId,NewHallSensorsLimitSwitches,4e657748-616c-46c5-9365-6e736f72734c,rev?*%
%TF.SameCoordinates,Original*%
%TF.FileFunction,Soldermask,Top*%
%TF.FilePolarity,Negative*%
%FSLAX46Y46*%
G04 Gerber Fmt 4.6, Leading zero omitted, Abs format (unit mm)*
G04 Created by KiCad (PCBNEW 8.0.3) date 2025-09-30 21:19:19*
%MOMM*%
%LPD*%
G01*
G04 APERTURE LIST*
G04 Aperture macros list*
%AMRoundRect*
0 Rectangle with rounded corners*
0 $1 Rounding radius*
0 $2 $3 $4 $5 $6 $7 $8 $9 X,Y pos of 4 corners*
0 Add a 4 corners polygon primitive as box body*
4,1,4,$2,$3,$4,$5,$6,$7,$8,$9,$2,$3,0*
0 Add four circle primitives for the rounded corners*
1,1,$1+$1,$2,$3*
1,1,$1+$1,$4,$5*
1,1,$1+$1,$6,$7*
1,1,$1+$1,$8,$9*
0 Add four rect primitives between the rounded corners*
20,1,$1+$1,$2,$3,$4,$5,0*
20,1,$1+$1,$4,$5,$6,$7,0*
20,1,$1+$1,$6,$7,$8,$9,0*
20,1,$1+$1,$8,$9,$2,$3,0*%
G04 Aperture macros list end*
%ADD10RoundRect,0.150000X0.150000X-0.587500X0.150000X0.587500X-0.150000X0.587500X-0.150000X-0.587500X0*%
%ADD11RoundRect,0.243750X0.243750X0.456250X-0.243750X0.456250X-0.243750X-0.456250X0.243750X-0.456250X0*%
%ADD12RoundRect,0.250000X-0.625000X0.350000X-0.625000X-0.350000X0.625000X-0.350000X0.625000X0.350000X0*%
%ADD13O,1.750000X1.200000*%
%ADD14C,3.800000*%
%ADD15RoundRect,0.243750X-0.456250X0.243750X-0.456250X-0.243750X0.456250X-0.243750X0.456250X0.243750X0*%
%ADD16RoundRect,0.225000X-0.225000X-0.250000X0.225000X-0.250000X0.225000X0.250000X-0.225000X0.250000X0*%
%ADD17RoundRect,0.225000X0.250000X-0.225000X0.250000X0.225000X-0.250000X0.225000X-0.250000X-0.225000X0*%
%ADD18RoundRect,0.200000X0.200000X0.275000X-0.200000X0.275000X-0.200000X-0.275000X0.200000X-0.275000X0*%
%ADD19RoundRect,0.250000X0.625000X-0.350000X0.625000X0.350000X-0.625000X0.350000X-0.625000X-0.350000X0*%
%ADD20RoundRect,0.200000X-0.200000X-0.275000X0.200000X-0.275000X0.200000X0.275000X-0.200000X0.275000X0*%
%ADD21C,1.100000*%
%ADD22C,0.990600*%
%ADD23C,0.787400*%
%ADD24RoundRect,0.150000X-0.150000X0.825000X-0.150000X-0.825000X0.150000X-0.825000X0.150000X0.825000X0*%
G04 APERTURE END LIST*
D10*
%TO.C,U3*%
X174650000Y-110785000D03*
X176550000Y-110785000D03*
X175600000Y-108910000D03*
%TD*%
D11*
%TO.C,D1*%
X160342500Y-124915000D03*
X158467500Y-124915000D03*
%TD*%
D12*
%TO.C,Je1*%
X146040000Y-106010000D03*
D13*
X146040000Y-108010000D03*
X146040000Y-110010000D03*
X146040000Y-112010000D03*
X146040000Y-114010000D03*
%TD*%
D14*
%TO.C,H8*%
X181375000Y-114660000D03*
%TD*%
D15*
%TO.C,D3*%
X158110000Y-109157500D03*
X158110000Y-111032500D03*
%TD*%
D16*
%TO.C,C2*%
X164865000Y-106975000D03*
X166415000Y-106975000D03*
%TD*%
D17*
%TO.C,C5*%
X162850000Y-110625000D03*
X162850000Y-109075000D03*
%TD*%
D16*
%TO.C,C3*%
X174890000Y-107025000D03*
X176440000Y-107025000D03*
%TD*%
D18*
%TO.C,R5*%
X160520000Y-122795000D03*
X158870000Y-122795000D03*
%TD*%
D14*
%TO.C,H8*%
X150125000Y-114650000D03*
%TD*%
D15*
%TO.C,D5*%
X178620000Y-109205000D03*
X178620000Y-111080000D03*
%TD*%
D19*
%TO.C,Je2*%
X168855000Y-129405000D03*
D13*
X168855000Y-127405000D03*
X168855000Y-125405000D03*
X168855000Y-123405000D03*
X168855000Y-121405000D03*
%TD*%
D20*
%TO.C,R6*%
X154395000Y-114265000D03*
X156045000Y-114265000D03*
%TD*%
D10*
%TO.C,U1*%
X154260000Y-110750000D03*
X156160000Y-110750000D03*
X155210000Y-108875000D03*
%TD*%
D15*
%TO.C,D4*%
X168560000Y-109135000D03*
X168560000Y-111010000D03*
%TD*%
D16*
%TO.C,C1*%
X154335000Y-107005000D03*
X155885000Y-107005000D03*
%TD*%
D20*
%TO.C,R1*%
X154395000Y-112675000D03*
X156045000Y-112675000D03*
%TD*%
%TO.C,R3*%
X174755000Y-112625000D03*
X176405000Y-112625000D03*
%TD*%
D21*
%TO.C,J3*%
X153605000Y-122815000D03*
X154875000Y-122815000D03*
X153605000Y-124085000D03*
X154875000Y-124085000D03*
X153605000Y-125355000D03*
X154875000Y-125355000D03*
X153605000Y-126625000D03*
X154875000Y-126625000D03*
X153605000Y-127895000D03*
X154875000Y-127895000D03*
%TD*%
D14*
%TO.C,H7*%
X150120000Y-105500000D03*
%TD*%
D20*
%TO.C,R8*%
X174755000Y-114225000D03*
X176405000Y-114225000D03*
%TD*%
D22*
%TO.C,J2*%
X164595000Y-129820000D03*
X159515000Y-130836000D03*
X159515000Y-128804000D03*
D23*
X163325000Y-129185000D03*
X163325000Y-130455000D03*
X162055000Y-129185000D03*
X162055000Y-130455000D03*
X160785000Y-129185000D03*
X160785000Y-130455000D03*
%TD*%
D11*
%TO.C,D2*%
X160402500Y-120995000D03*
X158527500Y-120995000D03*
%TD*%
D14*
%TO.C,H7*%
X181350000Y-105480000D03*
%TD*%
D17*
%TO.C,C6*%
X172970000Y-110620000D03*
X172970000Y-109070000D03*
%TD*%
%TO.C,C4*%
X152520000Y-110750000D03*
X152520000Y-109200000D03*
%TD*%
D20*
%TO.C,R7*%
X164705000Y-114275000D03*
X166355000Y-114275000D03*
%TD*%
D10*
%TO.C,U2*%
X164580000Y-110745000D03*
X166480000Y-110745000D03*
X165530000Y-108870000D03*
%TD*%
D18*
%TO.C,R4*%
X160460000Y-126785000D03*
X158810000Y-126785000D03*
%TD*%
D24*
%TO.C,U4*%
X165895000Y-121330000D03*
X164625000Y-121330000D03*
X163355000Y-121330000D03*
X162085000Y-121330000D03*
X162085000Y-126280000D03*
X163355000Y-126280000D03*
X164625000Y-126280000D03*
X165895000Y-126280000D03*
%TD*%
D20*
%TO.C,R2*%
X164725000Y-112715000D03*
X166375000Y-112715000D03*
%TD*%
M02*
