%TF.GenerationSoftware,KiCad,Pcbnew,8.0.3*%
%TF.CreationDate,2025-09-30T21:19:19-04:00*%
%TF.ProjectId,NewHallSensorsLimitSwitches,4e657748-616c-46c5-9365-6e736f72734c,rev?*%
%TF.SameCoordinates,Original*%
%TF.FileFunction,Copper,L1,Top*%
%TF.FilePolarity,Positive*%
%FSLAX46Y46*%
G04 Gerber Fmt 4.6, Leading zero omitted, Abs format (unit mm)*
G04 Created by KiCad (PCBNEW 8.0.3) date 2025-09-30 21:19:19*
%MOMM*%
%LPD*%
G01*
G04 APERTURE LIST*
G04 Aperture macros list*
%AMRoundRect*
0 Rectangle with rounded corners*
0 $1 Rounding radius*
0 $2 $3 $4 $5 $6 $7 $8 $9 X,Y pos of 4 corners*
0 Add a 4 corners polygon primitive as box body*
4,1,4,$2,$3,$4,$5,$6,$7,$8,$9,$2,$3,0*
0 Add four circle primitives for the rounded corners*
1,1,$1+$1,$2,$3*
1,1,$1+$1,$4,$5*
1,1,$1+$1,$6,$7*
1,1,$1+$1,$8,$9*
0 Add four rect primitives between the rounded corners*
20,1,$1+$1,$2,$3,$4,$5,0*
20,1,$1+$1,$4,$5,$6,$7,0*
20,1,$1+$1,$6,$7,$8,$9,0*
20,1,$1+$1,$8,$9,$2,$3,0*%
G04 Aperture macros list end*
%TA.AperFunction,SMDPad,CuDef*%
%ADD10RoundRect,0.150000X0.150000X-0.587500X0.150000X0.587500X-0.150000X0.587500X-0.150000X-0.587500X0*%
%TD*%
%TA.AperFunction,SMDPad,CuDef*%
%ADD11RoundRect,0.243750X0.243750X0.456250X-0.243750X0.456250X-0.243750X-0.456250X0.243750X-0.456250X0*%
%TD*%
%TA.AperFunction,ComponentPad*%
%ADD12RoundRect,0.250000X-0.625000X0.350000X-0.625000X-0.350000X0.625000X-0.350000X0.625000X0.350000X0*%
%TD*%
%TA.AperFunction,ComponentPad*%
%ADD13O,1.750000X1.200000*%
%TD*%
%TA.AperFunction,ComponentPad*%
%ADD14C,3.800000*%
%TD*%
%TA.AperFunction,SMDPad,CuDef*%
%ADD15RoundRect,0.243750X-0.456250X0.243750X-0.456250X-0.243750X0.456250X-0.243750X0.456250X0.243750X0*%
%TD*%
%TA.AperFunction,SMDPad,CuDef*%
%ADD16RoundRect,0.225000X-0.225000X-0.250000X0.225000X-0.250000X0.225000X0.250000X-0.225000X0.250000X0*%
%TD*%
%TA.AperFunction,SMDPad,CuDef*%
%ADD17RoundRect,0.225000X0.250000X-0.225000X0.250000X0.225000X-0.250000X0.225000X-0.250000X-0.225000X0*%
%TD*%
%TA.AperFunction,SMDPad,CuDef*%
%ADD18RoundRect,0.200000X0.200000X0.275000X-0.200000X0.275000X-0.200000X-0.275000X0.200000X-0.275000X0*%
%TD*%
%TA.AperFunction,ComponentPad*%
%ADD19RoundRect,0.250000X0.625000X-0.350000X0.625000X0.350000X-0.625000X0.350000X-0.625000X-0.350000X0*%
%TD*%
%TA.AperFunction,SMDPad,CuDef*%
%ADD20RoundRect,0.200000X-0.200000X-0.275000X0.200000X-0.275000X0.200000X0.275000X-0.200000X0.275000X0*%
%TD*%
%TA.AperFunction,ComponentPad*%
%ADD21C,1.100000*%
%TD*%
%TA.AperFunction,ConnectorPad*%
%ADD22C,0.787400*%
%TD*%
%TA.AperFunction,SMDPad,CuDef*%
%ADD23RoundRect,0.150000X-0.150000X0.825000X-0.150000X-0.825000X0.150000X-0.825000X0.150000X0.825000X0*%
%TD*%
%TA.AperFunction,ViaPad*%
%ADD24C,0.500000*%
%TD*%
%TA.AperFunction,ViaPad*%
%ADD25C,0.600000*%
%TD*%
%TA.AperFunction,Conductor*%
%ADD26C,0.200000*%
%TD*%
G04 APERTURE END LIST*
D10*
%TO.P,U3,1,VCC*%
%TO.N,+5V*%
X174650000Y-110785000D03*
%TO.P,U3,2,OUT*%
%TO.N,Net-(U3-OUT)*%
X176550000Y-110785000D03*
%TO.P,U3,3,GND*%
%TO.N,GND*%
X175600000Y-108910000D03*
%TD*%
D11*
%TO.P,D1,1,K*%
%TO.N,GND*%
X160342500Y-124915000D03*
%TO.P,D1,2,A*%
%TO.N,Net-(D1-A)*%
X158467500Y-124915000D03*
%TD*%
D12*
%TO.P,Je1,1,Pin_1*%
%TO.N,+5V*%
X146040000Y-106010000D03*
D13*
%TO.P,Je1,2,Pin_2*%
%TO.N,/Out_1*%
X146040000Y-108010000D03*
%TO.P,Je1,3,Pin_3*%
%TO.N,/Out_2*%
X146040000Y-110010000D03*
%TO.P,Je1,4,Pin_4*%
%TO.N,/Out_3*%
X146040000Y-112010000D03*
%TO.P,Je1,5,Pin_5*%
%TO.N,GND*%
X146040000Y-114010000D03*
%TD*%
D14*
%TO.P,H8,1*%
%TO.N,N/C*%
X181375000Y-114660000D03*
%TD*%
D15*
%TO.P,D3,1,K*%
%TO.N,GND*%
X158110000Y-109157500D03*
%TO.P,D3,2,A*%
%TO.N,Net-(D3-A)*%
X158110000Y-111032500D03*
%TD*%
D16*
%TO.P,C2,1*%
%TO.N,+5V*%
X164865000Y-106975000D03*
%TO.P,C2,2*%
%TO.N,GND*%
X166415000Y-106975000D03*
%TD*%
D17*
%TO.P,C5,1*%
%TO.N,/Out_2*%
X162850000Y-110625000D03*
%TO.P,C5,2*%
%TO.N,GND*%
X162850000Y-109075000D03*
%TD*%
D16*
%TO.P,C3,1*%
%TO.N,+5V*%
X174890000Y-107025000D03*
%TO.P,C3,2*%
%TO.N,GND*%
X176440000Y-107025000D03*
%TD*%
D18*
%TO.P,R5,1*%
%TO.N,/F_lim_dig*%
X160520000Y-122795000D03*
%TO.P,R5,2*%
%TO.N,Net-(D2-A)*%
X158870000Y-122795000D03*
%TD*%
D14*
%TO.P,H8,1*%
%TO.N,N/C*%
X150125000Y-114650000D03*
%TD*%
D15*
%TO.P,D5,1,K*%
%TO.N,GND*%
X178620000Y-109205000D03*
%TO.P,D5,2,A*%
%TO.N,Net-(D5-A)*%
X178620000Y-111080000D03*
%TD*%
D19*
%TO.P,Je2,1,Pin_1*%
%TO.N,GND*%
X168855000Y-129405000D03*
D13*
%TO.P,Je2,2,Pin_2*%
%TO.N,/Hall_3*%
X168855000Y-127405000D03*
%TO.P,Je2,3,Pin_3*%
%TO.N,/Hall_2*%
X168855000Y-125405000D03*
%TO.P,Je2,4,Pin_4*%
%TO.N,/Hall_1*%
X168855000Y-123405000D03*
%TO.P,Je2,5,Pin_5*%
%TO.N,+5V*%
X168855000Y-121405000D03*
%TD*%
D20*
%TO.P,R6,1*%
%TO.N,/Out_1*%
X154395000Y-114265000D03*
%TO.P,R6,2*%
%TO.N,Net-(D3-A)*%
X156045000Y-114265000D03*
%TD*%
D10*
%TO.P,U1,1,VCC*%
%TO.N,+5V*%
X154260000Y-110750000D03*
%TO.P,U1,2,OUT*%
%TO.N,Net-(U1-OUT)*%
X156160000Y-110750000D03*
%TO.P,U1,3,GND*%
%TO.N,GND*%
X155210000Y-108875000D03*
%TD*%
D15*
%TO.P,D4,1,K*%
%TO.N,GND*%
X168560000Y-109135000D03*
%TO.P,D4,2,A*%
%TO.N,Net-(D4-A)*%
X168560000Y-111010000D03*
%TD*%
D16*
%TO.P,C1,1*%
%TO.N,+5V*%
X154335000Y-107005000D03*
%TO.P,C1,2*%
%TO.N,GND*%
X155885000Y-107005000D03*
%TD*%
D20*
%TO.P,R1,1*%
%TO.N,/Out_1*%
X154395000Y-112675000D03*
%TO.P,R1,2*%
%TO.N,Net-(U1-OUT)*%
X156045000Y-112675000D03*
%TD*%
%TO.P,R3,1*%
%TO.N,/Out_3*%
X174755000Y-112625000D03*
%TO.P,R3,2*%
%TO.N,Net-(U3-OUT)*%
X176405000Y-112625000D03*
%TD*%
D21*
%TO.P,J3,1,Pin_1*%
%TO.N,N/C*%
X153605000Y-122815000D03*
%TO.P,J3,2,Pin_2*%
%TO.N,+5V*%
X154875000Y-122815000D03*
%TO.P,J3,3,Pin_3*%
%TO.N,N/C*%
X153605000Y-124085000D03*
%TO.P,J3,4,Pin_4*%
%TO.N,/F_lim_dig*%
X154875000Y-124085000D03*
%TO.P,J3,5,Pin_5*%
%TO.N,N/C*%
X153605000Y-125355000D03*
%TO.P,J3,6,Pin_6*%
X154875000Y-125355000D03*
%TO.P,J3,7,Pin_7*%
X153605000Y-126625000D03*
%TO.P,J3,8,Pin_8*%
%TO.N,/R_lim_dig*%
X154875000Y-126625000D03*
%TO.P,J3,9,Pin_9*%
%TO.N,N/C*%
X153605000Y-127895000D03*
%TO.P,J3,10,Pin_10*%
%TO.N,GND*%
X154875000Y-127895000D03*
%TD*%
D14*
%TO.P,H7,1*%
%TO.N,N/C*%
X150120000Y-105500000D03*
%TD*%
D20*
%TO.P,R8,1*%
%TO.N,/Out_3*%
X174755000Y-114225000D03*
%TO.P,R8,2*%
%TO.N,Net-(D5-A)*%
X176405000Y-114225000D03*
%TD*%
D22*
%TO.P,J2,1,DATA*%
%TO.N,/Program*%
X163325000Y-129185000D03*
%TO.P,J2,2,VDD*%
%TO.N,+5V*%
X163325000Y-130455000D03*
%TO.P,J2,3,NC*%
%TO.N,unconnected-(J2-NC-Pad3)*%
X162055000Y-129185000D03*
%TO.P,J2,4,NC*%
%TO.N,unconnected-(J2-NC-Pad4)*%
X162055000Y-130455000D03*
%TO.P,J2,5,NC*%
%TO.N,unconnected-(J2-NC-Pad5)*%
X160785000Y-129185000D03*
%TO.P,J2,6,GND*%
%TO.N,GND*%
X160785000Y-130455000D03*
%TD*%
D11*
%TO.P,D2,1,K*%
%TO.N,GND*%
X160402500Y-120995000D03*
%TO.P,D2,2,A*%
%TO.N,Net-(D2-A)*%
X158527500Y-120995000D03*
%TD*%
D14*
%TO.P,H7,1*%
%TO.N,N/C*%
X181350000Y-105480000D03*
%TD*%
D17*
%TO.P,C6,1*%
%TO.N,/Out_3*%
X172970000Y-110620000D03*
%TO.P,C6,2*%
%TO.N,GND*%
X172970000Y-109070000D03*
%TD*%
%TO.P,C4,1*%
%TO.N,/Out_1*%
X152520000Y-110750000D03*
%TO.P,C4,2*%
%TO.N,GND*%
X152520000Y-109200000D03*
%TD*%
D20*
%TO.P,R7,1*%
%TO.N,/Out_2*%
X164705000Y-114275000D03*
%TO.P,R7,2*%
%TO.N,Net-(D4-A)*%
X166355000Y-114275000D03*
%TD*%
D10*
%TO.P,U2,1,VCC*%
%TO.N,+5V*%
X164580000Y-110745000D03*
%TO.P,U2,2,OUT*%
%TO.N,Net-(U2-OUT)*%
X166480000Y-110745000D03*
%TO.P,U2,3,GND*%
%TO.N,GND*%
X165530000Y-108870000D03*
%TD*%
D18*
%TO.P,R4,1*%
%TO.N,/R_lim_dig*%
X160460000Y-126785000D03*
%TO.P,R4,2*%
%TO.N,Net-(D1-A)*%
X158810000Y-126785000D03*
%TD*%
D23*
%TO.P,U4,1,VCC*%
%TO.N,+5V*%
X165895000Y-121330000D03*
%TO.P,U4,2,PA6*%
%TO.N,/Hall_1*%
X164625000Y-121330000D03*
%TO.P,U4,3,PA7*%
%TO.N,/Hall_2*%
X163355000Y-121330000D03*
%TO.P,U4,4,PA1*%
%TO.N,/F_lim_dig*%
X162085000Y-121330000D03*
%TO.P,U4,5,PA2*%
%TO.N,/R_lim_dig*%
X162085000Y-126280000D03*
%TO.P,U4,6,~{RESET}/PA0*%
%TO.N,/Program*%
X163355000Y-126280000D03*
%TO.P,U4,7,PA3*%
%TO.N,/Hall_3*%
X164625000Y-126280000D03*
%TO.P,U4,8,GND*%
%TO.N,GND*%
X165895000Y-126280000D03*
%TD*%
D20*
%TO.P,R2,1*%
%TO.N,/Out_2*%
X164725000Y-112715000D03*
%TO.P,R2,2*%
%TO.N,Net-(U2-OUT)*%
X166375000Y-112715000D03*
%TD*%
D24*
%TO.N,*%
X153499997Y-117475000D03*
X163324997Y-117500000D03*
X162599997Y-117500000D03*
X171099997Y-117525000D03*
X161949994Y-117500000D03*
X172524997Y-117550000D03*
X154150000Y-117475000D03*
X164024997Y-117525000D03*
X170449994Y-117525000D03*
X171824997Y-117525000D03*
X164675000Y-117525000D03*
X154875000Y-117475000D03*
X156225003Y-117500000D03*
X173175000Y-117550000D03*
X155575000Y-117500000D03*
D25*
%TO.N,GND*%
X158075000Y-129745000D03*
X160415000Y-121005000D03*
X160375000Y-124905000D03*
X165905000Y-126335000D03*
%TO.N,+5V*%
X164850000Y-106975000D03*
X154250000Y-110805000D03*
X164580000Y-110745000D03*
X154340000Y-107005000D03*
X174870000Y-107005000D03*
X174650000Y-110755000D03*
%TO.N,/Out_1*%
X152520000Y-110775000D03*
%TO.N,/Out_2*%
X162850000Y-110650000D03*
%TO.N,/Out_3*%
X172960000Y-110630000D03*
%TO.N,/R_lim_dig*%
X160485000Y-126815000D03*
%TO.N,/F_lim_dig*%
X160535000Y-122765000D03*
%TD*%
D26*
%TO.N,GND*%
X160415000Y-121005000D02*
X160325000Y-120800000D01*
X160075000Y-129745000D02*
X158075000Y-129745000D01*
X160235000Y-120890000D02*
X160415000Y-121005000D01*
X160785000Y-130455000D02*
X160075000Y-129745000D01*
%TO.N,/Out_1*%
X153350000Y-112675000D02*
X152840000Y-112165000D01*
X152840000Y-111105000D02*
X152500000Y-110765000D01*
X152840000Y-112165000D02*
X152840000Y-111105000D01*
X154395000Y-114265000D02*
X154395000Y-112675000D01*
X154395000Y-112675000D02*
X153350000Y-112675000D01*
%TO.N,/Out_2*%
X163710000Y-112715000D02*
X162850000Y-111855000D01*
X162850000Y-111855000D02*
X162850000Y-110650000D01*
X164725000Y-112715000D02*
X163710000Y-112715000D01*
X162850000Y-110650000D02*
X162840000Y-110635000D01*
X164705000Y-114275000D02*
X164705000Y-112735000D01*
%TO.N,/Out_3*%
X172970000Y-111825000D02*
X172960000Y-110630000D01*
X174755000Y-114225000D02*
X174755000Y-112625000D01*
X172960000Y-110630000D02*
X172970000Y-110625000D01*
X173770000Y-112625000D02*
X172970000Y-111825000D01*
X174755000Y-112625000D02*
X173770000Y-112625000D01*
%TO.N,/Program*%
X163325000Y-129185000D02*
X163325000Y-126310000D01*
X163325000Y-126310000D02*
X163355000Y-126280000D01*
%TO.N,/Hall_3*%
X167425000Y-125075000D02*
X166766250Y-124416250D01*
X167425000Y-126305000D02*
X167425000Y-125075000D01*
X168855000Y-127405000D02*
X168855000Y-127385000D01*
X168525000Y-127405000D02*
X167425000Y-126305000D01*
X164625000Y-124785000D02*
X164625000Y-126280000D01*
X166766250Y-124416250D02*
X164993750Y-124416250D01*
X164993750Y-124416250D02*
X164625000Y-124785000D01*
X168855000Y-127405000D02*
X168525000Y-127405000D01*
%TO.N,/Hall_1*%
X168855000Y-123405000D02*
X165725001Y-123405000D01*
X164625000Y-122304999D02*
X164625000Y-121330000D01*
X165725001Y-123405000D02*
X164625000Y-122304999D01*
%TO.N,/Hall_2*%
X167386250Y-123936250D02*
X165416250Y-123936250D01*
X163355000Y-121875000D02*
X163355000Y-121330000D01*
X165416250Y-123936250D02*
X163355000Y-121875000D01*
X168855000Y-125405000D02*
X167386250Y-123936250D01*
%TO.N,Net-(U1-OUT)*%
X156160000Y-112560000D02*
X156045000Y-112675000D01*
X156160000Y-110750000D02*
X156160000Y-112560000D01*
%TO.N,Net-(U2-OUT)*%
X166480000Y-110745000D02*
X166480000Y-112610000D01*
%TO.N,Net-(U3-OUT)*%
X176550000Y-110785000D02*
X176550000Y-112480000D01*
%TO.N,/R_lim_dig*%
X160460000Y-126785000D02*
X160485000Y-126815000D01*
X161580000Y-126785000D02*
X162085000Y-126280000D01*
X160485000Y-126815000D02*
X161580000Y-126785000D01*
X154875000Y-126565000D02*
X154875000Y-126625000D01*
%TO.N,/F_lim_dig*%
X160620000Y-122795000D02*
X162085000Y-121330000D01*
X160535000Y-122765000D02*
X160620000Y-122795000D01*
X160520000Y-122795000D02*
X160535000Y-122765000D01*
%TO.N,Net-(D1-A)*%
X158810000Y-126785000D02*
X158810000Y-125257500D01*
X158810000Y-125257500D02*
X158467500Y-124915000D01*
%TO.N,Net-(D2-A)*%
X158527500Y-120995000D02*
X158527500Y-122452500D01*
X158527500Y-122452500D02*
X158870000Y-122795000D01*
%TO.N,Net-(D3-A)*%
X158110000Y-112525000D02*
X158110000Y-111032500D01*
X156045000Y-114265000D02*
X156370000Y-114265000D01*
X156370000Y-114265000D02*
X158110000Y-112525000D01*
%TO.N,Net-(D4-A)*%
X166670000Y-114275000D02*
X168560000Y-112385000D01*
X168560000Y-112385000D02*
X168560000Y-111010000D01*
%TO.N,Net-(D5-A)*%
X176970000Y-114225000D02*
X178620000Y-112575000D01*
X176405000Y-114225000D02*
X176970000Y-114225000D01*
X178620000Y-112575000D02*
X178620000Y-111080000D01*
%TD*%
%TA.AperFunction,Conductor*%
%TO.N,GND*%
G36*
X180349157Y-103469633D02*
G01*
X180385132Y-103519125D01*
X180385145Y-103580310D01*
X180349192Y-103629818D01*
X180342423Y-103634325D01*
X180135861Y-103759939D01*
X180135847Y-103759949D01*
X179912952Y-103941287D01*
X179912951Y-103941288D01*
X179912948Y-103941291D01*
X179912947Y-103941292D01*
X179866623Y-103990893D01*
X179716810Y-104151303D01*
X179716805Y-104151309D01*
X179551098Y-104386065D01*
X179418895Y-104641204D01*
X179360716Y-104804903D01*
X179343674Y-104852859D01*
X179322665Y-104911972D01*
X179264203Y-105193308D01*
X179264201Y-105193317D01*
X179244592Y-105479996D01*
X179244592Y-105480003D01*
X179264201Y-105766682D01*
X179264202Y-105766686D01*
X179322666Y-106048032D01*
X179418896Y-106318797D01*
X179551099Y-106573936D01*
X179716811Y-106808698D01*
X179912947Y-107018708D01*
X180135853Y-107200055D01*
X180135859Y-107200059D01*
X180135861Y-107200060D01*
X180381370Y-107349358D01*
X180381382Y-107349365D01*
X180568237Y-107430526D01*
X180644942Y-107463844D01*
X180921642Y-107541371D01*
X181206322Y-107580500D01*
X181206328Y-107580500D01*
X181493672Y-107580500D01*
X181493678Y-107580500D01*
X181778358Y-107541371D01*
X182055058Y-107463844D01*
X182229381Y-107388125D01*
X182318617Y-107349365D01*
X182318620Y-107349362D01*
X182318625Y-107349361D01*
X182564147Y-107200055D01*
X182787053Y-107018708D01*
X182983189Y-106808698D01*
X183112664Y-106625271D01*
X183161664Y-106588638D01*
X183222844Y-106587802D01*
X183272831Y-106623086D01*
X183292532Y-106681013D01*
X183292541Y-106682156D01*
X183306910Y-113442361D01*
X183288126Y-113500591D01*
X183238703Y-113536660D01*
X183177518Y-113536790D01*
X183127941Y-113500932D01*
X183127030Y-113499662D01*
X183008194Y-113331309D01*
X183008193Y-113331308D01*
X183008189Y-113331302D01*
X182812053Y-113121292D01*
X182799756Y-113111288D01*
X182589152Y-112939949D01*
X182589151Y-112939948D01*
X182589147Y-112939945D01*
X182589142Y-112939942D01*
X182589138Y-112939939D01*
X182343629Y-112790641D01*
X182343617Y-112790634D01*
X182080063Y-112676158D01*
X182080061Y-112676157D01*
X182080058Y-112676156D01*
X181803358Y-112598629D01*
X181518678Y-112559500D01*
X181231322Y-112559500D01*
X180946642Y-112598629D01*
X180669942Y-112676156D01*
X180669939Y-112676156D01*
X180669936Y-112676158D01*
X180406382Y-112790634D01*
X180406370Y-112790641D01*
X180160861Y-112939939D01*
X180160847Y-112939949D01*
X179937952Y-113121287D01*
X179937951Y-113121288D01*
X179937948Y-113121291D01*
X179937947Y-113121292D01*
X179875327Y-113188342D01*
X179741810Y-113331303D01*
X179741805Y-113331309D01*
X179576098Y-113566065D01*
X179443895Y-113821204D01*
X179347665Y-114091972D01*
X179289203Y-114373308D01*
X179289201Y-114373317D01*
X179269592Y-114659996D01*
X179269592Y-114660003D01*
X179289201Y-114946682D01*
X179289202Y-114946686D01*
X179347666Y-115228032D01*
X179443896Y-115498797D01*
X179554087Y-115711454D01*
X179576098Y-115753934D01*
X179734746Y-115978690D01*
X179741811Y-115988698D01*
X179937947Y-116198708D01*
X180160853Y-116380055D01*
X180165793Y-116383059D01*
X180179644Y-116391482D01*
X180219540Y-116437872D01*
X180224549Y-116498852D01*
X180192758Y-116551130D01*
X180136311Y-116574738D01*
X180128605Y-116575069D01*
X174074251Y-116599499D01*
X174073852Y-116599500D01*
X173986306Y-116599500D01*
X173812334Y-116634106D01*
X173812332Y-116634106D01*
X173648455Y-116701985D01*
X173648454Y-116701985D01*
X173500965Y-116800535D01*
X173375536Y-116925964D01*
X173368068Y-116937141D01*
X173322056Y-117006002D01*
X173274008Y-117043881D01*
X173239742Y-117050000D01*
X170410258Y-117050000D01*
X170352067Y-117031093D01*
X170327944Y-117006003D01*
X170274464Y-116925965D01*
X170149035Y-116800536D01*
X170001547Y-116701987D01*
X170001546Y-116701986D01*
X170001544Y-116701985D01*
X169837666Y-116634106D01*
X169663693Y-116599500D01*
X169663691Y-116599500D01*
X169640892Y-116599500D01*
X165665892Y-116599500D01*
X165600000Y-116599500D01*
X165511309Y-116599500D01*
X165511306Y-116599500D01*
X165337334Y-116634106D01*
X165337332Y-116634106D01*
X165173455Y-116701985D01*
X165173454Y-116701985D01*
X165025965Y-116800535D01*
X164900536Y-116925964D01*
X164893068Y-116937141D01*
X164847056Y-117006002D01*
X164799008Y-117043881D01*
X164764742Y-117050000D01*
X163400327Y-117050000D01*
X163393332Y-117049500D01*
X163389769Y-117049500D01*
X163260225Y-117049500D01*
X163256662Y-117049500D01*
X163249667Y-117050000D01*
X162675327Y-117050000D01*
X162668332Y-117049500D01*
X162664769Y-117049500D01*
X162535225Y-117049500D01*
X162531662Y-117049500D01*
X162524667Y-117050000D01*
X162025324Y-117050000D01*
X162018329Y-117049500D01*
X162014766Y-117049500D01*
X161934925Y-117049500D01*
X161876734Y-117030593D01*
X161852610Y-117005502D01*
X161799464Y-116925965D01*
X161674037Y-116800537D01*
X161526544Y-116701985D01*
X161362666Y-116634106D01*
X161188693Y-116599500D01*
X161188691Y-116599500D01*
X161165892Y-116599500D01*
X157190892Y-116599500D01*
X157125000Y-116599500D01*
X157036309Y-116599500D01*
X157036306Y-116599500D01*
X156862334Y-116634106D01*
X156862332Y-116634106D01*
X156698455Y-116701985D01*
X156698454Y-116701985D01*
X156550962Y-116800537D01*
X156425535Y-116925965D01*
X156372390Y-117005502D01*
X156324340Y-117043381D01*
X156290075Y-117049500D01*
X156156668Y-117049500D01*
X156149673Y-117050000D01*
X155650330Y-117050000D01*
X155643335Y-117049500D01*
X155639772Y-117049500D01*
X155510228Y-117049500D01*
X155506665Y-117049500D01*
X155499670Y-117050000D01*
X155040853Y-117050000D01*
X155012962Y-117045990D01*
X154939774Y-117024500D01*
X154939772Y-117024500D01*
X154810228Y-117024500D01*
X154810225Y-117024500D01*
X154737038Y-117045990D01*
X154709147Y-117050000D01*
X154315853Y-117050000D01*
X154287962Y-117045990D01*
X154214774Y-117024500D01*
X154214772Y-117024500D01*
X154085228Y-117024500D01*
X154085225Y-117024500D01*
X154012038Y-117045990D01*
X153984147Y-117050000D01*
X153665850Y-117050000D01*
X153637959Y-117045990D01*
X153564771Y-117024500D01*
X153564769Y-117024500D01*
X153443220Y-117024500D01*
X153385029Y-117005593D01*
X153360905Y-116980502D01*
X153324464Y-116925965D01*
X153199034Y-116800535D01*
X153051544Y-116701985D01*
X152887666Y-116634106D01*
X152713693Y-116599500D01*
X152713691Y-116599500D01*
X152626239Y-116599500D01*
X152625829Y-116599499D01*
X151323634Y-116594106D01*
X151265522Y-116574958D01*
X151229764Y-116525309D01*
X151230017Y-116464125D01*
X151266185Y-116414774D01*
X151272593Y-116410527D01*
X151339147Y-116370055D01*
X151562053Y-116188708D01*
X151758189Y-115978698D01*
X151923901Y-115743936D01*
X152056104Y-115488797D01*
X152152334Y-115218032D01*
X152210798Y-114936686D01*
X152228677Y-114675304D01*
X152230408Y-114650003D01*
X152230408Y-114649996D01*
X152211482Y-114373314D01*
X152210798Y-114363314D01*
X152152334Y-114081968D01*
X152056104Y-113811203D01*
X151923901Y-113556064D01*
X151758189Y-113321302D01*
X151562053Y-113111292D01*
X151479225Y-113043907D01*
X151339152Y-112929949D01*
X151339151Y-112929948D01*
X151339147Y-112929945D01*
X151339142Y-112929942D01*
X151339138Y-112929939D01*
X151093629Y-112780641D01*
X151093617Y-112780634D01*
X150830063Y-112666158D01*
X150830061Y-112666157D01*
X150830058Y-112666156D01*
X150553358Y-112588629D01*
X150268678Y-112549500D01*
X149981322Y-112549500D01*
X149696642Y-112588629D01*
X149696638Y-112588629D01*
X149696638Y-112588630D01*
X149620646Y-112609921D01*
X149419942Y-112666156D01*
X149419939Y-112666156D01*
X149419936Y-112666158D01*
X149156382Y-112780634D01*
X149156370Y-112780641D01*
X148910861Y-112929939D01*
X148910847Y-112929949D01*
X148687952Y-113111287D01*
X148687951Y-113111288D01*
X148687948Y-113111291D01*
X148687947Y-113111292D01*
X148578632Y-113228340D01*
X148491810Y-113321303D01*
X148491805Y-113321309D01*
X148326098Y-113556065D01*
X148193895Y-113811204D01*
X148097665Y-114081972D01*
X148039203Y-114363308D01*
X148039201Y-114363317D01*
X148019592Y-114649996D01*
X148019592Y-114650003D01*
X148039201Y-114936682D01*
X148039202Y-114936686D01*
X148097666Y-115218032D01*
X148193896Y-115488797D01*
X148326099Y-115743936D01*
X148415313Y-115870324D01*
X148483800Y-115967350D01*
X148491811Y-115978698D01*
X148687947Y-116188708D01*
X148687951Y-116188711D01*
X148687952Y-116188712D01*
X148910847Y-116370050D01*
X148910850Y-116370053D01*
X148910852Y-116370054D01*
X148910853Y-116370055D01*
X148965304Y-116403167D01*
X149005198Y-116449556D01*
X149010207Y-116510536D01*
X148978416Y-116562814D01*
X148921969Y-116586422D01*
X148913654Y-116586754D01*
X141584379Y-116571243D01*
X141566527Y-116569581D01*
X141555344Y-116567506D01*
X141513684Y-116570773D01*
X141505739Y-116571076D01*
X141464099Y-116570989D01*
X141463967Y-116570989D01*
X141463966Y-116570989D01*
X141457534Y-116571822D01*
X141457459Y-116571243D01*
X141444147Y-116573035D01*
X141253702Y-116574609D01*
X141239874Y-116573753D01*
X141012858Y-116543660D01*
X140999285Y-116540883D01*
X140778686Y-116479390D01*
X140765633Y-116474745D01*
X140555780Y-116383059D01*
X140543504Y-116376638D01*
X140348502Y-116256553D01*
X140337242Y-116248480D01*
X140265124Y-116188712D01*
X140160913Y-116102347D01*
X140150903Y-116092795D01*
X139996692Y-115923467D01*
X139988108Y-115912601D01*
X139859054Y-115723417D01*
X139852066Y-115711454D01*
X139750687Y-115506109D01*
X139745438Y-115493288D01*
X139673715Y-115275793D01*
X139670308Y-115262364D01*
X139629653Y-115037000D01*
X139628153Y-115023227D01*
X139625210Y-114946682D01*
X139619373Y-114794832D01*
X139619300Y-114791029D01*
X139619300Y-114781109D01*
X139619349Y-114777979D01*
X139619479Y-114773861D01*
X139621133Y-114721586D01*
X139621132Y-114721580D01*
X139620490Y-114715127D01*
X139620776Y-114715098D01*
X139619296Y-114702305D01*
X139619294Y-114665304D01*
X139619170Y-111931155D01*
X144964500Y-111931155D01*
X144964500Y-112088844D01*
X144995263Y-112243496D01*
X144995263Y-112243498D01*
X145055603Y-112389174D01*
X145055609Y-112389185D01*
X145096599Y-112450529D01*
X145143211Y-112520289D01*
X145254711Y-112631789D01*
X145306145Y-112666156D01*
X145385814Y-112719390D01*
X145385825Y-112719396D01*
X145439638Y-112741685D01*
X145531503Y-112779737D01*
X145686158Y-112810500D01*
X145686159Y-112810500D01*
X146393841Y-112810500D01*
X146393842Y-112810500D01*
X146548497Y-112779737D01*
X146694179Y-112719394D01*
X146825289Y-112631789D01*
X146936789Y-112520289D01*
X147024394Y-112389179D01*
X147084737Y-112243497D01*
X147115500Y-112088842D01*
X147115500Y-111931158D01*
X147084737Y-111776503D01*
X147042054Y-111673456D01*
X147024396Y-111630825D01*
X147024390Y-111630814D01*
X146984709Y-111571428D01*
X146936789Y-111499711D01*
X146825289Y-111388211D01*
X146749061Y-111337277D01*
X146694185Y-111300609D01*
X146694174Y-111300603D01*
X146548497Y-111240263D01*
X146393844Y-111209500D01*
X146393842Y-111209500D01*
X145686158Y-111209500D01*
X145686155Y-111209500D01*
X145531503Y-111240263D01*
X145531501Y-111240263D01*
X145385825Y-111300603D01*
X145385814Y-111300609D01*
X145254711Y-111388211D01*
X145254707Y-111388214D01*
X145143214Y-111499707D01*
X145143211Y-111499711D01*
X145055609Y-111630814D01*
X145055603Y-111630825D01*
X144995263Y-111776501D01*
X144995263Y-111776503D01*
X144964500Y-111931155D01*
X139619170Y-111931155D01*
X139619079Y-109931155D01*
X144964500Y-109931155D01*
X144964500Y-110088844D01*
X144995263Y-110243496D01*
X144995263Y-110243498D01*
X145055603Y-110389174D01*
X145055609Y-110389185D01*
X145108312Y-110468059D01*
X145143211Y-110520289D01*
X145254711Y-110631789D01*
X145330938Y-110682722D01*
X145385814Y-110719390D01*
X145385825Y-110719396D01*
X145424043Y-110735226D01*
X145531503Y-110779737D01*
X145686158Y-110810500D01*
X145686159Y-110810500D01*
X146393841Y-110810500D01*
X146393842Y-110810500D01*
X146548497Y-110779737D01*
X146694179Y-110719394D01*
X146825289Y-110631789D01*
X146936789Y-110520289D01*
X146956017Y-110491512D01*
X151844500Y-110491512D01*
X151844500Y-111008488D01*
X151859503Y-111103217D01*
X151860281Y-111108125D01*
X151860283Y-111108132D01*
X151921470Y-111228217D01*
X151921472Y-111228220D01*
X152016780Y-111323528D01*
X152016782Y-111323529D01*
X152136867Y-111384716D01*
X152136869Y-111384716D01*
X152136874Y-111384719D01*
X152212541Y-111396703D01*
X152236510Y-111400500D01*
X152236512Y-111400500D01*
X152440500Y-111400500D01*
X152498691Y-111419407D01*
X152534655Y-111468907D01*
X152539500Y-111499500D01*
X152539500Y-112204564D01*
X152559978Y-112280987D01*
X152559979Y-112280989D01*
X152585100Y-112324500D01*
X152599540Y-112349511D01*
X153109540Y-112859511D01*
X153109539Y-112859511D01*
X153165489Y-112915460D01*
X153234007Y-112955019D01*
X153234011Y-112955021D01*
X153310435Y-112975499D01*
X153310437Y-112975500D01*
X153310438Y-112975500D01*
X153708992Y-112975500D01*
X153767183Y-112994407D01*
X153803147Y-113043907D01*
X153806773Y-113059013D01*
X153809352Y-113075300D01*
X153809354Y-113075304D01*
X153866950Y-113188342D01*
X153956658Y-113278050D01*
X154040446Y-113320742D01*
X154083710Y-113364006D01*
X154094500Y-113408951D01*
X154094500Y-113531048D01*
X154075593Y-113589239D01*
X154040446Y-113619257D01*
X153956659Y-113661949D01*
X153866949Y-113751659D01*
X153809354Y-113864695D01*
X153794500Y-113958477D01*
X153794500Y-114571520D01*
X153794501Y-114571523D01*
X153809352Y-114665299D01*
X153809354Y-114665304D01*
X153866950Y-114778342D01*
X153956658Y-114868050D01*
X154069696Y-114925646D01*
X154163481Y-114940500D01*
X154626518Y-114940499D01*
X154626520Y-114940499D01*
X154626521Y-114940498D01*
X154673411Y-114933072D01*
X154720299Y-114925647D01*
X154720299Y-114925646D01*
X154720304Y-114925646D01*
X154833342Y-114868050D01*
X154923050Y-114778342D01*
X154980646Y-114665304D01*
X154995500Y-114571519D01*
X154995499Y-113958482D01*
X154995498Y-113958477D01*
X155444500Y-113958477D01*
X155444500Y-114571520D01*
X155444501Y-114571523D01*
X155459352Y-114665299D01*
X155459354Y-114665304D01*
X155516950Y-114778342D01*
X155606658Y-114868050D01*
X155719696Y-114925646D01*
X155813481Y-114940500D01*
X156276518Y-114940499D01*
X156276520Y-114940499D01*
X156276521Y-114940498D01*
X156323411Y-114933072D01*
X156370299Y-114925647D01*
X156370299Y-114925646D01*
X156370304Y-114925646D01*
X156483342Y-114868050D01*
X156573050Y-114778342D01*
X156630646Y-114665304D01*
X156645500Y-114571519D01*
X156645499Y-114455478D01*
X156664406Y-114397288D01*
X156674489Y-114385480D01*
X158350460Y-112709511D01*
X158361154Y-112690988D01*
X158390020Y-112640992D01*
X158390020Y-112640990D01*
X158390022Y-112640988D01*
X158410500Y-112564562D01*
X158410500Y-112485438D01*
X158410500Y-111819500D01*
X158429407Y-111761309D01*
X158478907Y-111725345D01*
X158509500Y-111720500D01*
X158619770Y-111720500D01*
X158619772Y-111720499D01*
X158649774Y-111717686D01*
X158776179Y-111673455D01*
X158883930Y-111593930D01*
X158963455Y-111486179D01*
X159007686Y-111359774D01*
X159010499Y-111329772D01*
X159010500Y-111329770D01*
X159010500Y-110735230D01*
X159010499Y-110735226D01*
X159009654Y-110726211D01*
X159007686Y-110705226D01*
X158963455Y-110578821D01*
X158883930Y-110471070D01*
X158776179Y-110391545D01*
X158776176Y-110391544D01*
X158776175Y-110391543D01*
X158704634Y-110366510D01*
X162174500Y-110366510D01*
X162174500Y-110883489D01*
X162190281Y-110983125D01*
X162190283Y-110983132D01*
X162248924Y-111098220D01*
X162251472Y-111103220D01*
X162346780Y-111198528D01*
X162346782Y-111198529D01*
X162466867Y-111259716D01*
X162466870Y-111259716D01*
X162466874Y-111259719D01*
X162466878Y-111259719D01*
X162474281Y-111262125D01*
X162473812Y-111263566D01*
X162520501Y-111287353D01*
X162548281Y-111341868D01*
X162549500Y-111357359D01*
X162549500Y-111894564D01*
X162569978Y-111970988D01*
X162592220Y-112009511D01*
X162592222Y-112009514D01*
X162609533Y-112039500D01*
X162609540Y-112039511D01*
X163525489Y-112955460D01*
X163525491Y-112955461D01*
X163525493Y-112955463D01*
X163594008Y-112995020D01*
X163594006Y-112995020D01*
X163594010Y-112995021D01*
X163594012Y-112995022D01*
X163670438Y-113015500D01*
X164038992Y-113015500D01*
X164097183Y-113034407D01*
X164133147Y-113083907D01*
X164136773Y-113099013D01*
X164139352Y-113115300D01*
X164139354Y-113115304D01*
X164196950Y-113228342D01*
X164286658Y-113318050D01*
X164350447Y-113350552D01*
X164393710Y-113393815D01*
X164404500Y-113438760D01*
X164404500Y-113541048D01*
X164385593Y-113599239D01*
X164350446Y-113629257D01*
X164266659Y-113671949D01*
X164176949Y-113761659D01*
X164119354Y-113874695D01*
X164104500Y-113968477D01*
X164104500Y-114581520D01*
X164104501Y-114581523D01*
X164119352Y-114675299D01*
X164119354Y-114675304D01*
X164176950Y-114788342D01*
X164266658Y-114878050D01*
X164379696Y-114935646D01*
X164473481Y-114950500D01*
X164936518Y-114950499D01*
X164936520Y-114950499D01*
X164936521Y-114950498D01*
X164983411Y-114943072D01*
X165030299Y-114935647D01*
X165030299Y-114935646D01*
X165030304Y-114935646D01*
X165143342Y-114878050D01*
X165233050Y-114788342D01*
X165290646Y-114675304D01*
X165305500Y-114581519D01*
X165305499Y-113968482D01*
X165305498Y-113968477D01*
X165754500Y-113968477D01*
X165754500Y-114581520D01*
X165754501Y-114581523D01*
X165769352Y-114675299D01*
X165769354Y-114675304D01*
X165826950Y-114788342D01*
X165916658Y-114878050D01*
X166029696Y-114935646D01*
X166123481Y-114950500D01*
X166586518Y-114950499D01*
X166586520Y-114950499D01*
X166586521Y-114950498D01*
X166633411Y-114943072D01*
X166680299Y-114935647D01*
X166680299Y-114935646D01*
X166680304Y-114935646D01*
X166793342Y-114878050D01*
X166883050Y-114788342D01*
X166940646Y-114675304D01*
X166955500Y-114581519D01*
X166955499Y-114455478D01*
X166974406Y-114397288D01*
X166984489Y-114385480D01*
X168800460Y-112569511D01*
X168803317Y-112564562D01*
X168840020Y-112500992D01*
X168840020Y-112500990D01*
X168840022Y-112500988D01*
X168860500Y-112424562D01*
X168860500Y-112345438D01*
X168860500Y-111797000D01*
X168879407Y-111738809D01*
X168928907Y-111702845D01*
X168959500Y-111698000D01*
X169069770Y-111698000D01*
X169069772Y-111697999D01*
X169099774Y-111695186D01*
X169226179Y-111650955D01*
X169333930Y-111571430D01*
X169413455Y-111463679D01*
X169457686Y-111337274D01*
X169460499Y-111307272D01*
X169460500Y-111307270D01*
X169460500Y-110712730D01*
X169460499Y-110712726D01*
X169460442Y-110712122D01*
X169457686Y-110682726D01*
X169413455Y-110556321D01*
X169333930Y-110448570D01*
X169226179Y-110369045D01*
X169226176Y-110369044D01*
X169226175Y-110369043D01*
X169204647Y-110361510D01*
X172294500Y-110361510D01*
X172294500Y-110878489D01*
X172310281Y-110978125D01*
X172310283Y-110978132D01*
X172371470Y-111098217D01*
X172371472Y-111098220D01*
X172466780Y-111193528D01*
X172466782Y-111193529D01*
X172586867Y-111254716D01*
X172586870Y-111254716D01*
X172586874Y-111254719D01*
X172586878Y-111254719D01*
X172594281Y-111257125D01*
X172593422Y-111259766D01*
X172636514Y-111281712D01*
X172664302Y-111336224D01*
X172665521Y-111350900D01*
X172669497Y-111825850D01*
X172669500Y-111826679D01*
X172669500Y-111864631D01*
X172669595Y-111865309D01*
X172669708Y-111866142D01*
X172669820Y-111866993D01*
X172669841Y-111867072D01*
X172669842Y-111867075D01*
X172679961Y-111903615D01*
X172680177Y-111904410D01*
X172689999Y-111941064D01*
X172690333Y-111941852D01*
X172690645Y-111942596D01*
X172690923Y-111943267D01*
X172710212Y-111976040D01*
X172710631Y-111976758D01*
X172729578Y-112009577D01*
X172730073Y-112010211D01*
X172730583Y-112010870D01*
X172731038Y-112011463D01*
X172731090Y-112011514D01*
X172731092Y-112011517D01*
X172758188Y-112038163D01*
X172758653Y-112038624D01*
X173529540Y-112809511D01*
X173529539Y-112809511D01*
X173585489Y-112865460D01*
X173654007Y-112905019D01*
X173654011Y-112905021D01*
X173730435Y-112925499D01*
X173730437Y-112925500D01*
X173730438Y-112925500D01*
X174068992Y-112925500D01*
X174127183Y-112944407D01*
X174163147Y-112993907D01*
X174166773Y-113009013D01*
X174169352Y-113025300D01*
X174169354Y-113025304D01*
X174226950Y-113138342D01*
X174316658Y-113228050D01*
X174400446Y-113270742D01*
X174443710Y-113314006D01*
X174454500Y-113358951D01*
X174454500Y-113491048D01*
X174435593Y-113549239D01*
X174400446Y-113579257D01*
X174316659Y-113621949D01*
X174226949Y-113711659D01*
X174169354Y-113824695D01*
X174154500Y-113918477D01*
X174154500Y-114531520D01*
X174154501Y-114531523D01*
X174169352Y-114625299D01*
X174169354Y-114625304D01*
X174226950Y-114738342D01*
X174316658Y-114828050D01*
X174429696Y-114885646D01*
X174523481Y-114900500D01*
X174986518Y-114900499D01*
X174986520Y-114900499D01*
X174986521Y-114900498D01*
X175033411Y-114893072D01*
X175080299Y-114885647D01*
X175080299Y-114885646D01*
X175080304Y-114885646D01*
X175193342Y-114828050D01*
X175283050Y-114738342D01*
X175340646Y-114625304D01*
X175355500Y-114531519D01*
X175355499Y-113918482D01*
X175355498Y-113918477D01*
X175804500Y-113918477D01*
X175804500Y-114531520D01*
X175804501Y-114531523D01*
X175819352Y-114625299D01*
X175819354Y-114625304D01*
X175876950Y-114738342D01*
X175966658Y-114828050D01*
X176079696Y-114885646D01*
X176173481Y-114900500D01*
X176636518Y-114900499D01*
X176636520Y-114900499D01*
X176636521Y-114900498D01*
X176683411Y-114893072D01*
X176730299Y-114885647D01*
X176730299Y-114885646D01*
X176730304Y-114885646D01*
X176843342Y-114828050D01*
X176933050Y-114738342D01*
X176990646Y-114625304D01*
X176996258Y-114589869D01*
X177024035Y-114535353D01*
X177068415Y-114509729D01*
X177085989Y-114505021D01*
X177154511Y-114465460D01*
X177210460Y-114409511D01*
X178860460Y-112759511D01*
X178869120Y-112744511D01*
X178900021Y-112690989D01*
X178920500Y-112614562D01*
X178920500Y-111867000D01*
X178939407Y-111808809D01*
X178988907Y-111772845D01*
X179019500Y-111768000D01*
X179129770Y-111768000D01*
X179129772Y-111767999D01*
X179159774Y-111765186D01*
X179286179Y-111720955D01*
X179393930Y-111641430D01*
X179473455Y-111533679D01*
X179517686Y-111407274D01*
X179520499Y-111377272D01*
X179520500Y-111377270D01*
X179520500Y-110782730D01*
X179520499Y-110782726D01*
X179517686Y-110752731D01*
X179517686Y-110752726D01*
X179473455Y-110626321D01*
X179393930Y-110518570D01*
X179286179Y-110439045D01*
X179286176Y-110439044D01*
X179286175Y-110439043D01*
X179159777Y-110394815D01*
X179159776Y-110394814D01*
X179159774Y-110394814D01*
X179159771Y-110394813D01*
X179159768Y-110394813D01*
X179129773Y-110392000D01*
X179129764Y-110392000D01*
X178110236Y-110392000D01*
X178110226Y-110392000D01*
X178080231Y-110394813D01*
X178080222Y-110394815D01*
X177953824Y-110439043D01*
X177846071Y-110518569D01*
X177846069Y-110518571D01*
X177766543Y-110626324D01*
X177722315Y-110752722D01*
X177722313Y-110752731D01*
X177719500Y-110782726D01*
X177719500Y-111377273D01*
X177722313Y-111407268D01*
X177722315Y-111407277D01*
X177766543Y-111533675D01*
X177766544Y-111533676D01*
X177766545Y-111533679D01*
X177846070Y-111641430D01*
X177953821Y-111720955D01*
X178080226Y-111765186D01*
X178110226Y-111767999D01*
X178110230Y-111768000D01*
X178110236Y-111768000D01*
X178220500Y-111768000D01*
X178278691Y-111786907D01*
X178314655Y-111836407D01*
X178319500Y-111867000D01*
X178319500Y-112409520D01*
X178300593Y-112467711D01*
X178290504Y-112479524D01*
X177065713Y-113704314D01*
X177011196Y-113732091D01*
X176950764Y-113722520D01*
X176925708Y-113704316D01*
X176843342Y-113621950D01*
X176730304Y-113564354D01*
X176730305Y-113564354D01*
X176636522Y-113549500D01*
X176173479Y-113549500D01*
X176173476Y-113549501D01*
X176079700Y-113564352D01*
X176079695Y-113564354D01*
X175966659Y-113621949D01*
X175876949Y-113711659D01*
X175819354Y-113824695D01*
X175804500Y-113918477D01*
X175355498Y-113918477D01*
X175348565Y-113874696D01*
X175340647Y-113824700D01*
X175340646Y-113824698D01*
X175340646Y-113824696D01*
X175283050Y-113711658D01*
X175193342Y-113621950D01*
X175170723Y-113610425D01*
X175109554Y-113579257D01*
X175066290Y-113535992D01*
X175055500Y-113491048D01*
X175055500Y-113358951D01*
X175074407Y-113300760D01*
X175109552Y-113270742D01*
X175193342Y-113228050D01*
X175283050Y-113138342D01*
X175340646Y-113025304D01*
X175355500Y-112931519D01*
X175355499Y-112318482D01*
X175355498Y-112318477D01*
X175804500Y-112318477D01*
X175804500Y-112931520D01*
X175804501Y-112931523D01*
X175819352Y-113025299D01*
X175819354Y-113025304D01*
X175876950Y-113138342D01*
X175966658Y-113228050D01*
X176079696Y-113285646D01*
X176173481Y-113300500D01*
X176636518Y-113300499D01*
X176636520Y-113300499D01*
X176636521Y-113300498D01*
X176705502Y-113289574D01*
X176730299Y-113285647D01*
X176730299Y-113285646D01*
X176730304Y-113285646D01*
X176843342Y-113228050D01*
X176933050Y-113138342D01*
X176990646Y-113025304D01*
X177005500Y-112931519D01*
X177005499Y-112318482D01*
X176998565Y-112274696D01*
X176990647Y-112224700D01*
X176990646Y-112224698D01*
X176990646Y-112224696D01*
X176933050Y-112111658D01*
X176910232Y-112088840D01*
X176879496Y-112058103D01*
X176851719Y-112003586D01*
X176850500Y-111988100D01*
X176850500Y-111750865D01*
X176869407Y-111692674D01*
X176900108Y-111666889D01*
X176899806Y-111666465D01*
X176905197Y-111662615D01*
X176906020Y-111661923D01*
X176906483Y-111661698D01*
X176989198Y-111578983D01*
X177040573Y-111473893D01*
X177050500Y-111405760D01*
X177050500Y-110164240D01*
X177040573Y-110096107D01*
X177037022Y-110088844D01*
X176989198Y-109991018D01*
X176989198Y-109991017D01*
X176906483Y-109908302D01*
X176906481Y-109908301D01*
X176801395Y-109856927D01*
X176774139Y-109852956D01*
X176733260Y-109847000D01*
X176366740Y-109847000D01*
X176332673Y-109851963D01*
X176298604Y-109856927D01*
X176193518Y-109908301D01*
X176110801Y-109991018D01*
X176059427Y-110096104D01*
X176054599Y-110129243D01*
X176049500Y-110164240D01*
X176049500Y-111405760D01*
X176054328Y-111438895D01*
X176059427Y-111473895D01*
X176110801Y-111578981D01*
X176110802Y-111578983D01*
X176193517Y-111661698D01*
X176193978Y-111661923D01*
X176194387Y-111662319D01*
X176200194Y-111666465D01*
X176199572Y-111667335D01*
X176237953Y-111704465D01*
X176249500Y-111750865D01*
X176249500Y-111852906D01*
X176230593Y-111911097D01*
X176181093Y-111947061D01*
X176165986Y-111950687D01*
X176079699Y-111964352D01*
X176079695Y-111964354D01*
X175966659Y-112021949D01*
X175876949Y-112111659D01*
X175819354Y-112224695D01*
X175804500Y-112318477D01*
X175355498Y-112318477D01*
X175348565Y-112274696D01*
X175340647Y-112224700D01*
X175340646Y-112224698D01*
X175340646Y-112224696D01*
X175283050Y-112111658D01*
X175193342Y-112021950D01*
X175080304Y-111964354D01*
X175080305Y-111964354D01*
X174986522Y-111949500D01*
X174523479Y-111949500D01*
X174523476Y-111949501D01*
X174429700Y-111964352D01*
X174429695Y-111964354D01*
X174316659Y-112021949D01*
X174226949Y-112111659D01*
X174169354Y-112224695D01*
X174166774Y-112240986D01*
X174138997Y-112295503D01*
X174084481Y-112323281D01*
X174068993Y-112324500D01*
X173935479Y-112324500D01*
X173877288Y-112305593D01*
X173865475Y-112295504D01*
X173298113Y-111728142D01*
X173270336Y-111673625D01*
X173269121Y-111658978D01*
X173266567Y-111353808D01*
X173284987Y-111295463D01*
X173334185Y-111259087D01*
X173350072Y-111255202D01*
X173353126Y-111254719D01*
X173473220Y-111193528D01*
X173568528Y-111098220D01*
X173629719Y-110978126D01*
X173645500Y-110878488D01*
X173645500Y-110755000D01*
X174144353Y-110755000D01*
X174148339Y-110782726D01*
X174148492Y-110783786D01*
X174149500Y-110797876D01*
X174149500Y-111405760D01*
X174154328Y-111438895D01*
X174159427Y-111473895D01*
X174210801Y-111578981D01*
X174210802Y-111578983D01*
X174293517Y-111661698D01*
X174327011Y-111678072D01*
X174398604Y-111713072D01*
X174398605Y-111713072D01*
X174398607Y-111713073D01*
X174466740Y-111723000D01*
X174466743Y-111723000D01*
X174833257Y-111723000D01*
X174833260Y-111723000D01*
X174901393Y-111713073D01*
X175006483Y-111661698D01*
X175089198Y-111578983D01*
X175140573Y-111473893D01*
X175150500Y-111405760D01*
X175150500Y-110797876D01*
X175151508Y-110783786D01*
X175151661Y-110782726D01*
X175155647Y-110755000D01*
X175155319Y-110752722D01*
X175151508Y-110726211D01*
X175150500Y-110712122D01*
X175150500Y-110164243D01*
X175147956Y-110146780D01*
X175140573Y-110096107D01*
X175137022Y-110088844D01*
X175089198Y-109991018D01*
X175089198Y-109991017D01*
X175006483Y-109908302D01*
X175006481Y-109908301D01*
X174901395Y-109856927D01*
X174874139Y-109852956D01*
X174833260Y-109847000D01*
X174466740Y-109847000D01*
X174432673Y-109851963D01*
X174398604Y-109856927D01*
X174293518Y-109908301D01*
X174210801Y-109991018D01*
X174159427Y-110096104D01*
X174154599Y-110129243D01*
X174152773Y-110141780D01*
X174149500Y-110164243D01*
X174149500Y-110712122D01*
X174148492Y-110726211D01*
X174144681Y-110752722D01*
X174144353Y-110755000D01*
X173645500Y-110755000D01*
X173645500Y-110361512D01*
X173643251Y-110347315D01*
X173639688Y-110324815D01*
X173629719Y-110261874D01*
X173629716Y-110261869D01*
X173629716Y-110261867D01*
X173568529Y-110141782D01*
X173568528Y-110141780D01*
X173473220Y-110046472D01*
X173473217Y-110046470D01*
X173353132Y-109985283D01*
X173353127Y-109985281D01*
X173353126Y-109985281D01*
X173319913Y-109980020D01*
X173253490Y-109969500D01*
X173253488Y-109969500D01*
X172686512Y-109969500D01*
X172686510Y-109969500D01*
X172586874Y-109985281D01*
X172586867Y-109985283D01*
X172466782Y-110046470D01*
X172371470Y-110141782D01*
X172310283Y-110261867D01*
X172310281Y-110261874D01*
X172294500Y-110361510D01*
X169204647Y-110361510D01*
X169099777Y-110324815D01*
X169099776Y-110324814D01*
X169099774Y-110324814D01*
X169099771Y-110324813D01*
X169099768Y-110324813D01*
X169069773Y-110322000D01*
X169069764Y-110322000D01*
X168050236Y-110322000D01*
X168050226Y-110322000D01*
X168020231Y-110324813D01*
X168020222Y-110324815D01*
X167893824Y-110369043D01*
X167786071Y-110448569D01*
X167786069Y-110448571D01*
X167706543Y-110556324D01*
X167662315Y-110682722D01*
X167662313Y-110682731D01*
X167659500Y-110712726D01*
X167659500Y-111307273D01*
X167662313Y-111337268D01*
X167662315Y-111337277D01*
X167706543Y-111463675D01*
X167706544Y-111463676D01*
X167706545Y-111463679D01*
X167786070Y-111571430D01*
X167893821Y-111650955D01*
X168020226Y-111695186D01*
X168050226Y-111697999D01*
X168050230Y-111698000D01*
X168050236Y-111698000D01*
X168160500Y-111698000D01*
X168218691Y-111716907D01*
X168254655Y-111766407D01*
X168259500Y-111797000D01*
X168259500Y-112219520D01*
X168240593Y-112277711D01*
X168230504Y-112289524D01*
X166880462Y-113639565D01*
X166825945Y-113667342D01*
X166765514Y-113657771D01*
X166680304Y-113614354D01*
X166680305Y-113614354D01*
X166586522Y-113599500D01*
X166123479Y-113599500D01*
X166123476Y-113599501D01*
X166029700Y-113614352D01*
X166029695Y-113614354D01*
X165916659Y-113671949D01*
X165826949Y-113761659D01*
X165769354Y-113874695D01*
X165754500Y-113968477D01*
X165305498Y-113968477D01*
X165303722Y-113957263D01*
X165290647Y-113874700D01*
X165290646Y-113874698D01*
X165290646Y-113874696D01*
X165233050Y-113761658D01*
X165143342Y-113671950D01*
X165121296Y-113660717D01*
X165059554Y-113629257D01*
X165016290Y-113585992D01*
X165005500Y-113541048D01*
X165005500Y-113459141D01*
X165024407Y-113400950D01*
X165059551Y-113370934D01*
X165163342Y-113318050D01*
X165253050Y-113228342D01*
X165310646Y-113115304D01*
X165325500Y-113021519D01*
X165325499Y-112408482D01*
X165325498Y-112408477D01*
X165774500Y-112408477D01*
X165774500Y-113021520D01*
X165774501Y-113021523D01*
X165789352Y-113115299D01*
X165789354Y-113115304D01*
X165846950Y-113228342D01*
X165936658Y-113318050D01*
X166049696Y-113375646D01*
X166143481Y-113390500D01*
X166606518Y-113390499D01*
X166606520Y-113390499D01*
X166606521Y-113390498D01*
X166655504Y-113382741D01*
X166700299Y-113375647D01*
X166700299Y-113375646D01*
X166700304Y-113375646D01*
X166813342Y-113318050D01*
X166903050Y-113228342D01*
X166960646Y-113115304D01*
X166975500Y-113021519D01*
X166975499Y-112408482D01*
X166962199Y-112324500D01*
X166960647Y-112314700D01*
X166960646Y-112314698D01*
X166960646Y-112314696D01*
X166903050Y-112201658D01*
X166813342Y-112111950D01*
X166813339Y-112111948D01*
X166809496Y-112108105D01*
X166781719Y-112053588D01*
X166780500Y-112038101D01*
X166780500Y-111710865D01*
X166799407Y-111652674D01*
X166830108Y-111626889D01*
X166829806Y-111626465D01*
X166835197Y-111622615D01*
X166836020Y-111621923D01*
X166836483Y-111621698D01*
X166919198Y-111538983D01*
X166970573Y-111433893D01*
X166980500Y-111365760D01*
X166980500Y-110124240D01*
X166970573Y-110056107D01*
X166968307Y-110051472D01*
X166938393Y-109990281D01*
X166919198Y-109951017D01*
X166836483Y-109868302D01*
X166813215Y-109856927D01*
X166731395Y-109816927D01*
X166697577Y-109812000D01*
X166663260Y-109807000D01*
X166296740Y-109807000D01*
X166262673Y-109811963D01*
X166228604Y-109816927D01*
X166123518Y-109868301D01*
X166040801Y-109951018D01*
X165989427Y-110056104D01*
X165989427Y-110056107D01*
X165979500Y-110124240D01*
X165979500Y-111365760D01*
X165982771Y-111388211D01*
X165989427Y-111433895D01*
X166021500Y-111499500D01*
X166040802Y-111538983D01*
X166123517Y-111621698D01*
X166123978Y-111621923D01*
X166124387Y-111622319D01*
X166130194Y-111626465D01*
X166129572Y-111627335D01*
X166167953Y-111664465D01*
X166179500Y-111710865D01*
X166179500Y-111949241D01*
X166160593Y-112007432D01*
X166111093Y-112043396D01*
X166095986Y-112047022D01*
X166049699Y-112054352D01*
X166049695Y-112054354D01*
X165936659Y-112111949D01*
X165846949Y-112201659D01*
X165789354Y-112314695D01*
X165774500Y-112408477D01*
X165325498Y-112408477D01*
X165312199Y-112324500D01*
X165310647Y-112314700D01*
X165310646Y-112314698D01*
X165310646Y-112314696D01*
X165253050Y-112201658D01*
X165163342Y-112111950D01*
X165050304Y-112054354D01*
X165050305Y-112054354D01*
X164956522Y-112039500D01*
X164493479Y-112039500D01*
X164493476Y-112039501D01*
X164399700Y-112054352D01*
X164399695Y-112054354D01*
X164286659Y-112111949D01*
X164196949Y-112201659D01*
X164139354Y-112314695D01*
X164136774Y-112330986D01*
X164108997Y-112385503D01*
X164054481Y-112413281D01*
X164038993Y-112414500D01*
X163875479Y-112414500D01*
X163817288Y-112395593D01*
X163805475Y-112385504D01*
X163179496Y-111759525D01*
X163151719Y-111705008D01*
X163150500Y-111689521D01*
X163150500Y-111357359D01*
X163169407Y-111299168D01*
X163218907Y-111263204D01*
X163232274Y-111259995D01*
X163233119Y-111259719D01*
X163233126Y-111259719D01*
X163353220Y-111198528D01*
X163448528Y-111103220D01*
X163509719Y-110983126D01*
X163525500Y-110883488D01*
X163525500Y-110744998D01*
X164074353Y-110744998D01*
X164074353Y-110745001D01*
X164078492Y-110773786D01*
X164079500Y-110787876D01*
X164079500Y-111365760D01*
X164082771Y-111388211D01*
X164089427Y-111433895D01*
X164121500Y-111499500D01*
X164140802Y-111538983D01*
X164223517Y-111621698D01*
X164263876Y-111641428D01*
X164328604Y-111673072D01*
X164328605Y-111673072D01*
X164328607Y-111673073D01*
X164396740Y-111683000D01*
X164396743Y-111683000D01*
X164763257Y-111683000D01*
X164763260Y-111683000D01*
X164831393Y-111673073D01*
X164936483Y-111621698D01*
X165019198Y-111538983D01*
X165070573Y-111433893D01*
X165080500Y-111365760D01*
X165080500Y-110787876D01*
X165081508Y-110773786D01*
X165085647Y-110745001D01*
X165085647Y-110744998D01*
X165081508Y-110716211D01*
X165080500Y-110702122D01*
X165080500Y-110124243D01*
X165079195Y-110115283D01*
X165070573Y-110056107D01*
X165068307Y-110051472D01*
X165038393Y-109990281D01*
X165019198Y-109951017D01*
X164936483Y-109868302D01*
X164913215Y-109856927D01*
X164831395Y-109816927D01*
X164797577Y-109812000D01*
X164763260Y-109807000D01*
X164396740Y-109807000D01*
X164362673Y-109811963D01*
X164328604Y-109816927D01*
X164223518Y-109868301D01*
X164140801Y-109951018D01*
X164089427Y-110056104D01*
X164089427Y-110056107D01*
X164080806Y-110115281D01*
X164079500Y-110124243D01*
X164079500Y-110702122D01*
X164078492Y-110716211D01*
X164074353Y-110744998D01*
X163525500Y-110744998D01*
X163525500Y-110366512D01*
X163509719Y-110266874D01*
X163509716Y-110266869D01*
X163509716Y-110266867D01*
X163448529Y-110146782D01*
X163448528Y-110146780D01*
X163353220Y-110051472D01*
X163353217Y-110051470D01*
X163233132Y-109990283D01*
X163233127Y-109990281D01*
X163233126Y-109990281D01*
X163199913Y-109985020D01*
X163133490Y-109974500D01*
X163133488Y-109974500D01*
X162566512Y-109974500D01*
X162566510Y-109974500D01*
X162466874Y-109990281D01*
X162466867Y-109990283D01*
X162346782Y-110051470D01*
X162251470Y-110146782D01*
X162190283Y-110266867D01*
X162190281Y-110266874D01*
X162174500Y-110366510D01*
X158704634Y-110366510D01*
X158649777Y-110347315D01*
X158649776Y-110347314D01*
X158649774Y-110347314D01*
X158649771Y-110347313D01*
X158649768Y-110347313D01*
X158619773Y-110344500D01*
X158619764Y-110344500D01*
X157600236Y-110344500D01*
X157600226Y-110344500D01*
X157570231Y-110347313D01*
X157570222Y-110347315D01*
X157443824Y-110391543D01*
X157443821Y-110391544D01*
X157443821Y-110391545D01*
X157395359Y-110427311D01*
X157336071Y-110471069D01*
X157336069Y-110471071D01*
X157256543Y-110578824D01*
X157212315Y-110705222D01*
X157212313Y-110705231D01*
X157209500Y-110735226D01*
X157209500Y-111329773D01*
X157212313Y-111359768D01*
X157212315Y-111359777D01*
X157256543Y-111486175D01*
X157256544Y-111486176D01*
X157256545Y-111486179D01*
X157336070Y-111593930D01*
X157443821Y-111673455D01*
X157570226Y-111717686D01*
X157600226Y-111720499D01*
X157600230Y-111720500D01*
X157600236Y-111720500D01*
X157710500Y-111720500D01*
X157768691Y-111739407D01*
X157804655Y-111788907D01*
X157809500Y-111819500D01*
X157809500Y-112359520D01*
X157790593Y-112417711D01*
X157780504Y-112429524D01*
X156577087Y-113632940D01*
X156522570Y-113660717D01*
X156462138Y-113651146D01*
X156370303Y-113604353D01*
X156276522Y-113589500D01*
X155813479Y-113589500D01*
X155813476Y-113589501D01*
X155719700Y-113604352D01*
X155719695Y-113604354D01*
X155606659Y-113661949D01*
X155516949Y-113751659D01*
X155459354Y-113864695D01*
X155444500Y-113958477D01*
X154995498Y-113958477D01*
X154989163Y-113918476D01*
X154980647Y-113864700D01*
X154980646Y-113864698D01*
X154980646Y-113864696D01*
X154923050Y-113751658D01*
X154833342Y-113661950D01*
X154812138Y-113651146D01*
X154749554Y-113619257D01*
X154706290Y-113575992D01*
X154695500Y-113531048D01*
X154695500Y-113408951D01*
X154714407Y-113350760D01*
X154749552Y-113320742D01*
X154833342Y-113278050D01*
X154923050Y-113188342D01*
X154980646Y-113075304D01*
X154995500Y-112981519D01*
X154995499Y-112368482D01*
X154995498Y-112368477D01*
X155444500Y-112368477D01*
X155444500Y-112981520D01*
X155444501Y-112981523D01*
X155459352Y-113075299D01*
X155459354Y-113075304D01*
X155516950Y-113188342D01*
X155606658Y-113278050D01*
X155719696Y-113335646D01*
X155813481Y-113350500D01*
X156276518Y-113350499D01*
X156276520Y-113350499D01*
X156276521Y-113350498D01*
X156345502Y-113339574D01*
X156370299Y-113335647D01*
X156370299Y-113335646D01*
X156370304Y-113335646D01*
X156483342Y-113278050D01*
X156573050Y-113188342D01*
X156630646Y-113075304D01*
X156645500Y-112981519D01*
X156645499Y-112368482D01*
X156641860Y-112345503D01*
X156630647Y-112274700D01*
X156630646Y-112274698D01*
X156630646Y-112274696D01*
X156573050Y-112161658D01*
X156489494Y-112078102D01*
X156461719Y-112023588D01*
X156460500Y-112008101D01*
X156460500Y-111715865D01*
X156479407Y-111657674D01*
X156510108Y-111631889D01*
X156509806Y-111631465D01*
X156515197Y-111627615D01*
X156516020Y-111626923D01*
X156516483Y-111626698D01*
X156599198Y-111543983D01*
X156650573Y-111438893D01*
X156660500Y-111370760D01*
X156660500Y-110129240D01*
X156650573Y-110061107D01*
X156648127Y-110056104D01*
X156616308Y-109991017D01*
X156599198Y-109956017D01*
X156516483Y-109873302D01*
X156506253Y-109868301D01*
X156411395Y-109821927D01*
X156384139Y-109817956D01*
X156343260Y-109812000D01*
X155976740Y-109812000D01*
X155942924Y-109816927D01*
X155908604Y-109821927D01*
X155803518Y-109873301D01*
X155720801Y-109956018D01*
X155669427Y-110061104D01*
X155669427Y-110061107D01*
X155659500Y-110129240D01*
X155659500Y-111370760D01*
X155661534Y-111384718D01*
X155669427Y-111438895D01*
X155715763Y-111533675D01*
X155720802Y-111543983D01*
X155803517Y-111626698D01*
X155803978Y-111626923D01*
X155804387Y-111627319D01*
X155810194Y-111631465D01*
X155809572Y-111632335D01*
X155847953Y-111669465D01*
X155859500Y-111715865D01*
X155859500Y-111907657D01*
X155840593Y-111965848D01*
X155791093Y-112001812D01*
X155775986Y-112005438D01*
X155719700Y-112014352D01*
X155719695Y-112014354D01*
X155606659Y-112071949D01*
X155516949Y-112161659D01*
X155459354Y-112274695D01*
X155444500Y-112368477D01*
X154995498Y-112368477D01*
X154991860Y-112345503D01*
X154980647Y-112274700D01*
X154980646Y-112274698D01*
X154980646Y-112274696D01*
X154923050Y-112161658D01*
X154833342Y-112071950D01*
X154720304Y-112014354D01*
X154720305Y-112014354D01*
X154626522Y-111999500D01*
X154163479Y-111999500D01*
X154163476Y-111999501D01*
X154069700Y-112014352D01*
X154069695Y-112014354D01*
X153956659Y-112071949D01*
X153866949Y-112161659D01*
X153809354Y-112274695D01*
X153809354Y-112274696D01*
X153807006Y-112289524D01*
X153806774Y-112290986D01*
X153778997Y-112345503D01*
X153724481Y-112373281D01*
X153708993Y-112374500D01*
X153515479Y-112374500D01*
X153457288Y-112355593D01*
X153445475Y-112345504D01*
X153169496Y-112069525D01*
X153141719Y-112015008D01*
X153140500Y-111999521D01*
X153140500Y-111208864D01*
X153151291Y-111163918D01*
X153179719Y-111108126D01*
X153195500Y-111008488D01*
X153195500Y-110804998D01*
X153744353Y-110804998D01*
X153744353Y-110805001D01*
X153758492Y-110903338D01*
X153759500Y-110917428D01*
X153759500Y-111370760D01*
X153761534Y-111384718D01*
X153769427Y-111438895D01*
X153815763Y-111533675D01*
X153820802Y-111543983D01*
X153903517Y-111626698D01*
X153933648Y-111641428D01*
X154008604Y-111678072D01*
X154008605Y-111678072D01*
X154008607Y-111678073D01*
X154076740Y-111688000D01*
X154076743Y-111688000D01*
X154443257Y-111688000D01*
X154443260Y-111688000D01*
X154511393Y-111678073D01*
X154616483Y-111626698D01*
X154699198Y-111543983D01*
X154750573Y-111438893D01*
X154760500Y-111370760D01*
X154760500Y-110129240D01*
X154750573Y-110061107D01*
X154748127Y-110056104D01*
X154716308Y-109991017D01*
X154699198Y-109956017D01*
X154616483Y-109873302D01*
X154606253Y-109868301D01*
X154511395Y-109821927D01*
X154484139Y-109817956D01*
X154443260Y-109812000D01*
X154076740Y-109812000D01*
X154042924Y-109816927D01*
X154008604Y-109821927D01*
X153903518Y-109873301D01*
X153820801Y-109956018D01*
X153769427Y-110061104D01*
X153769427Y-110061107D01*
X153764328Y-110096107D01*
X153759500Y-110129243D01*
X153759500Y-110692570D01*
X153758492Y-110706659D01*
X153744353Y-110804998D01*
X153195500Y-110804998D01*
X153195500Y-110491512D01*
X153192262Y-110471071D01*
X153188699Y-110448571D01*
X153179719Y-110391874D01*
X153179716Y-110391869D01*
X153179716Y-110391867D01*
X153118529Y-110271782D01*
X153118528Y-110271780D01*
X153023220Y-110176472D01*
X153023217Y-110176470D01*
X152903132Y-110115283D01*
X152903127Y-110115281D01*
X152903126Y-110115281D01*
X152869913Y-110110020D01*
X152803490Y-110099500D01*
X152803488Y-110099500D01*
X152236512Y-110099500D01*
X152236510Y-110099500D01*
X152136874Y-110115281D01*
X152136867Y-110115283D01*
X152016782Y-110176470D01*
X151921470Y-110271782D01*
X151860283Y-110391867D01*
X151860281Y-110391874D01*
X151847738Y-110471071D01*
X151844500Y-110491512D01*
X146956017Y-110491512D01*
X147024394Y-110389179D01*
X147084737Y-110243497D01*
X147115500Y-110088842D01*
X147115500Y-109931158D01*
X147084737Y-109776503D01*
X147024394Y-109630821D01*
X147024393Y-109630819D01*
X147024390Y-109630814D01*
X146989017Y-109577876D01*
X146936789Y-109499711D01*
X146825289Y-109388211D01*
X146773059Y-109353312D01*
X146694185Y-109300609D01*
X146694174Y-109300603D01*
X146548497Y-109240263D01*
X146393844Y-109209500D01*
X146393842Y-109209500D01*
X145686158Y-109209500D01*
X145686155Y-109209500D01*
X145531503Y-109240263D01*
X145531501Y-109240263D01*
X145385825Y-109300603D01*
X145385814Y-109300609D01*
X145254711Y-109388211D01*
X145254707Y-109388214D01*
X145143214Y-109499707D01*
X145143211Y-109499711D01*
X145055609Y-109630814D01*
X145055603Y-109630825D01*
X144995263Y-109776501D01*
X144995263Y-109776503D01*
X144964500Y-109931155D01*
X139619079Y-109931155D01*
X139618988Y-107931155D01*
X144964500Y-107931155D01*
X144964500Y-108088844D01*
X144995263Y-108243496D01*
X144995263Y-108243498D01*
X145055603Y-108389174D01*
X145055609Y-108389185D01*
X145108312Y-108468059D01*
X145143211Y-108520289D01*
X145254711Y-108631789D01*
X145332876Y-108684017D01*
X145385814Y-108719390D01*
X145385825Y-108719396D01*
X145439638Y-108741685D01*
X145531503Y-108779737D01*
X145686158Y-108810500D01*
X145686159Y-108810500D01*
X146393841Y-108810500D01*
X146393842Y-108810500D01*
X146548497Y-108779737D01*
X146694179Y-108719394D01*
X146825289Y-108631789D01*
X146936789Y-108520289D01*
X147024394Y-108389179D01*
X147084737Y-108243497D01*
X147115500Y-108088842D01*
X147115500Y-107931158D01*
X147084737Y-107776503D01*
X147038435Y-107664719D01*
X147024396Y-107630825D01*
X147024390Y-107630814D01*
X146977988Y-107561370D01*
X146936789Y-107499711D01*
X146825289Y-107388211D01*
X146767146Y-107349361D01*
X146694185Y-107300609D01*
X146694174Y-107300603D01*
X146548497Y-107240263D01*
X146393844Y-107209500D01*
X146393842Y-107209500D01*
X145686158Y-107209500D01*
X145686155Y-107209500D01*
X145531503Y-107240263D01*
X145531501Y-107240263D01*
X145385825Y-107300603D01*
X145385814Y-107300609D01*
X145254711Y-107388211D01*
X145254707Y-107388214D01*
X145143214Y-107499707D01*
X145143211Y-107499711D01*
X145055609Y-107630814D01*
X145055603Y-107630825D01*
X144995263Y-107776501D01*
X144995263Y-107776503D01*
X144964500Y-107931155D01*
X139618988Y-107931155D01*
X139618883Y-105605725D01*
X144964500Y-105605725D01*
X144964500Y-106414274D01*
X144967353Y-106444694D01*
X144967355Y-106444703D01*
X145012207Y-106572883D01*
X145092845Y-106682144D01*
X145092847Y-106682146D01*
X145092850Y-106682150D01*
X145092853Y-106682152D01*
X145092855Y-106682154D01*
X145202116Y-106762792D01*
X145202117Y-106762792D01*
X145202118Y-106762793D01*
X145330301Y-106807646D01*
X145360725Y-106810499D01*
X145360727Y-106810500D01*
X145360734Y-106810500D01*
X146719273Y-106810500D01*
X146719273Y-106810499D01*
X146749699Y-106807646D01*
X146877882Y-106762793D01*
X146987150Y-106682150D01*
X147067793Y-106572882D01*
X147112646Y-106444699D01*
X147115499Y-106414273D01*
X147115500Y-106414273D01*
X147115500Y-105605727D01*
X147115499Y-105605725D01*
X147112646Y-105575305D01*
X147112646Y-105575301D01*
X147067793Y-105447118D01*
X147043972Y-105414842D01*
X146987154Y-105337855D01*
X146987152Y-105337853D01*
X146987150Y-105337850D01*
X146987146Y-105337847D01*
X146987144Y-105337845D01*
X146877883Y-105257207D01*
X146749703Y-105212355D01*
X146749694Y-105212353D01*
X146719274Y-105209500D01*
X146719266Y-105209500D01*
X145360734Y-105209500D01*
X145360725Y-105209500D01*
X145330305Y-105212353D01*
X145330296Y-105212355D01*
X145202116Y-105257207D01*
X145092855Y-105337845D01*
X145092845Y-105337855D01*
X145012207Y-105447116D01*
X144967355Y-105575296D01*
X144967353Y-105575305D01*
X144964500Y-105605725D01*
X139618883Y-105605725D01*
X139618875Y-105423950D01*
X139620538Y-105405883D01*
X139622493Y-105395347D01*
X139622494Y-105395344D01*
X139619173Y-105353019D01*
X139618871Y-105345320D01*
X139618870Y-105302885D01*
X139618869Y-105302883D01*
X139618023Y-105296457D01*
X139618706Y-105296366D01*
X139616958Y-105283530D01*
X139615390Y-105093698D01*
X139616246Y-105079876D01*
X139635852Y-104931972D01*
X139646339Y-104852854D01*
X139649114Y-104839292D01*
X139710610Y-104618680D01*
X139715254Y-104605633D01*
X139759149Y-104505166D01*
X139806943Y-104395773D01*
X139813357Y-104383511D01*
X139933452Y-104188492D01*
X139941512Y-104177250D01*
X140087659Y-104000905D01*
X140097197Y-103990910D01*
X140266539Y-103836686D01*
X140277398Y-103828108D01*
X140466582Y-103699054D01*
X140478545Y-103692066D01*
X140530198Y-103666565D01*
X140683893Y-103590685D01*
X140696708Y-103585438D01*
X140914212Y-103513713D01*
X140927628Y-103510309D01*
X141153004Y-103469652D01*
X141166766Y-103468153D01*
X141395123Y-103459375D01*
X141398843Y-103459303D01*
X141408930Y-103459301D01*
X141412036Y-103459349D01*
X141468414Y-103461133D01*
X141468422Y-103461131D01*
X141474871Y-103460489D01*
X141474898Y-103460769D01*
X141487725Y-103459283D01*
X149082549Y-103457611D01*
X149140744Y-103476506D01*
X149176719Y-103525998D01*
X149176732Y-103587183D01*
X149140779Y-103636691D01*
X149134010Y-103641198D01*
X148905861Y-103779939D01*
X148905847Y-103779949D01*
X148682952Y-103961287D01*
X148682951Y-103961288D01*
X148486810Y-104171303D01*
X148486805Y-104171309D01*
X148321098Y-104406065D01*
X148188895Y-104661204D01*
X148092665Y-104931972D01*
X148034203Y-105213308D01*
X148034201Y-105213317D01*
X148014592Y-105499996D01*
X148014592Y-105500003D01*
X148034201Y-105786682D01*
X148034202Y-105786686D01*
X148092666Y-106068032D01*
X148188896Y-106338797D01*
X148321099Y-106593936D01*
X148354932Y-106641867D01*
X148473965Y-106810500D01*
X148486811Y-106828698D01*
X148682947Y-107038708D01*
X148905853Y-107220055D01*
X148905859Y-107220059D01*
X148905861Y-107220060D01*
X149151370Y-107369358D01*
X149151382Y-107369365D01*
X149338237Y-107450526D01*
X149414942Y-107483844D01*
X149691642Y-107561371D01*
X149976322Y-107600500D01*
X149976328Y-107600500D01*
X150263672Y-107600500D01*
X150263678Y-107600500D01*
X150548358Y-107561371D01*
X150825058Y-107483844D01*
X150999381Y-107408125D01*
X151088617Y-107369365D01*
X151088620Y-107369362D01*
X151088625Y-107369361D01*
X151334147Y-107220055D01*
X151557053Y-107038708D01*
X151753189Y-106828698D01*
X151828849Y-106721512D01*
X153684500Y-106721512D01*
X153684500Y-107288488D01*
X153697308Y-107369358D01*
X153700281Y-107388125D01*
X153700283Y-107388132D01*
X153757134Y-107499707D01*
X153761472Y-107508220D01*
X153856780Y-107603528D01*
X153856782Y-107603529D01*
X153976867Y-107664716D01*
X153976869Y-107664716D01*
X153976874Y-107664719D01*
X154052541Y-107676703D01*
X154076510Y-107680500D01*
X154076512Y-107680500D01*
X154593490Y-107680500D01*
X154614885Y-107677111D01*
X154693126Y-107664719D01*
X154813220Y-107603528D01*
X154908528Y-107508220D01*
X154969719Y-107388126D01*
X154985500Y-107288488D01*
X154985500Y-106721512D01*
X154980748Y-106691510D01*
X164214500Y-106691510D01*
X164214500Y-107258489D01*
X164219252Y-107288489D01*
X164228893Y-107349365D01*
X164230281Y-107358125D01*
X164230283Y-107358132D01*
X164284147Y-107463844D01*
X164291472Y-107478220D01*
X164386780Y-107573528D01*
X164386782Y-107573529D01*
X164506867Y-107634716D01*
X164506869Y-107634716D01*
X164506874Y-107634719D01*
X164582541Y-107646703D01*
X164606510Y-107650500D01*
X164606512Y-107650500D01*
X165123490Y-107650500D01*
X165144885Y-107647111D01*
X165223126Y-107634719D01*
X165343220Y-107573528D01*
X165438528Y-107478220D01*
X165499719Y-107358126D01*
X165515500Y-107258488D01*
X165515500Y-106741510D01*
X174239500Y-106741510D01*
X174239500Y-107308489D01*
X174255281Y-107408125D01*
X174255283Y-107408132D01*
X174306281Y-107508220D01*
X174316472Y-107528220D01*
X174411780Y-107623528D01*
X174411782Y-107623529D01*
X174531867Y-107684716D01*
X174531869Y-107684716D01*
X174531874Y-107684719D01*
X174607541Y-107696703D01*
X174631510Y-107700500D01*
X174631512Y-107700500D01*
X175148490Y-107700500D01*
X175169885Y-107697111D01*
X175248126Y-107684719D01*
X175368220Y-107623528D01*
X175463528Y-107528220D01*
X175524719Y-107408126D01*
X175540500Y-107308488D01*
X175540500Y-106741512D01*
X175524719Y-106641874D01*
X175524716Y-106641869D01*
X175524716Y-106641867D01*
X175463529Y-106521782D01*
X175463528Y-106521780D01*
X175368220Y-106426472D01*
X175368217Y-106426470D01*
X175248132Y-106365283D01*
X175248127Y-106365281D01*
X175248126Y-106365281D01*
X175214913Y-106360020D01*
X175148490Y-106349500D01*
X175148488Y-106349500D01*
X174631512Y-106349500D01*
X174631510Y-106349500D01*
X174531874Y-106365281D01*
X174531867Y-106365283D01*
X174411782Y-106426470D01*
X174316470Y-106521782D01*
X174255283Y-106641867D01*
X174255281Y-106641874D01*
X174239500Y-106741510D01*
X165515500Y-106741510D01*
X165515500Y-106691512D01*
X165499719Y-106591874D01*
X165499716Y-106591869D01*
X165499716Y-106591867D01*
X165438529Y-106471782D01*
X165438528Y-106471780D01*
X165343220Y-106376472D01*
X165343217Y-106376470D01*
X165223132Y-106315283D01*
X165223127Y-106315281D01*
X165223126Y-106315281D01*
X165189913Y-106310020D01*
X165123490Y-106299500D01*
X165123488Y-106299500D01*
X164606512Y-106299500D01*
X164606510Y-106299500D01*
X164506874Y-106315281D01*
X164506867Y-106315283D01*
X164386782Y-106376470D01*
X164291470Y-106471782D01*
X164230283Y-106591867D01*
X164230281Y-106591874D01*
X164214500Y-106691510D01*
X154980748Y-106691510D01*
X154969719Y-106621874D01*
X154969716Y-106621869D01*
X154969716Y-106621867D01*
X154908529Y-106501782D01*
X154908528Y-106501780D01*
X154813220Y-106406472D01*
X154813217Y-106406470D01*
X154693132Y-106345283D01*
X154693127Y-106345281D01*
X154693126Y-106345281D01*
X154659913Y-106340020D01*
X154593490Y-106329500D01*
X154593488Y-106329500D01*
X154076512Y-106329500D01*
X154076510Y-106329500D01*
X153976874Y-106345281D01*
X153976867Y-106345283D01*
X153856782Y-106406470D01*
X153761470Y-106501782D01*
X153700283Y-106621867D01*
X153700281Y-106621874D01*
X153689252Y-106691512D01*
X153684500Y-106721512D01*
X151828849Y-106721512D01*
X151918901Y-106593936D01*
X152051104Y-106338797D01*
X152147334Y-106068032D01*
X152205798Y-105786686D01*
X152225408Y-105500000D01*
X152218249Y-105395347D01*
X152205798Y-105213317D01*
X152205798Y-105213314D01*
X152147334Y-104931968D01*
X152051104Y-104661203D01*
X151918901Y-104406064D01*
X151753189Y-104171302D01*
X151557053Y-103961292D01*
X151532463Y-103941287D01*
X151334152Y-103779949D01*
X151334151Y-103779948D01*
X151334147Y-103779945D01*
X151334142Y-103779942D01*
X151334138Y-103779939D01*
X151105238Y-103640741D01*
X151065343Y-103594352D01*
X151060334Y-103533371D01*
X151092125Y-103481094D01*
X151148573Y-103457486D01*
X151156637Y-103457154D01*
X180290964Y-103450738D01*
X180349157Y-103469633D01*
G37*
%TD.AperFunction*%
%TD*%
%TA.AperFunction,Conductor*%
%TO.N,+5V*%
G36*
X154563617Y-117809333D02*
G01*
X154576319Y-117818561D01*
X154681323Y-117886043D01*
X154685931Y-117889004D01*
X154810228Y-117925500D01*
X154810230Y-117925500D01*
X154939770Y-117925500D01*
X154939772Y-117925500D01*
X155064069Y-117889004D01*
X155153795Y-117831340D01*
X155212968Y-117815786D01*
X155269985Y-117837985D01*
X155272146Y-117839804D01*
X155276950Y-117843967D01*
X155385926Y-117914001D01*
X155385931Y-117914004D01*
X155510228Y-117950500D01*
X155510230Y-117950500D01*
X155639770Y-117950500D01*
X155639772Y-117950500D01*
X155764069Y-117914004D01*
X155846478Y-117861042D01*
X155905653Y-117845488D01*
X155953524Y-117861043D01*
X156035929Y-117914001D01*
X156035934Y-117914004D01*
X156160231Y-117950500D01*
X156160233Y-117950500D01*
X156290075Y-117950500D01*
X156348266Y-117969407D01*
X156372390Y-117994498D01*
X156425535Y-118074034D01*
X156425536Y-118074035D01*
X156550965Y-118199464D01*
X156698453Y-118298013D01*
X156862334Y-118365894D01*
X157036309Y-118400500D01*
X157036310Y-118400500D01*
X161188690Y-118400500D01*
X161188691Y-118400500D01*
X161362666Y-118365894D01*
X161526547Y-118298013D01*
X161674035Y-118199464D01*
X161799464Y-118074035D01*
X161852609Y-117994497D01*
X161900659Y-117956619D01*
X161934924Y-117950500D01*
X162014764Y-117950500D01*
X162014766Y-117950500D01*
X162139063Y-117914004D01*
X162221472Y-117861042D01*
X162280647Y-117845488D01*
X162328518Y-117861043D01*
X162410923Y-117914001D01*
X162410928Y-117914004D01*
X162535225Y-117950500D01*
X162535227Y-117950500D01*
X162664767Y-117950500D01*
X162664769Y-117950500D01*
X162789066Y-117914004D01*
X162878792Y-117856341D01*
X162904003Y-117840139D01*
X162904751Y-117841303D01*
X162954018Y-117820479D01*
X163013614Y-117834333D01*
X163026316Y-117843561D01*
X163131320Y-117911043D01*
X163135928Y-117914004D01*
X163260225Y-117950500D01*
X163260227Y-117950500D01*
X163389767Y-117950500D01*
X163389769Y-117950500D01*
X163514066Y-117914004D01*
X163603792Y-117856340D01*
X163662965Y-117840786D01*
X163719982Y-117862985D01*
X163722143Y-117864804D01*
X163726947Y-117868967D01*
X163835923Y-117939001D01*
X163835928Y-117939004D01*
X163960225Y-117975500D01*
X163960227Y-117975500D01*
X164089767Y-117975500D01*
X164089769Y-117975500D01*
X164214066Y-117939004D01*
X164296475Y-117886042D01*
X164355650Y-117870488D01*
X164403521Y-117886043D01*
X164485926Y-117939001D01*
X164485931Y-117939004D01*
X164610228Y-117975500D01*
X164610230Y-117975500D01*
X164739771Y-117975500D01*
X164739772Y-117975500D01*
X164749328Y-117972694D01*
X164810487Y-117974437D01*
X164858942Y-118011797D01*
X164859539Y-118012680D01*
X164900535Y-118074034D01*
X164900536Y-118074035D01*
X165025965Y-118199464D01*
X165173453Y-118298013D01*
X165337334Y-118365894D01*
X165511309Y-118400500D01*
X165511310Y-118400500D01*
X169663690Y-118400500D01*
X169663691Y-118400500D01*
X169837666Y-118365894D01*
X170001547Y-118298013D01*
X170149035Y-118199464D01*
X170274464Y-118074035D01*
X170286282Y-118056346D01*
X170310905Y-118019498D01*
X170358955Y-117981619D01*
X170393220Y-117975500D01*
X170514764Y-117975500D01*
X170514766Y-117975500D01*
X170639063Y-117939004D01*
X170721472Y-117886042D01*
X170780647Y-117870488D01*
X170828518Y-117886043D01*
X170910923Y-117939001D01*
X170910928Y-117939004D01*
X171035225Y-117975500D01*
X171035227Y-117975500D01*
X171164767Y-117975500D01*
X171164769Y-117975500D01*
X171289066Y-117939004D01*
X171366869Y-117889003D01*
X171404003Y-117865139D01*
X171404751Y-117866303D01*
X171454018Y-117845479D01*
X171513614Y-117859333D01*
X171526316Y-117868561D01*
X171633489Y-117937437D01*
X171635928Y-117939004D01*
X171760225Y-117975500D01*
X171760227Y-117975500D01*
X171889767Y-117975500D01*
X171889769Y-117975500D01*
X172014066Y-117939004D01*
X172103792Y-117881340D01*
X172162965Y-117865786D01*
X172219982Y-117887985D01*
X172222143Y-117889804D01*
X172226947Y-117893967D01*
X172335923Y-117964001D01*
X172335928Y-117964004D01*
X172460225Y-118000500D01*
X172460227Y-118000500D01*
X172589767Y-118000500D01*
X172589769Y-118000500D01*
X172714066Y-117964004D01*
X172796475Y-117911042D01*
X172855650Y-117895488D01*
X172903521Y-117911043D01*
X172985926Y-117964001D01*
X172985931Y-117964004D01*
X173110228Y-118000500D01*
X173110230Y-118000500D01*
X173239770Y-118000500D01*
X173239772Y-118000500D01*
X173242390Y-117999731D01*
X173244668Y-117999795D01*
X173246783Y-117999492D01*
X173246835Y-117999857D01*
X173303549Y-118001472D01*
X173352006Y-118038830D01*
X173352540Y-118039620D01*
X173375536Y-118074035D01*
X173500965Y-118199464D01*
X173648453Y-118298013D01*
X173812334Y-118365894D01*
X173986309Y-118400500D01*
X174056802Y-118400500D01*
X174066912Y-118401017D01*
X174298813Y-118424826D01*
X174312719Y-118427266D01*
X174539175Y-118483928D01*
X174552596Y-118488324D01*
X174768689Y-118576656D01*
X174781339Y-118582915D01*
X174982660Y-118701118D01*
X174994279Y-118709108D01*
X175074248Y-118772955D01*
X175176712Y-118854763D01*
X175187098Y-118864346D01*
X175346921Y-119034481D01*
X175355837Y-119045445D01*
X175489810Y-119236604D01*
X175497073Y-119248724D01*
X175514862Y-119283882D01*
X175602465Y-119457013D01*
X175607929Y-119470046D01*
X175682591Y-119691220D01*
X175686143Y-119704897D01*
X175728553Y-119934439D01*
X175730122Y-119948484D01*
X175739369Y-120180549D01*
X175739448Y-120184491D01*
X175739448Y-120195161D01*
X175739399Y-120198287D01*
X175737617Y-120254667D01*
X175738261Y-120261121D01*
X175737974Y-120261149D01*
X175739452Y-120273937D01*
X175739874Y-130452287D01*
X175738213Y-130470352D01*
X175736257Y-130480892D01*
X175739575Y-130523203D01*
X175739878Y-130530939D01*
X175739879Y-130573361D01*
X175740727Y-130579796D01*
X175740044Y-130579885D01*
X175741789Y-130592717D01*
X175743353Y-130782532D01*
X175742497Y-130796360D01*
X175712399Y-131023378D01*
X175709622Y-131036950D01*
X175648126Y-131257550D01*
X175643481Y-131270602D01*
X175551794Y-131480454D01*
X175545375Y-131492726D01*
X175425283Y-131687735D01*
X175417215Y-131698988D01*
X175271086Y-131875311D01*
X175261522Y-131885333D01*
X175092203Y-132039538D01*
X175081332Y-132048127D01*
X174892155Y-132177178D01*
X174880192Y-132184166D01*
X174674838Y-132285551D01*
X174662017Y-132290799D01*
X174444535Y-132362520D01*
X174431106Y-132365928D01*
X174205737Y-132406588D01*
X174191964Y-132408088D01*
X173963970Y-132416856D01*
X173960269Y-132416929D01*
X173949651Y-132416940D01*
X173946422Y-132416891D01*
X173890324Y-132415118D01*
X173883872Y-132415762D01*
X173883847Y-132415511D01*
X173870879Y-132417015D01*
X152602516Y-132437338D01*
X152584356Y-132435676D01*
X152574095Y-132433771D01*
X152531518Y-132437110D01*
X152523877Y-132437413D01*
X152481170Y-132437454D01*
X152474743Y-132438307D01*
X152474647Y-132437588D01*
X152462014Y-132439305D01*
X152272457Y-132440867D01*
X152258629Y-132440011D01*
X152031614Y-132409912D01*
X152018041Y-132407135D01*
X151797439Y-132345637D01*
X151784387Y-132340992D01*
X151574532Y-132249302D01*
X151562257Y-132242881D01*
X151455566Y-132177178D01*
X151367254Y-132122793D01*
X151356001Y-132114725D01*
X151322291Y-132086788D01*
X151179671Y-131968590D01*
X151169652Y-131959028D01*
X151015455Y-131789716D01*
X151006866Y-131778847D01*
X150877799Y-131589647D01*
X150870824Y-131577704D01*
X150769438Y-131372350D01*
X150764191Y-131359534D01*
X150748323Y-131311419D01*
X150692466Y-131142043D01*
X150689059Y-131128619D01*
X150675655Y-131054327D01*
X150648398Y-130903247D01*
X150646898Y-130889475D01*
X150641712Y-130754664D01*
X150638108Y-130660982D01*
X150638036Y-130657263D01*
X150638036Y-130647329D01*
X150638085Y-130644209D01*
X150638386Y-130634696D01*
X150639867Y-130587835D01*
X150639865Y-130587827D01*
X150639223Y-130581378D01*
X150639512Y-130581349D01*
X150638032Y-130568568D01*
X150637998Y-129744997D01*
X157569353Y-129744997D01*
X157569353Y-129745002D01*
X157589834Y-129887456D01*
X157649622Y-130018371D01*
X157649623Y-130018373D01*
X157700557Y-130077154D01*
X157743873Y-130127144D01*
X157861354Y-130202644D01*
X157864947Y-130204953D01*
X157971403Y-130236211D01*
X158003035Y-130245499D01*
X158003036Y-130245499D01*
X158003039Y-130245500D01*
X158003041Y-130245500D01*
X158146959Y-130245500D01*
X158146961Y-130245500D01*
X158285053Y-130204953D01*
X158406128Y-130127143D01*
X158447264Y-130079668D01*
X158499660Y-130048073D01*
X158522083Y-130045500D01*
X159029303Y-130045500D01*
X159087494Y-130064407D01*
X159123458Y-130113907D01*
X159123458Y-130175093D01*
X159087494Y-130224593D01*
X159084319Y-130226805D01*
X159039580Y-130256699D01*
X159039576Y-130256702D01*
X158935702Y-130360576D01*
X158935699Y-130360580D01*
X158854078Y-130482732D01*
X158854078Y-130482733D01*
X158797860Y-130618456D01*
X158797860Y-130618458D01*
X158769200Y-130762542D01*
X158769200Y-130909457D01*
X158797860Y-131053541D01*
X158797860Y-131053543D01*
X158854078Y-131189266D01*
X158854078Y-131189267D01*
X158882498Y-131231799D01*
X158935699Y-131311420D01*
X159039580Y-131415301D01*
X159161731Y-131496920D01*
X159297458Y-131553140D01*
X159441545Y-131581800D01*
X159441547Y-131581800D01*
X159588453Y-131581800D01*
X159588455Y-131581800D01*
X159732542Y-131553140D01*
X159868269Y-131496920D01*
X159990420Y-131415301D01*
X160094301Y-131311420D01*
X160175920Y-131189269D01*
X160232140Y-131053542D01*
X160248329Y-130972148D01*
X160278225Y-130918766D01*
X160333790Y-130893149D01*
X160393800Y-130905085D01*
X160405694Y-130912921D01*
X160469368Y-130961780D01*
X160485336Y-130974032D01*
X160629882Y-131033904D01*
X160629882Y-131033905D01*
X160785000Y-131054327D01*
X160940117Y-131033905D01*
X161084664Y-130974032D01*
X161208788Y-130878788D01*
X161304032Y-130754664D01*
X161328536Y-130695506D01*
X161368272Y-130648980D01*
X161427767Y-130634696D01*
X161484295Y-130658111D01*
X161511464Y-130695506D01*
X161535968Y-130754664D01*
X161631212Y-130878788D01*
X161755336Y-130974032D01*
X161899882Y-131033904D01*
X161899882Y-131033905D01*
X162055000Y-131054327D01*
X162210117Y-131033905D01*
X162354664Y-130974032D01*
X162478788Y-130878788D01*
X162574032Y-130754664D01*
X162633905Y-130610117D01*
X162642994Y-130541076D01*
X162669335Y-130485853D01*
X162723105Y-130456658D01*
X162741147Y-130455000D01*
X163324999Y-130455000D01*
X163325000Y-130455000D01*
X163325000Y-129871147D01*
X163343907Y-129812956D01*
X163393407Y-129776992D01*
X163411074Y-129772994D01*
X163480117Y-129763905D01*
X163624664Y-129704032D01*
X163690943Y-129653173D01*
X163748616Y-129632750D01*
X163807282Y-129650127D01*
X163844530Y-129698668D01*
X163847684Y-129741505D01*
X163849677Y-129741702D01*
X163849200Y-129746547D01*
X163849200Y-129893457D01*
X163877860Y-130037541D01*
X163877860Y-130037543D01*
X163934078Y-130173266D01*
X163934078Y-130173267D01*
X163955615Y-130205499D01*
X164015699Y-130295420D01*
X164119580Y-130399301D01*
X164241731Y-130480920D01*
X164241732Y-130480920D01*
X164241733Y-130480921D01*
X164246108Y-130482733D01*
X164377458Y-130537140D01*
X164521545Y-130565800D01*
X164521547Y-130565800D01*
X164668453Y-130565800D01*
X164668455Y-130565800D01*
X164812542Y-130537140D01*
X164948269Y-130480920D01*
X165070420Y-130399301D01*
X165174301Y-130295420D01*
X165255920Y-130173269D01*
X165312140Y-130037542D01*
X165340800Y-129893455D01*
X165340800Y-129746545D01*
X165312140Y-129602458D01*
X165263348Y-129484664D01*
X165255921Y-129466733D01*
X165255921Y-129466732D01*
X165228432Y-129425593D01*
X165174301Y-129344580D01*
X165070420Y-129240699D01*
X164948269Y-129159080D01*
X164948268Y-129159079D01*
X164948266Y-129159078D01*
X164812542Y-129102860D01*
X164668457Y-129074200D01*
X164668455Y-129074200D01*
X164521545Y-129074200D01*
X164521542Y-129074200D01*
X164377458Y-129102860D01*
X164377456Y-129102860D01*
X164241733Y-129159078D01*
X164241732Y-129159078D01*
X164119580Y-129240699D01*
X164119570Y-129240707D01*
X164092501Y-129267776D01*
X164037984Y-129295552D01*
X163977552Y-129285980D01*
X163934289Y-129242715D01*
X163925491Y-129191489D01*
X163924327Y-129191489D01*
X163924327Y-129184999D01*
X163903905Y-129029882D01*
X163891828Y-129000725D01*
X167779500Y-129000725D01*
X167779500Y-129809274D01*
X167782353Y-129839694D01*
X167782355Y-129839703D01*
X167827207Y-129967883D01*
X167907845Y-130077144D01*
X167907847Y-130077146D01*
X167907850Y-130077150D01*
X167907853Y-130077152D01*
X167907855Y-130077154D01*
X168017116Y-130157792D01*
X168017117Y-130157792D01*
X168017118Y-130157793D01*
X168145301Y-130202646D01*
X168175725Y-130205499D01*
X168175727Y-130205500D01*
X168175734Y-130205500D01*
X169534273Y-130205500D01*
X169534273Y-130205499D01*
X169564699Y-130202646D01*
X169692882Y-130157793D01*
X169802150Y-130077150D01*
X169882793Y-129967882D01*
X169927646Y-129839699D01*
X169930499Y-129809273D01*
X169930500Y-129809273D01*
X169930500Y-129000727D01*
X169930499Y-129000725D01*
X169929589Y-128991019D01*
X169927646Y-128970301D01*
X169882793Y-128842118D01*
X169823081Y-128761211D01*
X169802154Y-128732855D01*
X169802152Y-128732853D01*
X169802150Y-128732850D01*
X169802146Y-128732847D01*
X169802144Y-128732845D01*
X169692883Y-128652207D01*
X169564703Y-128607355D01*
X169564694Y-128607353D01*
X169534274Y-128604500D01*
X169534266Y-128604500D01*
X168175734Y-128604500D01*
X168175725Y-128604500D01*
X168145305Y-128607353D01*
X168145296Y-128607355D01*
X168017116Y-128652207D01*
X167907855Y-128732845D01*
X167907845Y-128732855D01*
X167827207Y-128842116D01*
X167782355Y-128970296D01*
X167782353Y-128970305D01*
X167779500Y-129000725D01*
X163891828Y-129000725D01*
X163844033Y-128885339D01*
X163844033Y-128885338D01*
X163748787Y-128761211D01*
X163664232Y-128696329D01*
X163629577Y-128645904D01*
X163625500Y-128617787D01*
X163625500Y-127498031D01*
X163644407Y-127439840D01*
X163681019Y-127409090D01*
X163711483Y-127394198D01*
X163794198Y-127311483D01*
X163845573Y-127206393D01*
X163855500Y-127138260D01*
X163855500Y-125421740D01*
X163845573Y-125353607D01*
X163794198Y-125248517D01*
X163711483Y-125165802D01*
X163700867Y-125160612D01*
X163606395Y-125114427D01*
X163579139Y-125110456D01*
X163538260Y-125104500D01*
X163171740Y-125104500D01*
X163137673Y-125109463D01*
X163103604Y-125114427D01*
X162998518Y-125165801D01*
X162915801Y-125248518D01*
X162864427Y-125353604D01*
X162864224Y-125355000D01*
X162854500Y-125421740D01*
X162854500Y-127138260D01*
X162854997Y-127141669D01*
X162864427Y-127206395D01*
X162909377Y-127298340D01*
X162915802Y-127311483D01*
X162995505Y-127391186D01*
X163023281Y-127445701D01*
X163024500Y-127461188D01*
X163024500Y-128617788D01*
X163005593Y-128675979D01*
X162985768Y-128696330D01*
X162901213Y-128761211D01*
X162901207Y-128761217D01*
X162805967Y-128885338D01*
X162781464Y-128944494D01*
X162741727Y-128991019D01*
X162682232Y-129005303D01*
X162625704Y-128981888D01*
X162598536Y-128944494D01*
X162586990Y-128916621D01*
X162574032Y-128885337D01*
X162478788Y-128761212D01*
X162354664Y-128665968D01*
X162354660Y-128665966D01*
X162210117Y-128606095D01*
X162210117Y-128606094D01*
X162055000Y-128585673D01*
X161899882Y-128606094D01*
X161899882Y-128606095D01*
X161755339Y-128665966D01*
X161755338Y-128665966D01*
X161631217Y-128761207D01*
X161631207Y-128761217D01*
X161535967Y-128885338D01*
X161511464Y-128944494D01*
X161471727Y-128991019D01*
X161412232Y-129005303D01*
X161355704Y-128981888D01*
X161328536Y-128944494D01*
X161316990Y-128916621D01*
X161304032Y-128885337D01*
X161208788Y-128761212D01*
X161084664Y-128665968D01*
X161084660Y-128665966D01*
X160940117Y-128606095D01*
X160940117Y-128606094D01*
X160785000Y-128585673D01*
X160629882Y-128606094D01*
X160629882Y-128606095D01*
X160485341Y-128665965D01*
X160405694Y-128727080D01*
X160348017Y-128747503D01*
X160289352Y-128730125D01*
X160252105Y-128681583D01*
X160248329Y-128667850D01*
X160248082Y-128666610D01*
X160232140Y-128586458D01*
X160175921Y-128450733D01*
X160175921Y-128450732D01*
X160124091Y-128373164D01*
X160094301Y-128328580D01*
X159990420Y-128224699D01*
X159868269Y-128143080D01*
X159868268Y-128143079D01*
X159868266Y-128143078D01*
X159732542Y-128086860D01*
X159588457Y-128058200D01*
X159588455Y-128058200D01*
X159441545Y-128058200D01*
X159441542Y-128058200D01*
X159297458Y-128086860D01*
X159297456Y-128086860D01*
X159161733Y-128143078D01*
X159161732Y-128143078D01*
X159039580Y-128224699D01*
X159039576Y-128224702D01*
X158935702Y-128328576D01*
X158935699Y-128328580D01*
X158854078Y-128450732D01*
X158854078Y-128450733D01*
X158797860Y-128586456D01*
X158797860Y-128586458D01*
X158769200Y-128730542D01*
X158769200Y-128877457D01*
X158797860Y-129021541D01*
X158797860Y-129021543D01*
X158854078Y-129157266D01*
X158854078Y-129157267D01*
X158935702Y-129279425D01*
X158938394Y-129282705D01*
X158960687Y-129339684D01*
X158945231Y-129398885D01*
X158897929Y-129437695D01*
X158861858Y-129444500D01*
X158522083Y-129444500D01*
X158463892Y-129425593D01*
X158447264Y-129410331D01*
X158437346Y-129398885D01*
X158406128Y-129362857D01*
X158370070Y-129339684D01*
X158285057Y-129285049D01*
X158285054Y-129285047D01*
X158285053Y-129285047D01*
X158277077Y-129282705D01*
X158146964Y-129244500D01*
X158146961Y-129244500D01*
X158003039Y-129244500D01*
X158003035Y-129244500D01*
X157864949Y-129285046D01*
X157864942Y-129285049D01*
X157743873Y-129362855D01*
X157649622Y-129471628D01*
X157589834Y-129602543D01*
X157569353Y-129744997D01*
X150637998Y-129744997D01*
X150637711Y-122814995D01*
X152849751Y-122814995D01*
X152849751Y-122815004D01*
X152868685Y-122983053D01*
X152868688Y-122983065D01*
X152924544Y-123142690D01*
X152924544Y-123142691D01*
X153014520Y-123285886D01*
X153014523Y-123285890D01*
X153108631Y-123379998D01*
X153136407Y-123434513D01*
X153126836Y-123494945D01*
X153108632Y-123520000D01*
X153040003Y-123588630D01*
X153014520Y-123614113D01*
X152924544Y-123757308D01*
X152924544Y-123757309D01*
X152868688Y-123916934D01*
X152868685Y-123916946D01*
X152849751Y-124084995D01*
X152849751Y-124085004D01*
X152868685Y-124253053D01*
X152868688Y-124253065D01*
X152924544Y-124412690D01*
X152924544Y-124412691D01*
X153007391Y-124544540D01*
X153014523Y-124555890D01*
X153108631Y-124649998D01*
X153136407Y-124704513D01*
X153126836Y-124764945D01*
X153108632Y-124790000D01*
X153018158Y-124880475D01*
X153014520Y-124884113D01*
X152924544Y-125027308D01*
X152924544Y-125027309D01*
X152868688Y-125186934D01*
X152868685Y-125186946D01*
X152849751Y-125354995D01*
X152849751Y-125355004D01*
X152868685Y-125523053D01*
X152868688Y-125523065D01*
X152924544Y-125682690D01*
X152924544Y-125682691D01*
X153007994Y-125815500D01*
X153014523Y-125825890D01*
X153108631Y-125919998D01*
X153136407Y-125974513D01*
X153126836Y-126034945D01*
X153108632Y-126060000D01*
X153059394Y-126109239D01*
X153014520Y-126154113D01*
X152924544Y-126297308D01*
X152924544Y-126297309D01*
X152868688Y-126456934D01*
X152868685Y-126456946D01*
X152849751Y-126624995D01*
X152849751Y-126625004D01*
X152868685Y-126793053D01*
X152868688Y-126793065D01*
X152924544Y-126952690D01*
X152924544Y-126952691D01*
X153011777Y-127091520D01*
X153014523Y-127095890D01*
X153108631Y-127189998D01*
X153136407Y-127244513D01*
X153126836Y-127304945D01*
X153108632Y-127330000D01*
X153050583Y-127388050D01*
X153014520Y-127424113D01*
X152924544Y-127567308D01*
X152924544Y-127567309D01*
X152868688Y-127726934D01*
X152868685Y-127726946D01*
X152849751Y-127894995D01*
X152849751Y-127895004D01*
X152868685Y-128063053D01*
X152868688Y-128063065D01*
X152924544Y-128222690D01*
X152924544Y-128222691D01*
X153014520Y-128365886D01*
X153014523Y-128365890D01*
X153134110Y-128485477D01*
X153277310Y-128575456D01*
X153308755Y-128586459D01*
X153436934Y-128631311D01*
X153436938Y-128631312D01*
X153436941Y-128631313D01*
X153436942Y-128631313D01*
X153436946Y-128631314D01*
X153604996Y-128650249D01*
X153605000Y-128650249D01*
X153605004Y-128650249D01*
X153773053Y-128631314D01*
X153773055Y-128631313D01*
X153773059Y-128631313D01*
X153932690Y-128575456D01*
X154075890Y-128485477D01*
X154169998Y-128391368D01*
X154224513Y-128363593D01*
X154284945Y-128373164D01*
X154310000Y-128391367D01*
X154404110Y-128485477D01*
X154547310Y-128575456D01*
X154578755Y-128586459D01*
X154706934Y-128631311D01*
X154706938Y-128631312D01*
X154706941Y-128631313D01*
X154706942Y-128631313D01*
X154706946Y-128631314D01*
X154874996Y-128650249D01*
X154875000Y-128650249D01*
X154875004Y-128650249D01*
X155043053Y-128631314D01*
X155043055Y-128631313D01*
X155043059Y-128631313D01*
X155202690Y-128575456D01*
X155345890Y-128485477D01*
X155465477Y-128365890D01*
X155555456Y-128222690D01*
X155611313Y-128063059D01*
X155611314Y-128063053D01*
X155630249Y-127895004D01*
X155630249Y-127894995D01*
X155611314Y-127726946D01*
X155611311Y-127726934D01*
X155588480Y-127661690D01*
X155555456Y-127567310D01*
X155488342Y-127460500D01*
X155465479Y-127424113D01*
X155465478Y-127424112D01*
X155465477Y-127424110D01*
X155371368Y-127330001D01*
X155343593Y-127275487D01*
X155353164Y-127215055D01*
X155371367Y-127189999D01*
X155465477Y-127095890D01*
X155555456Y-126952690D01*
X155611313Y-126793059D01*
X155611314Y-126793053D01*
X155630249Y-126625004D01*
X155630249Y-126624995D01*
X155611314Y-126456946D01*
X155611311Y-126456934D01*
X155586035Y-126384700D01*
X155555456Y-126297310D01*
X155539338Y-126271659D01*
X155465479Y-126154113D01*
X155465478Y-126154112D01*
X155465477Y-126154110D01*
X155371368Y-126060001D01*
X155343593Y-126005487D01*
X155353164Y-125945055D01*
X155371367Y-125919999D01*
X155465477Y-125825890D01*
X155555456Y-125682690D01*
X155611313Y-125523059D01*
X155619008Y-125454768D01*
X155630249Y-125355004D01*
X155630249Y-125354995D01*
X155611314Y-125186946D01*
X155611311Y-125186934D01*
X155558300Y-125035438D01*
X155555456Y-125027310D01*
X155554520Y-125025821D01*
X155465479Y-124884113D01*
X155465478Y-124884112D01*
X155465477Y-124884110D01*
X155371368Y-124790001D01*
X155343593Y-124735487D01*
X155353164Y-124675055D01*
X155371367Y-124649999D01*
X155465477Y-124555890D01*
X155555456Y-124412690D01*
X155558068Y-124405226D01*
X157779500Y-124405226D01*
X157779500Y-125424773D01*
X157782313Y-125454768D01*
X157782315Y-125454777D01*
X157826543Y-125581175D01*
X157826544Y-125581176D01*
X157826545Y-125581179D01*
X157906070Y-125688930D01*
X158013821Y-125768455D01*
X158140226Y-125812686D01*
X158170226Y-125815499D01*
X158170230Y-125815500D01*
X158170236Y-125815500D01*
X158410500Y-125815500D01*
X158468691Y-125834407D01*
X158504655Y-125883907D01*
X158509500Y-125914500D01*
X158509500Y-126051048D01*
X158490593Y-126109239D01*
X158455446Y-126139257D01*
X158371659Y-126181949D01*
X158281949Y-126271659D01*
X158224354Y-126384695D01*
X158209500Y-126478477D01*
X158209500Y-127091520D01*
X158209501Y-127091523D01*
X158224352Y-127185299D01*
X158224354Y-127185304D01*
X158281950Y-127298342D01*
X158371658Y-127388050D01*
X158484696Y-127445646D01*
X158578481Y-127460500D01*
X159041518Y-127460499D01*
X159041520Y-127460499D01*
X159041521Y-127460498D01*
X159088411Y-127453072D01*
X159135299Y-127445647D01*
X159135299Y-127445646D01*
X159135304Y-127445646D01*
X159248342Y-127388050D01*
X159338050Y-127298342D01*
X159395646Y-127185304D01*
X159410500Y-127091519D01*
X159410499Y-126478482D01*
X159410498Y-126478477D01*
X159859500Y-126478477D01*
X159859500Y-127091520D01*
X159859501Y-127091523D01*
X159874352Y-127185299D01*
X159874354Y-127185304D01*
X159931950Y-127298342D01*
X160021658Y-127388050D01*
X160134696Y-127445646D01*
X160228481Y-127460500D01*
X160691518Y-127460499D01*
X160691520Y-127460499D01*
X160691521Y-127460498D01*
X160738411Y-127453072D01*
X160785299Y-127445647D01*
X160785299Y-127445646D01*
X160785304Y-127445646D01*
X160898342Y-127388050D01*
X160988050Y-127298342D01*
X161045646Y-127185304D01*
X161046310Y-127181109D01*
X161074083Y-127126593D01*
X161128597Y-127098812D01*
X161141367Y-127097630D01*
X161488855Y-127088110D01*
X161547542Y-127105417D01*
X161584848Y-127153913D01*
X161589531Y-127172797D01*
X161594426Y-127206393D01*
X161639377Y-127298340D01*
X161645802Y-127311483D01*
X161728517Y-127394198D01*
X161782285Y-127420483D01*
X161833604Y-127445572D01*
X161833605Y-127445572D01*
X161833607Y-127445573D01*
X161901740Y-127455500D01*
X161901743Y-127455500D01*
X162268257Y-127455500D01*
X162268260Y-127455500D01*
X162336393Y-127445573D01*
X162441483Y-127394198D01*
X162524198Y-127311483D01*
X162575573Y-127206393D01*
X162585500Y-127138260D01*
X162585500Y-125421740D01*
X162575573Y-125353607D01*
X162524198Y-125248517D01*
X162441483Y-125165802D01*
X162430867Y-125160612D01*
X162336395Y-125114427D01*
X162309139Y-125110456D01*
X162268260Y-125104500D01*
X161901740Y-125104500D01*
X161867673Y-125109463D01*
X161833604Y-125114427D01*
X161728518Y-125165801D01*
X161645801Y-125248518D01*
X161594427Y-125353604D01*
X161584500Y-125421743D01*
X161584500Y-126314521D01*
X161565593Y-126372712D01*
X161555503Y-126384525D01*
X161480017Y-126460010D01*
X161425500Y-126487787D01*
X161412725Y-126488969D01*
X161150569Y-126496151D01*
X161091882Y-126478844D01*
X161054577Y-126430348D01*
X161050077Y-126412678D01*
X161045646Y-126384696D01*
X160988050Y-126271658D01*
X160898342Y-126181950D01*
X160785304Y-126124354D01*
X160785305Y-126124354D01*
X160691522Y-126109500D01*
X160228479Y-126109500D01*
X160228476Y-126109501D01*
X160134700Y-126124352D01*
X160134695Y-126124354D01*
X160021659Y-126181949D01*
X159931949Y-126271659D01*
X159874354Y-126384695D01*
X159859500Y-126478477D01*
X159410498Y-126478477D01*
X159404460Y-126440350D01*
X159395647Y-126384700D01*
X159395646Y-126384698D01*
X159395646Y-126384696D01*
X159338050Y-126271658D01*
X159248342Y-126181950D01*
X159195466Y-126155008D01*
X159164554Y-126139257D01*
X159121290Y-126095992D01*
X159110500Y-126051048D01*
X159110500Y-125592154D01*
X159116056Y-125559456D01*
X159116700Y-125557614D01*
X159152686Y-125454774D01*
X159155500Y-125424764D01*
X159155500Y-124405236D01*
X159155500Y-124405230D01*
X159155499Y-124405226D01*
X159654500Y-124405226D01*
X159654500Y-125424773D01*
X159657313Y-125454768D01*
X159657315Y-125454777D01*
X159701543Y-125581175D01*
X159701544Y-125581176D01*
X159701545Y-125581179D01*
X159781070Y-125688930D01*
X159888821Y-125768455D01*
X160015226Y-125812686D01*
X160045226Y-125815499D01*
X160045230Y-125815500D01*
X160045236Y-125815500D01*
X160639770Y-125815500D01*
X160639772Y-125815499D01*
X160669774Y-125812686D01*
X160796179Y-125768455D01*
X160903930Y-125688930D01*
X160983455Y-125581179D01*
X161027686Y-125454774D01*
X161030499Y-125424772D01*
X161030500Y-125424770D01*
X161030500Y-124405230D01*
X161030499Y-124405226D01*
X161027686Y-124375231D01*
X161027686Y-124375226D01*
X160983455Y-124248821D01*
X160903930Y-124141070D01*
X160796179Y-124061545D01*
X160796176Y-124061544D01*
X160796175Y-124061543D01*
X160669777Y-124017315D01*
X160669776Y-124017314D01*
X160669774Y-124017314D01*
X160669771Y-124017313D01*
X160669768Y-124017313D01*
X160639773Y-124014500D01*
X160639764Y-124014500D01*
X160045236Y-124014500D01*
X160045226Y-124014500D01*
X160015231Y-124017313D01*
X160015222Y-124017315D01*
X159888824Y-124061543D01*
X159888821Y-124061544D01*
X159888821Y-124061545D01*
X159857048Y-124084995D01*
X159781071Y-124141069D01*
X159781069Y-124141071D01*
X159701543Y-124248824D01*
X159657315Y-124375222D01*
X159657313Y-124375231D01*
X159654500Y-124405226D01*
X159155499Y-124405226D01*
X159152686Y-124375231D01*
X159152686Y-124375226D01*
X159108455Y-124248821D01*
X159028930Y-124141070D01*
X158921179Y-124061545D01*
X158921176Y-124061544D01*
X158921175Y-124061543D01*
X158794777Y-124017315D01*
X158794776Y-124017314D01*
X158794774Y-124017314D01*
X158794771Y-124017313D01*
X158794768Y-124017313D01*
X158764773Y-124014500D01*
X158764764Y-124014500D01*
X158170236Y-124014500D01*
X158170226Y-124014500D01*
X158140231Y-124017313D01*
X158140222Y-124017315D01*
X158013824Y-124061543D01*
X158013821Y-124061544D01*
X158013821Y-124061545D01*
X157982048Y-124084995D01*
X157906071Y-124141069D01*
X157906069Y-124141071D01*
X157826543Y-124248824D01*
X157782315Y-124375222D01*
X157782313Y-124375231D01*
X157779500Y-124405226D01*
X155558068Y-124405226D01*
X155611313Y-124253059D01*
X155611314Y-124253053D01*
X155630249Y-124085004D01*
X155630249Y-124084995D01*
X155611314Y-123916946D01*
X155611311Y-123916934D01*
X155588480Y-123851690D01*
X155555456Y-123757310D01*
X155522901Y-123705500D01*
X155465479Y-123614113D01*
X155465478Y-123614112D01*
X155465477Y-123614110D01*
X155345890Y-123494523D01*
X155345887Y-123494521D01*
X155345886Y-123494520D01*
X155202691Y-123404544D01*
X155043065Y-123348688D01*
X155043053Y-123348685D01*
X154875004Y-123329751D01*
X154874996Y-123329751D01*
X154706946Y-123348685D01*
X154706934Y-123348688D01*
X154547309Y-123404544D01*
X154547308Y-123404544D01*
X154404113Y-123494520D01*
X154404110Y-123494522D01*
X154404110Y-123494523D01*
X154310001Y-123588631D01*
X154255487Y-123616407D01*
X154195055Y-123606836D01*
X154169999Y-123588632D01*
X154101368Y-123520001D01*
X154073593Y-123465487D01*
X154083164Y-123405055D01*
X154101367Y-123379999D01*
X154195477Y-123285890D01*
X154285456Y-123142690D01*
X154341313Y-122983059D01*
X154360249Y-122815000D01*
X154360249Y-122814995D01*
X154341314Y-122646946D01*
X154341311Y-122646934D01*
X154301967Y-122534496D01*
X154285456Y-122487310D01*
X154227262Y-122394696D01*
X154195479Y-122344113D01*
X154195478Y-122344112D01*
X154195477Y-122344110D01*
X154075890Y-122224523D01*
X154075887Y-122224521D01*
X154075886Y-122224520D01*
X153932691Y-122134544D01*
X153773065Y-122078688D01*
X153773053Y-122078685D01*
X153605004Y-122059751D01*
X153604996Y-122059751D01*
X153436946Y-122078685D01*
X153436934Y-122078688D01*
X153277309Y-122134544D01*
X153277308Y-122134544D01*
X153134113Y-122224520D01*
X153014520Y-122344113D01*
X152924544Y-122487308D01*
X152924544Y-122487309D01*
X152868688Y-122646934D01*
X152868685Y-122646946D01*
X152849751Y-122814995D01*
X150637711Y-122814995D01*
X150637614Y-120485226D01*
X157839500Y-120485226D01*
X157839500Y-121504773D01*
X157842313Y-121534768D01*
X157842315Y-121534777D01*
X157886543Y-121661175D01*
X157886544Y-121661176D01*
X157886545Y-121661179D01*
X157966070Y-121768930D01*
X158073821Y-121848455D01*
X158160699Y-121878855D01*
X158209378Y-121915919D01*
X158227000Y-121972298D01*
X158227000Y-122492064D01*
X158247477Y-122568485D01*
X158247480Y-122568491D01*
X158256236Y-122583657D01*
X158269500Y-122633157D01*
X158269500Y-123101520D01*
X158269501Y-123101523D01*
X158284352Y-123195299D01*
X158284354Y-123195304D01*
X158341950Y-123308342D01*
X158431658Y-123398050D01*
X158544696Y-123455646D01*
X158638481Y-123470500D01*
X159101518Y-123470499D01*
X159101520Y-123470499D01*
X159101521Y-123470498D01*
X159148411Y-123463072D01*
X159195299Y-123455647D01*
X159195299Y-123455646D01*
X159195304Y-123455646D01*
X159308342Y-123398050D01*
X159398050Y-123308342D01*
X159455646Y-123195304D01*
X159470500Y-123101519D01*
X159470499Y-122488482D01*
X159455646Y-122394696D01*
X159398050Y-122281658D01*
X159308342Y-122191950D01*
X159195304Y-122134354D01*
X159195305Y-122134354D01*
X159101522Y-122119500D01*
X159101519Y-122119500D01*
X158927000Y-122119500D01*
X158868809Y-122100593D01*
X158832845Y-122051093D01*
X158828000Y-122020500D01*
X158828000Y-121972298D01*
X158846907Y-121914107D01*
X158894299Y-121878855D01*
X158981179Y-121848455D01*
X159088930Y-121768930D01*
X159168455Y-121661179D01*
X159212686Y-121534774D01*
X159215499Y-121504772D01*
X159215500Y-121504770D01*
X159215500Y-120485230D01*
X159215499Y-120485226D01*
X159714500Y-120485226D01*
X159714500Y-121504773D01*
X159717313Y-121534768D01*
X159717315Y-121534777D01*
X159761543Y-121661175D01*
X159761544Y-121661176D01*
X159761545Y-121661179D01*
X159841070Y-121768930D01*
X159948821Y-121848455D01*
X160075226Y-121892686D01*
X160105226Y-121895499D01*
X160105230Y-121895500D01*
X160105236Y-121895500D01*
X160699770Y-121895500D01*
X160699772Y-121895499D01*
X160729774Y-121892686D01*
X160856179Y-121848455D01*
X160882687Y-121828890D01*
X160940730Y-121809549D01*
X160999061Y-121828019D01*
X161035395Y-121877247D01*
X161035855Y-121938431D01*
X161011477Y-121978550D01*
X160889924Y-122100103D01*
X160835407Y-122127880D01*
X160804433Y-122127880D01*
X160751522Y-122119500D01*
X160288479Y-122119500D01*
X160288476Y-122119501D01*
X160194700Y-122134352D01*
X160194695Y-122134354D01*
X160081659Y-122191949D01*
X159991949Y-122281659D01*
X159934354Y-122394695D01*
X159919500Y-122488477D01*
X159919500Y-123101520D01*
X159919501Y-123101523D01*
X159934352Y-123195299D01*
X159934354Y-123195304D01*
X159991950Y-123308342D01*
X160081658Y-123398050D01*
X160194696Y-123455646D01*
X160288481Y-123470500D01*
X160751518Y-123470499D01*
X160751520Y-123470499D01*
X160751521Y-123470498D01*
X160798411Y-123463072D01*
X160845299Y-123455647D01*
X160845299Y-123455646D01*
X160845304Y-123455646D01*
X160958342Y-123398050D01*
X161048050Y-123308342D01*
X161105646Y-123195304D01*
X161120500Y-123101519D01*
X161120499Y-122760477D01*
X161139406Y-122702287D01*
X161149489Y-122690480D01*
X161493453Y-122346516D01*
X161547968Y-122318741D01*
X161608400Y-122328312D01*
X161644026Y-122358995D01*
X161645800Y-122361480D01*
X161645801Y-122361481D01*
X161645802Y-122361483D01*
X161728517Y-122444198D01*
X161782285Y-122470483D01*
X161833604Y-122495572D01*
X161833605Y-122495572D01*
X161833607Y-122495573D01*
X161901740Y-122505500D01*
X161901743Y-122505500D01*
X162268257Y-122505500D01*
X162268260Y-122505500D01*
X162336393Y-122495573D01*
X162441483Y-122444198D01*
X162524198Y-122361483D01*
X162575573Y-122256393D01*
X162585500Y-122188260D01*
X162585500Y-120471740D01*
X162854500Y-120471740D01*
X162854500Y-122188260D01*
X162855038Y-122191950D01*
X162864427Y-122256395D01*
X162899709Y-122328565D01*
X162915802Y-122361483D01*
X162998517Y-122444198D01*
X163052285Y-122470483D01*
X163103604Y-122495572D01*
X163103605Y-122495572D01*
X163103607Y-122495573D01*
X163171740Y-122505500D01*
X163171743Y-122505500D01*
X163519521Y-122505500D01*
X163577712Y-122524407D01*
X163589525Y-122534496D01*
X165003757Y-123948728D01*
X165031534Y-124003245D01*
X165021963Y-124063677D01*
X164978698Y-124106942D01*
X164959378Y-124114358D01*
X164877761Y-124136228D01*
X164811063Y-124174737D01*
X164811062Y-124174737D01*
X164809244Y-124175786D01*
X164809236Y-124175792D01*
X164384539Y-124600489D01*
X164344980Y-124669007D01*
X164344978Y-124669011D01*
X164324500Y-124745435D01*
X164324500Y-125076635D01*
X164305593Y-125134826D01*
X164274889Y-125160612D01*
X164275192Y-125161036D01*
X164269817Y-125164873D01*
X164268982Y-125165574D01*
X164268800Y-125165663D01*
X164268518Y-125165801D01*
X164185801Y-125248518D01*
X164134427Y-125353604D01*
X164134224Y-125355000D01*
X164124500Y-125421740D01*
X164124500Y-127138260D01*
X164124997Y-127141669D01*
X164134427Y-127206395D01*
X164179377Y-127298340D01*
X164185802Y-127311483D01*
X164268517Y-127394198D01*
X164322285Y-127420483D01*
X164373604Y-127445572D01*
X164373605Y-127445572D01*
X164373607Y-127445573D01*
X164441740Y-127455500D01*
X164441743Y-127455500D01*
X164808257Y-127455500D01*
X164808260Y-127455500D01*
X164876393Y-127445573D01*
X164981483Y-127394198D01*
X165064198Y-127311483D01*
X165115573Y-127206393D01*
X165125500Y-127138260D01*
X165125500Y-125421740D01*
X165394500Y-125421740D01*
X165394500Y-127138260D01*
X165394997Y-127141669D01*
X165404427Y-127206395D01*
X165449377Y-127298340D01*
X165455802Y-127311483D01*
X165538517Y-127394198D01*
X165592285Y-127420483D01*
X165643604Y-127445572D01*
X165643605Y-127445572D01*
X165643607Y-127445573D01*
X165711740Y-127455500D01*
X165711743Y-127455500D01*
X166078257Y-127455500D01*
X166078260Y-127455500D01*
X166146393Y-127445573D01*
X166251483Y-127394198D01*
X166334198Y-127311483D01*
X166385573Y-127206393D01*
X166395500Y-127138260D01*
X166395500Y-126447428D01*
X166396508Y-126433338D01*
X166410647Y-126335001D01*
X166410647Y-126334998D01*
X166396508Y-126236659D01*
X166395500Y-126222570D01*
X166395500Y-125421743D01*
X166395500Y-125421740D01*
X166385573Y-125353607D01*
X166334198Y-125248517D01*
X166251483Y-125165802D01*
X166240867Y-125160612D01*
X166146395Y-125114427D01*
X166119139Y-125110456D01*
X166078260Y-125104500D01*
X165711740Y-125104500D01*
X165677673Y-125109463D01*
X165643604Y-125114427D01*
X165538518Y-125165801D01*
X165455801Y-125248518D01*
X165404427Y-125353604D01*
X165404224Y-125355000D01*
X165394500Y-125421740D01*
X165125500Y-125421740D01*
X165115573Y-125353607D01*
X165064198Y-125248517D01*
X164981483Y-125165802D01*
X164981017Y-125165574D01*
X164980603Y-125165173D01*
X164974808Y-125161036D01*
X164975428Y-125160167D01*
X164937045Y-125123031D01*
X164925500Y-125076635D01*
X164925500Y-124950479D01*
X164944407Y-124892288D01*
X164954496Y-124880475D01*
X165089225Y-124745746D01*
X165143742Y-124717969D01*
X165159229Y-124716750D01*
X166600771Y-124716750D01*
X166658962Y-124735657D01*
X166670775Y-124745746D01*
X167095504Y-125170475D01*
X167123281Y-125224992D01*
X167124500Y-125240479D01*
X167124500Y-126344564D01*
X167144977Y-126420985D01*
X167144979Y-126420989D01*
X167180291Y-126482152D01*
X167184540Y-126489511D01*
X167488082Y-126793053D01*
X167782181Y-127087152D01*
X167809958Y-127141669D01*
X167809275Y-127176470D01*
X167779500Y-127326155D01*
X167779500Y-127483844D01*
X167810263Y-127638496D01*
X167810263Y-127638498D01*
X167870603Y-127784174D01*
X167870609Y-127784185D01*
X167923312Y-127863059D01*
X167958211Y-127915289D01*
X168069711Y-128026789D01*
X168116721Y-128058200D01*
X168200814Y-128114390D01*
X168200825Y-128114396D01*
X168254638Y-128136685D01*
X168346503Y-128174737D01*
X168501158Y-128205500D01*
X168501159Y-128205500D01*
X169208841Y-128205500D01*
X169208842Y-128205500D01*
X169363497Y-128174737D01*
X169509179Y-128114394D01*
X169640289Y-128026789D01*
X169751789Y-127915289D01*
X169839394Y-127784179D01*
X169899737Y-127638497D01*
X169930500Y-127483842D01*
X169930500Y-127326158D01*
X169899737Y-127171503D01*
X169879622Y-127122942D01*
X169839396Y-127025825D01*
X169839390Y-127025814D01*
X169790529Y-126952690D01*
X169751789Y-126894711D01*
X169640289Y-126783211D01*
X169588059Y-126748312D01*
X169509185Y-126695609D01*
X169509174Y-126695603D01*
X169363497Y-126635263D01*
X169208844Y-126604500D01*
X169208842Y-126604500D01*
X168501158Y-126604500D01*
X168501155Y-126604500D01*
X168346501Y-126635263D01*
X168346499Y-126635264D01*
X168290045Y-126658647D01*
X168229048Y-126663446D01*
X168182157Y-126637186D01*
X167754496Y-126209525D01*
X167726719Y-126155008D01*
X167725500Y-126139521D01*
X167725500Y-125893371D01*
X167744407Y-125835180D01*
X167793907Y-125799216D01*
X167855093Y-125799216D01*
X167904593Y-125835180D01*
X167906806Y-125838356D01*
X167958211Y-125915289D01*
X168069711Y-126026789D01*
X168119421Y-126060004D01*
X168200814Y-126114390D01*
X168200825Y-126114396D01*
X168254638Y-126136685D01*
X168346503Y-126174737D01*
X168501158Y-126205500D01*
X168501159Y-126205500D01*
X169208841Y-126205500D01*
X169208842Y-126205500D01*
X169363497Y-126174737D01*
X169509179Y-126114394D01*
X169640289Y-126026789D01*
X169751789Y-125915289D01*
X169839394Y-125784179D01*
X169899737Y-125638497D01*
X169930500Y-125483842D01*
X169930500Y-125326158D01*
X169899737Y-125171503D01*
X169860442Y-125076635D01*
X169839396Y-125025825D01*
X169839390Y-125025814D01*
X169789052Y-124950479D01*
X169751789Y-124894711D01*
X169640289Y-124783211D01*
X169583753Y-124745435D01*
X169509185Y-124695609D01*
X169509174Y-124695603D01*
X169363497Y-124635263D01*
X169208844Y-124604500D01*
X169208842Y-124604500D01*
X168520479Y-124604500D01*
X168462288Y-124585593D01*
X168450475Y-124575504D01*
X168191774Y-124316803D01*
X168163997Y-124262286D01*
X168173568Y-124201854D01*
X168216833Y-124158589D01*
X168277265Y-124149018D01*
X168299657Y-124155333D01*
X168346503Y-124174737D01*
X168501158Y-124205500D01*
X168501159Y-124205500D01*
X169208841Y-124205500D01*
X169208842Y-124205500D01*
X169363497Y-124174737D01*
X169509179Y-124114394D01*
X169640289Y-124026789D01*
X169751789Y-123915289D01*
X169839394Y-123784179D01*
X169899737Y-123638497D01*
X169930500Y-123483842D01*
X169930500Y-123326158D01*
X169899737Y-123171503D01*
X169870749Y-123101519D01*
X169839396Y-123025825D01*
X169839390Y-123025814D01*
X169804017Y-122972876D01*
X169751789Y-122894711D01*
X169640289Y-122783211D01*
X169588059Y-122748312D01*
X169509185Y-122695609D01*
X169509174Y-122695603D01*
X169363497Y-122635263D01*
X169208844Y-122604500D01*
X169208842Y-122604500D01*
X168501158Y-122604500D01*
X168501155Y-122604500D01*
X168346503Y-122635263D01*
X168346501Y-122635263D01*
X168200825Y-122695603D01*
X168200814Y-122695609D01*
X168069711Y-122783211D01*
X168069707Y-122783214D01*
X167958214Y-122894707D01*
X167958211Y-122894711D01*
X167870609Y-123025814D01*
X167870606Y-123025819D01*
X167863330Y-123043387D01*
X167823592Y-123089912D01*
X167771866Y-123104500D01*
X165890480Y-123104500D01*
X165832289Y-123085593D01*
X165820476Y-123075504D01*
X165128054Y-122383082D01*
X165100277Y-122328565D01*
X165109119Y-122269595D01*
X165115572Y-122256396D01*
X165115572Y-122256394D01*
X165115573Y-122256393D01*
X165125500Y-122188260D01*
X165125500Y-120471740D01*
X165115573Y-120403607D01*
X165064198Y-120298517D01*
X164981483Y-120215802D01*
X164974706Y-120212489D01*
X164876395Y-120164427D01*
X164849139Y-120160456D01*
X164808260Y-120154500D01*
X164441740Y-120154500D01*
X164407673Y-120159463D01*
X164373604Y-120164427D01*
X164268518Y-120215801D01*
X164185801Y-120298518D01*
X164134427Y-120403604D01*
X164134427Y-120403607D01*
X164126906Y-120455231D01*
X164124500Y-120471743D01*
X164124500Y-121980521D01*
X164105593Y-122038712D01*
X164056093Y-122074676D01*
X163994907Y-122074676D01*
X163955496Y-122050525D01*
X163884496Y-121979525D01*
X163856719Y-121925008D01*
X163855500Y-121909521D01*
X163855500Y-120471743D01*
X163855500Y-120471740D01*
X163845573Y-120403607D01*
X163794198Y-120298517D01*
X163711483Y-120215802D01*
X163704706Y-120212489D01*
X163606395Y-120164427D01*
X163579139Y-120160456D01*
X163538260Y-120154500D01*
X163171740Y-120154500D01*
X163137673Y-120159463D01*
X163103604Y-120164427D01*
X162998518Y-120215801D01*
X162915801Y-120298518D01*
X162864427Y-120403604D01*
X162864427Y-120403607D01*
X162854500Y-120471740D01*
X162585500Y-120471740D01*
X162575573Y-120403607D01*
X162524198Y-120298517D01*
X162441483Y-120215802D01*
X162434706Y-120212489D01*
X162336395Y-120164427D01*
X162309139Y-120160456D01*
X162268260Y-120154500D01*
X161901740Y-120154500D01*
X161867673Y-120159463D01*
X161833604Y-120164427D01*
X161728518Y-120215801D01*
X161645801Y-120298518D01*
X161594427Y-120403604D01*
X161594427Y-120403607D01*
X161586906Y-120455231D01*
X161584500Y-120471743D01*
X161584500Y-121364520D01*
X161565593Y-121422711D01*
X161555504Y-121434524D01*
X161173550Y-121816478D01*
X161119033Y-121844255D01*
X161058601Y-121834684D01*
X161015336Y-121791419D01*
X161005765Y-121730987D01*
X161023892Y-121687685D01*
X161043455Y-121661179D01*
X161087686Y-121534774D01*
X161090499Y-121504772D01*
X161090500Y-121504770D01*
X161090500Y-120485230D01*
X161090499Y-120485226D01*
X161087686Y-120455231D01*
X161087686Y-120455226D01*
X161043455Y-120328821D01*
X160963930Y-120221070D01*
X160856179Y-120141545D01*
X160856176Y-120141544D01*
X160856175Y-120141543D01*
X160729777Y-120097315D01*
X160729776Y-120097314D01*
X160729774Y-120097314D01*
X160729771Y-120097313D01*
X160729768Y-120097313D01*
X160699773Y-120094500D01*
X160699764Y-120094500D01*
X160105236Y-120094500D01*
X160105226Y-120094500D01*
X160075231Y-120097313D01*
X160075222Y-120097315D01*
X159948824Y-120141543D01*
X159948821Y-120141544D01*
X159948821Y-120141545D01*
X159900359Y-120177311D01*
X159841071Y-120221069D01*
X159841069Y-120221071D01*
X159832496Y-120232687D01*
X159764618Y-120324658D01*
X159761543Y-120328824D01*
X159717315Y-120455222D01*
X159717313Y-120455231D01*
X159714500Y-120485226D01*
X159215499Y-120485226D01*
X159212686Y-120455231D01*
X159212686Y-120455226D01*
X159168455Y-120328821D01*
X159088930Y-120221070D01*
X158981179Y-120141545D01*
X158981176Y-120141544D01*
X158981175Y-120141543D01*
X158854777Y-120097315D01*
X158854776Y-120097314D01*
X158854774Y-120097314D01*
X158854771Y-120097313D01*
X158854768Y-120097313D01*
X158824773Y-120094500D01*
X158824764Y-120094500D01*
X158230236Y-120094500D01*
X158230226Y-120094500D01*
X158200231Y-120097313D01*
X158200222Y-120097315D01*
X158073824Y-120141543D01*
X158073821Y-120141544D01*
X158073821Y-120141545D01*
X158025359Y-120177311D01*
X157966071Y-120221069D01*
X157966069Y-120221071D01*
X157957496Y-120232687D01*
X157889618Y-120324658D01*
X157886543Y-120328824D01*
X157842315Y-120455222D01*
X157842313Y-120455231D01*
X157839500Y-120485226D01*
X150637614Y-120485226D01*
X150637609Y-120360198D01*
X150639271Y-120342135D01*
X150641228Y-120331596D01*
X150637907Y-120289262D01*
X150637605Y-120281567D01*
X150637605Y-120239123D01*
X150636757Y-120232687D01*
X150637438Y-120232597D01*
X150635695Y-120219761D01*
X150635492Y-120195161D01*
X150634132Y-120029954D01*
X150634988Y-120016129D01*
X150643957Y-119948484D01*
X150665089Y-119789102D01*
X150667861Y-119775552D01*
X150729365Y-119554928D01*
X150734002Y-119541899D01*
X150825698Y-119332029D01*
X150832114Y-119319763D01*
X150952212Y-119124745D01*
X150960265Y-119113513D01*
X151106415Y-118937163D01*
X151115961Y-118927161D01*
X151285287Y-118772951D01*
X151296141Y-118764373D01*
X151485357Y-118635295D01*
X151497289Y-118628327D01*
X151702654Y-118526935D01*
X151715455Y-118521694D01*
X151932959Y-118449965D01*
X151946372Y-118446560D01*
X152171754Y-118405897D01*
X152185521Y-118404398D01*
X152418473Y-118395436D01*
X152425355Y-118395413D01*
X152487165Y-118397367D01*
X152487168Y-118397366D01*
X152490484Y-118397471D01*
X152496058Y-118397267D01*
X152540919Y-118398452D01*
X152552606Y-118400150D01*
X152552672Y-118399652D01*
X152559105Y-118400499D01*
X152559108Y-118400500D01*
X152617089Y-118400500D01*
X152619705Y-118400535D01*
X152677643Y-118402066D01*
X152677644Y-118402065D01*
X152677651Y-118402066D01*
X152677657Y-118402064D01*
X152684100Y-118401389D01*
X152684152Y-118401887D01*
X152695884Y-118400500D01*
X152713690Y-118400500D01*
X152713691Y-118400500D01*
X152887666Y-118365894D01*
X153051547Y-118298013D01*
X153199035Y-118199464D01*
X153324464Y-118074035D01*
X153387808Y-117979235D01*
X153394314Y-117969498D01*
X153442364Y-117931619D01*
X153476629Y-117925500D01*
X153564767Y-117925500D01*
X153564769Y-117925500D01*
X153689066Y-117889004D01*
X153771475Y-117836042D01*
X153830650Y-117820488D01*
X153878521Y-117836043D01*
X153959345Y-117887985D01*
X153960931Y-117889004D01*
X154085228Y-117925500D01*
X154085230Y-117925500D01*
X154214770Y-117925500D01*
X154214772Y-117925500D01*
X154339069Y-117889004D01*
X154428795Y-117831341D01*
X154454006Y-117815139D01*
X154454754Y-117816303D01*
X154504021Y-117795479D01*
X154563617Y-117809333D01*
G37*
%TD.AperFunction*%
%TD*%
M02*
