%TF.GenerationSoftware,KiCad,Pcbnew,8.0.3*%
%TF.CreationDate,2025-09-30T21:19:19-04:00*%
%TF.ProjectId,NewHallSensorsLimitSwitches,4e657748-616c-46c5-9365-6e736f72734c,rev?*%
%TF.SameCoordinates,Original*%
%TF.FileFunction,Legend,Bot*%
%TF.FilePolarity,Positive*%
%FSLAX46Y46*%
G04 Gerber Fmt 4.6, Leading zero omitted, Abs format (unit mm)*
G04 Created by KiCad (PCBNEW 8.0.3) date 2025-09-30 21:19:19*
%MOMM*%
%LPD*%
G01*
G04 APERTURE LIST*
%ADD10C,0.125000*%
%ADD11C,0.000000*%
G04 APERTURE END LIST*
D10*
X174729763Y-124427904D02*
X174615477Y-124451714D01*
X174615477Y-124451714D02*
X174577382Y-124475523D01*
X174577382Y-124475523D02*
X174539286Y-124523142D01*
X174539286Y-124523142D02*
X174539286Y-124594571D01*
X174539286Y-124594571D02*
X174577382Y-124642190D01*
X174577382Y-124642190D02*
X174615477Y-124666000D01*
X174615477Y-124666000D02*
X174691667Y-124689809D01*
X174691667Y-124689809D02*
X174996429Y-124689809D01*
X174996429Y-124689809D02*
X174996429Y-124189809D01*
X174996429Y-124189809D02*
X174729763Y-124189809D01*
X174729763Y-124189809D02*
X174653572Y-124213619D01*
X174653572Y-124213619D02*
X174615477Y-124237428D01*
X174615477Y-124237428D02*
X174577382Y-124285047D01*
X174577382Y-124285047D02*
X174577382Y-124332666D01*
X174577382Y-124332666D02*
X174615477Y-124380285D01*
X174615477Y-124380285D02*
X174653572Y-124404095D01*
X174653572Y-124404095D02*
X174729763Y-124427904D01*
X174729763Y-124427904D02*
X174996429Y-124427904D01*
X174272620Y-124356476D02*
X174082144Y-124689809D01*
X173891667Y-124356476D02*
X174082144Y-124689809D01*
X174082144Y-124689809D02*
X174158334Y-124808857D01*
X174158334Y-124808857D02*
X174196429Y-124832666D01*
X174196429Y-124832666D02*
X174272620Y-124856476D01*
X173586905Y-124642190D02*
X173548810Y-124666000D01*
X173548810Y-124666000D02*
X173586905Y-124689809D01*
X173586905Y-124689809D02*
X173625001Y-124666000D01*
X173625001Y-124666000D02*
X173586905Y-124642190D01*
X173586905Y-124642190D02*
X173586905Y-124689809D01*
X173586905Y-124380285D02*
X173548810Y-124404095D01*
X173548810Y-124404095D02*
X173586905Y-124427904D01*
X173586905Y-124427904D02*
X173625001Y-124404095D01*
X173625001Y-124404095D02*
X173586905Y-124380285D01*
X173586905Y-124380285D02*
X173586905Y-124427904D01*
X172634525Y-124546952D02*
X172253572Y-124546952D01*
X172710715Y-124689809D02*
X172444048Y-124189809D01*
X172444048Y-124189809D02*
X172177382Y-124689809D01*
X171910715Y-124356476D02*
X171910715Y-124689809D01*
X171910715Y-124404095D02*
X171872620Y-124380285D01*
X171872620Y-124380285D02*
X171796430Y-124356476D01*
X171796430Y-124356476D02*
X171682144Y-124356476D01*
X171682144Y-124356476D02*
X171605953Y-124380285D01*
X171605953Y-124380285D02*
X171567858Y-124427904D01*
X171567858Y-124427904D02*
X171567858Y-124689809D01*
X171301191Y-124356476D02*
X170996429Y-124356476D01*
X171186905Y-124189809D02*
X171186905Y-124618380D01*
X171186905Y-124618380D02*
X171148810Y-124666000D01*
X171148810Y-124666000D02*
X171072620Y-124689809D01*
X171072620Y-124689809D02*
X170996429Y-124689809D01*
X170729762Y-124689809D02*
X170729762Y-124189809D01*
X170386905Y-124689809D02*
X170386905Y-124427904D01*
X170386905Y-124427904D02*
X170425000Y-124380285D01*
X170425000Y-124380285D02*
X170501191Y-124356476D01*
X170501191Y-124356476D02*
X170615477Y-124356476D01*
X170615477Y-124356476D02*
X170691667Y-124380285D01*
X170691667Y-124380285D02*
X170729762Y-124404095D01*
X169891667Y-124689809D02*
X169967857Y-124666000D01*
X169967857Y-124666000D02*
X170005952Y-124642190D01*
X170005952Y-124642190D02*
X170044048Y-124594571D01*
X170044048Y-124594571D02*
X170044048Y-124451714D01*
X170044048Y-124451714D02*
X170005952Y-124404095D01*
X170005952Y-124404095D02*
X169967857Y-124380285D01*
X169967857Y-124380285D02*
X169891667Y-124356476D01*
X169891667Y-124356476D02*
X169777381Y-124356476D01*
X169777381Y-124356476D02*
X169701190Y-124380285D01*
X169701190Y-124380285D02*
X169663095Y-124404095D01*
X169663095Y-124404095D02*
X169625000Y-124451714D01*
X169625000Y-124451714D02*
X169625000Y-124594571D01*
X169625000Y-124594571D02*
X169663095Y-124642190D01*
X169663095Y-124642190D02*
X169701190Y-124666000D01*
X169701190Y-124666000D02*
X169777381Y-124689809D01*
X169777381Y-124689809D02*
X169891667Y-124689809D01*
X169282142Y-124356476D02*
X169282142Y-124689809D01*
X169282142Y-124404095D02*
X169244047Y-124380285D01*
X169244047Y-124380285D02*
X169167857Y-124356476D01*
X169167857Y-124356476D02*
X169053571Y-124356476D01*
X169053571Y-124356476D02*
X168977380Y-124380285D01*
X168977380Y-124380285D02*
X168939285Y-124427904D01*
X168939285Y-124427904D02*
X168939285Y-124689809D01*
X168634523Y-124356476D02*
X168444047Y-124689809D01*
X168253570Y-124356476D02*
X168444047Y-124689809D01*
X168444047Y-124689809D02*
X168520237Y-124808857D01*
X168520237Y-124808857D02*
X168558332Y-124832666D01*
X168558332Y-124832666D02*
X168634523Y-124856476D01*
X166882141Y-124642190D02*
X166920237Y-124666000D01*
X166920237Y-124666000D02*
X167034522Y-124689809D01*
X167034522Y-124689809D02*
X167110713Y-124689809D01*
X167110713Y-124689809D02*
X167224999Y-124666000D01*
X167224999Y-124666000D02*
X167301189Y-124618380D01*
X167301189Y-124618380D02*
X167339284Y-124570761D01*
X167339284Y-124570761D02*
X167377380Y-124475523D01*
X167377380Y-124475523D02*
X167377380Y-124404095D01*
X167377380Y-124404095D02*
X167339284Y-124308857D01*
X167339284Y-124308857D02*
X167301189Y-124261238D01*
X167301189Y-124261238D02*
X167224999Y-124213619D01*
X167224999Y-124213619D02*
X167110713Y-124189809D01*
X167110713Y-124189809D02*
X167034522Y-124189809D01*
X167034522Y-124189809D02*
X166920237Y-124213619D01*
X166920237Y-124213619D02*
X166882141Y-124237428D01*
X166196427Y-124689809D02*
X166196427Y-124427904D01*
X166196427Y-124427904D02*
X166234522Y-124380285D01*
X166234522Y-124380285D02*
X166310713Y-124356476D01*
X166310713Y-124356476D02*
X166463094Y-124356476D01*
X166463094Y-124356476D02*
X166539284Y-124380285D01*
X166196427Y-124666000D02*
X166272618Y-124689809D01*
X166272618Y-124689809D02*
X166463094Y-124689809D01*
X166463094Y-124689809D02*
X166539284Y-124666000D01*
X166539284Y-124666000D02*
X166577380Y-124618380D01*
X166577380Y-124618380D02*
X166577380Y-124570761D01*
X166577380Y-124570761D02*
X166539284Y-124523142D01*
X166539284Y-124523142D02*
X166463094Y-124499333D01*
X166463094Y-124499333D02*
X166272618Y-124499333D01*
X166272618Y-124499333D02*
X166196427Y-124475523D01*
X165853570Y-124666000D02*
X165777379Y-124689809D01*
X165777379Y-124689809D02*
X165624998Y-124689809D01*
X165624998Y-124689809D02*
X165548808Y-124666000D01*
X165548808Y-124666000D02*
X165510712Y-124618380D01*
X165510712Y-124618380D02*
X165510712Y-124594571D01*
X165510712Y-124594571D02*
X165548808Y-124546952D01*
X165548808Y-124546952D02*
X165624998Y-124523142D01*
X165624998Y-124523142D02*
X165739284Y-124523142D01*
X165739284Y-124523142D02*
X165815474Y-124499333D01*
X165815474Y-124499333D02*
X165853570Y-124451714D01*
X165853570Y-124451714D02*
X165853570Y-124427904D01*
X165853570Y-124427904D02*
X165815474Y-124380285D01*
X165815474Y-124380285D02*
X165739284Y-124356476D01*
X165739284Y-124356476D02*
X165624998Y-124356476D01*
X165624998Y-124356476D02*
X165548808Y-124380285D01*
X164863093Y-124666000D02*
X164939284Y-124689809D01*
X164939284Y-124689809D02*
X165091665Y-124689809D01*
X165091665Y-124689809D02*
X165167855Y-124666000D01*
X165167855Y-124666000D02*
X165205951Y-124618380D01*
X165205951Y-124618380D02*
X165205951Y-124427904D01*
X165205951Y-124427904D02*
X165167855Y-124380285D01*
X165167855Y-124380285D02*
X165091665Y-124356476D01*
X165091665Y-124356476D02*
X164939284Y-124356476D01*
X164939284Y-124356476D02*
X164863093Y-124380285D01*
X164863093Y-124380285D02*
X164824998Y-124427904D01*
X164824998Y-124427904D02*
X164824998Y-124475523D01*
X164824998Y-124475523D02*
X165205951Y-124523142D01*
X164558332Y-124356476D02*
X164367856Y-124689809D01*
X164177379Y-124356476D02*
X164367856Y-124689809D01*
X164367856Y-124689809D02*
X164444046Y-124808857D01*
X164444046Y-124808857D02*
X164482141Y-124832666D01*
X164482141Y-124832666D02*
X164558332Y-124856476D01*
X177684763Y-108702904D02*
X177570477Y-108726714D01*
X177570477Y-108726714D02*
X177532382Y-108750523D01*
X177532382Y-108750523D02*
X177494286Y-108798142D01*
X177494286Y-108798142D02*
X177494286Y-108869571D01*
X177494286Y-108869571D02*
X177532382Y-108917190D01*
X177532382Y-108917190D02*
X177570477Y-108941000D01*
X177570477Y-108941000D02*
X177646667Y-108964809D01*
X177646667Y-108964809D02*
X177951429Y-108964809D01*
X177951429Y-108964809D02*
X177951429Y-108464809D01*
X177951429Y-108464809D02*
X177684763Y-108464809D01*
X177684763Y-108464809D02*
X177608572Y-108488619D01*
X177608572Y-108488619D02*
X177570477Y-108512428D01*
X177570477Y-108512428D02*
X177532382Y-108560047D01*
X177532382Y-108560047D02*
X177532382Y-108607666D01*
X177532382Y-108607666D02*
X177570477Y-108655285D01*
X177570477Y-108655285D02*
X177608572Y-108679095D01*
X177608572Y-108679095D02*
X177684763Y-108702904D01*
X177684763Y-108702904D02*
X177951429Y-108702904D01*
X177227620Y-108631476D02*
X177037144Y-108964809D01*
X176846667Y-108631476D02*
X177037144Y-108964809D01*
X177037144Y-108964809D02*
X177113334Y-109083857D01*
X177113334Y-109083857D02*
X177151429Y-109107666D01*
X177151429Y-109107666D02*
X177227620Y-109131476D01*
X176541905Y-108917190D02*
X176503810Y-108941000D01*
X176503810Y-108941000D02*
X176541905Y-108964809D01*
X176541905Y-108964809D02*
X176580001Y-108941000D01*
X176580001Y-108941000D02*
X176541905Y-108917190D01*
X176541905Y-108917190D02*
X176541905Y-108964809D01*
X176541905Y-108655285D02*
X176503810Y-108679095D01*
X176503810Y-108679095D02*
X176541905Y-108702904D01*
X176541905Y-108702904D02*
X176580001Y-108679095D01*
X176580001Y-108679095D02*
X176541905Y-108655285D01*
X176541905Y-108655285D02*
X176541905Y-108702904D01*
X175589525Y-108821952D02*
X175208572Y-108821952D01*
X175665715Y-108964809D02*
X175399048Y-108464809D01*
X175399048Y-108464809D02*
X175132382Y-108964809D01*
X174865715Y-108631476D02*
X174865715Y-108964809D01*
X174865715Y-108679095D02*
X174827620Y-108655285D01*
X174827620Y-108655285D02*
X174751430Y-108631476D01*
X174751430Y-108631476D02*
X174637144Y-108631476D01*
X174637144Y-108631476D02*
X174560953Y-108655285D01*
X174560953Y-108655285D02*
X174522858Y-108702904D01*
X174522858Y-108702904D02*
X174522858Y-108964809D01*
X174256191Y-108631476D02*
X173951429Y-108631476D01*
X174141905Y-108464809D02*
X174141905Y-108893380D01*
X174141905Y-108893380D02*
X174103810Y-108941000D01*
X174103810Y-108941000D02*
X174027620Y-108964809D01*
X174027620Y-108964809D02*
X173951429Y-108964809D01*
X173684762Y-108964809D02*
X173684762Y-108464809D01*
X173341905Y-108964809D02*
X173341905Y-108702904D01*
X173341905Y-108702904D02*
X173380000Y-108655285D01*
X173380000Y-108655285D02*
X173456191Y-108631476D01*
X173456191Y-108631476D02*
X173570477Y-108631476D01*
X173570477Y-108631476D02*
X173646667Y-108655285D01*
X173646667Y-108655285D02*
X173684762Y-108679095D01*
X172846667Y-108964809D02*
X172922857Y-108941000D01*
X172922857Y-108941000D02*
X172960952Y-108917190D01*
X172960952Y-108917190D02*
X172999048Y-108869571D01*
X172999048Y-108869571D02*
X172999048Y-108726714D01*
X172999048Y-108726714D02*
X172960952Y-108679095D01*
X172960952Y-108679095D02*
X172922857Y-108655285D01*
X172922857Y-108655285D02*
X172846667Y-108631476D01*
X172846667Y-108631476D02*
X172732381Y-108631476D01*
X172732381Y-108631476D02*
X172656190Y-108655285D01*
X172656190Y-108655285D02*
X172618095Y-108679095D01*
X172618095Y-108679095D02*
X172580000Y-108726714D01*
X172580000Y-108726714D02*
X172580000Y-108869571D01*
X172580000Y-108869571D02*
X172618095Y-108917190D01*
X172618095Y-108917190D02*
X172656190Y-108941000D01*
X172656190Y-108941000D02*
X172732381Y-108964809D01*
X172732381Y-108964809D02*
X172846667Y-108964809D01*
X172237142Y-108631476D02*
X172237142Y-108964809D01*
X172237142Y-108679095D02*
X172199047Y-108655285D01*
X172199047Y-108655285D02*
X172122857Y-108631476D01*
X172122857Y-108631476D02*
X172008571Y-108631476D01*
X172008571Y-108631476D02*
X171932380Y-108655285D01*
X171932380Y-108655285D02*
X171894285Y-108702904D01*
X171894285Y-108702904D02*
X171894285Y-108964809D01*
X171589523Y-108631476D02*
X171399047Y-108964809D01*
X171208570Y-108631476D02*
X171399047Y-108964809D01*
X171399047Y-108964809D02*
X171475237Y-109083857D01*
X171475237Y-109083857D02*
X171513332Y-109107666D01*
X171513332Y-109107666D02*
X171589523Y-109131476D01*
X169837141Y-108917190D02*
X169875237Y-108941000D01*
X169875237Y-108941000D02*
X169989522Y-108964809D01*
X169989522Y-108964809D02*
X170065713Y-108964809D01*
X170065713Y-108964809D02*
X170179999Y-108941000D01*
X170179999Y-108941000D02*
X170256189Y-108893380D01*
X170256189Y-108893380D02*
X170294284Y-108845761D01*
X170294284Y-108845761D02*
X170332380Y-108750523D01*
X170332380Y-108750523D02*
X170332380Y-108679095D01*
X170332380Y-108679095D02*
X170294284Y-108583857D01*
X170294284Y-108583857D02*
X170256189Y-108536238D01*
X170256189Y-108536238D02*
X170179999Y-108488619D01*
X170179999Y-108488619D02*
X170065713Y-108464809D01*
X170065713Y-108464809D02*
X169989522Y-108464809D01*
X169989522Y-108464809D02*
X169875237Y-108488619D01*
X169875237Y-108488619D02*
X169837141Y-108512428D01*
X169151427Y-108964809D02*
X169151427Y-108702904D01*
X169151427Y-108702904D02*
X169189522Y-108655285D01*
X169189522Y-108655285D02*
X169265713Y-108631476D01*
X169265713Y-108631476D02*
X169418094Y-108631476D01*
X169418094Y-108631476D02*
X169494284Y-108655285D01*
X169151427Y-108941000D02*
X169227618Y-108964809D01*
X169227618Y-108964809D02*
X169418094Y-108964809D01*
X169418094Y-108964809D02*
X169494284Y-108941000D01*
X169494284Y-108941000D02*
X169532380Y-108893380D01*
X169532380Y-108893380D02*
X169532380Y-108845761D01*
X169532380Y-108845761D02*
X169494284Y-108798142D01*
X169494284Y-108798142D02*
X169418094Y-108774333D01*
X169418094Y-108774333D02*
X169227618Y-108774333D01*
X169227618Y-108774333D02*
X169151427Y-108750523D01*
X168808570Y-108941000D02*
X168732379Y-108964809D01*
X168732379Y-108964809D02*
X168579998Y-108964809D01*
X168579998Y-108964809D02*
X168503808Y-108941000D01*
X168503808Y-108941000D02*
X168465712Y-108893380D01*
X168465712Y-108893380D02*
X168465712Y-108869571D01*
X168465712Y-108869571D02*
X168503808Y-108821952D01*
X168503808Y-108821952D02*
X168579998Y-108798142D01*
X168579998Y-108798142D02*
X168694284Y-108798142D01*
X168694284Y-108798142D02*
X168770474Y-108774333D01*
X168770474Y-108774333D02*
X168808570Y-108726714D01*
X168808570Y-108726714D02*
X168808570Y-108702904D01*
X168808570Y-108702904D02*
X168770474Y-108655285D01*
X168770474Y-108655285D02*
X168694284Y-108631476D01*
X168694284Y-108631476D02*
X168579998Y-108631476D01*
X168579998Y-108631476D02*
X168503808Y-108655285D01*
X167818093Y-108941000D02*
X167894284Y-108964809D01*
X167894284Y-108964809D02*
X168046665Y-108964809D01*
X168046665Y-108964809D02*
X168122855Y-108941000D01*
X168122855Y-108941000D02*
X168160951Y-108893380D01*
X168160951Y-108893380D02*
X168160951Y-108702904D01*
X168160951Y-108702904D02*
X168122855Y-108655285D01*
X168122855Y-108655285D02*
X168046665Y-108631476D01*
X168046665Y-108631476D02*
X167894284Y-108631476D01*
X167894284Y-108631476D02*
X167818093Y-108655285D01*
X167818093Y-108655285D02*
X167779998Y-108702904D01*
X167779998Y-108702904D02*
X167779998Y-108750523D01*
X167779998Y-108750523D02*
X168160951Y-108798142D01*
X167513332Y-108631476D02*
X167322856Y-108964809D01*
X167132379Y-108631476D02*
X167322856Y-108964809D01*
X167322856Y-108964809D02*
X167399046Y-109083857D01*
X167399046Y-109083857D02*
X167437141Y-109107666D01*
X167437141Y-109107666D02*
X167513332Y-109131476D01*
D11*
%TO.C,G\u002A\u002A\u002A*%
G36*
X164088846Y-125276381D02*
G01*
X164351052Y-125276421D01*
X164589587Y-125276534D01*
X164805736Y-125276760D01*
X165000780Y-125277138D01*
X165176002Y-125277705D01*
X165332686Y-125278501D01*
X165472115Y-125279564D01*
X165595571Y-125280933D01*
X165704338Y-125282647D01*
X165799699Y-125284744D01*
X165882936Y-125287263D01*
X165955332Y-125290243D01*
X166018171Y-125293722D01*
X166072735Y-125297739D01*
X166120308Y-125302333D01*
X166162173Y-125307543D01*
X166199611Y-125313406D01*
X166233907Y-125319962D01*
X166266344Y-125327250D01*
X166298204Y-125335308D01*
X166330770Y-125344175D01*
X166365326Y-125353889D01*
X166388892Y-125360655D01*
X166548030Y-125413587D01*
X166695529Y-125477033D01*
X166839777Y-125554994D01*
X166989162Y-125651471D01*
X167143727Y-125767842D01*
X167287146Y-125899064D01*
X167411120Y-126041026D01*
X167519082Y-126197689D01*
X167614465Y-126373015D01*
X167670941Y-126502077D01*
X167727290Y-126672284D01*
X167766899Y-126852604D01*
X167790597Y-127047021D01*
X167799215Y-127259520D01*
X167798488Y-127339035D01*
X167780980Y-127575955D01*
X167740473Y-127800463D01*
X167677035Y-128012396D01*
X167590731Y-128211591D01*
X167481630Y-128397884D01*
X167349798Y-128571113D01*
X167195303Y-128731114D01*
X167152619Y-128769289D01*
X166983134Y-128899199D01*
X166796787Y-129011095D01*
X166596368Y-129103812D01*
X166384668Y-129176186D01*
X166164477Y-129227055D01*
X165938586Y-129255254D01*
X165937355Y-129255340D01*
X165903248Y-129256761D01*
X165844895Y-129258158D01*
X165764200Y-129259513D01*
X165663069Y-129260814D01*
X165543407Y-129262045D01*
X165407121Y-129263192D01*
X165256115Y-129264240D01*
X165092295Y-129265175D01*
X164917568Y-129265981D01*
X164733838Y-129266644D01*
X164543010Y-129267150D01*
X164346992Y-129267484D01*
X164180056Y-129267760D01*
X163981335Y-129268284D01*
X163793240Y-129268996D01*
X163617336Y-129269881D01*
X163455187Y-129270924D01*
X163308357Y-129272111D01*
X163178409Y-129273428D01*
X163066908Y-129274860D01*
X162975417Y-129276393D01*
X162905502Y-129278012D01*
X162858725Y-129279703D01*
X162836650Y-129281451D01*
X162737659Y-129307408D01*
X162621707Y-129359825D01*
X162521341Y-129433310D01*
X162436214Y-129528132D01*
X162365975Y-129644561D01*
X162336267Y-129712870D01*
X162297481Y-129849536D01*
X162281263Y-129992372D01*
X162287600Y-130136644D01*
X162316482Y-130277620D01*
X162367895Y-130410567D01*
X162382014Y-130437251D01*
X162439236Y-130522220D01*
X162509986Y-130601777D01*
X162587744Y-130669204D01*
X162665992Y-130717784D01*
X162667454Y-130718493D01*
X162685324Y-130727338D01*
X162701723Y-130735445D01*
X162717806Y-130742845D01*
X162734730Y-130749570D01*
X162753650Y-130755654D01*
X162775721Y-130761128D01*
X162802100Y-130766024D01*
X162833943Y-130770375D01*
X162872404Y-130774213D01*
X162918640Y-130777571D01*
X162973807Y-130780479D01*
X163039060Y-130782972D01*
X163115555Y-130785080D01*
X163204448Y-130786837D01*
X163306895Y-130788275D01*
X163424051Y-130789425D01*
X163557072Y-130790320D01*
X163707113Y-130790993D01*
X163875332Y-130791475D01*
X164062882Y-130791799D01*
X164270921Y-130791998D01*
X164500603Y-130792102D01*
X164753085Y-130792146D01*
X165029522Y-130792160D01*
X165331070Y-130792177D01*
X167744333Y-130792405D01*
X167744333Y-131403108D01*
X167744333Y-132013812D01*
X165409871Y-132013676D01*
X165313821Y-132013664D01*
X164988819Y-132013517D01*
X164686027Y-132013210D01*
X164405781Y-132012745D01*
X164148421Y-132012124D01*
X163914285Y-132011347D01*
X163703710Y-132010418D01*
X163517034Y-132009338D01*
X163354596Y-132008110D01*
X163216734Y-132006734D01*
X163103786Y-132005213D01*
X163016091Y-132003548D01*
X162953985Y-132001743D01*
X162917808Y-131999797D01*
X162744811Y-131978703D01*
X162517216Y-131931553D01*
X162301257Y-131863943D01*
X162098691Y-131776660D01*
X161911273Y-131670490D01*
X161740758Y-131546220D01*
X161588903Y-131404635D01*
X161547375Y-131359417D01*
X161408956Y-131185397D01*
X161293519Y-131000239D01*
X161201728Y-130805293D01*
X161134245Y-130601909D01*
X161091731Y-130391436D01*
X161087442Y-130357640D01*
X161077129Y-130229987D01*
X161073273Y-130088920D01*
X161075634Y-129942267D01*
X161083972Y-129797858D01*
X161098047Y-129663525D01*
X161117619Y-129547097D01*
X161125620Y-129510872D01*
X161182834Y-129310294D01*
X161259560Y-129124377D01*
X161357455Y-128950097D01*
X161478177Y-128784430D01*
X161623382Y-128624353D01*
X161787892Y-128477373D01*
X161972730Y-128346788D01*
X162174008Y-128236082D01*
X162390806Y-128145760D01*
X162622206Y-128076327D01*
X162760207Y-128042276D01*
X164382182Y-128034493D01*
X164383003Y-128034489D01*
X164626907Y-128033349D01*
X164846000Y-128032345D01*
X165041732Y-128031402D01*
X165215552Y-128030445D01*
X165368911Y-128029400D01*
X165503260Y-128028193D01*
X165620047Y-128026748D01*
X165720723Y-128024991D01*
X165806737Y-128022849D01*
X165879541Y-128020245D01*
X165940584Y-128017107D01*
X165991316Y-128013359D01*
X166033187Y-128008926D01*
X166067647Y-128003735D01*
X166096147Y-127997711D01*
X166120135Y-127990779D01*
X166141063Y-127982864D01*
X166160380Y-127973893D01*
X166179536Y-127963791D01*
X166199981Y-127952483D01*
X166223166Y-127939894D01*
X166249659Y-127924979D01*
X166346035Y-127853181D01*
X166426090Y-127764785D01*
X166489816Y-127662884D01*
X166537204Y-127550569D01*
X166568244Y-127430930D01*
X166582929Y-127307059D01*
X166581250Y-127182047D01*
X166563197Y-127058985D01*
X166528762Y-126940965D01*
X166477937Y-126831077D01*
X166410711Y-126732412D01*
X166327078Y-126648063D01*
X166227027Y-126581119D01*
X166218373Y-126576472D01*
X166198920Y-126565556D01*
X166181631Y-126555624D01*
X166165271Y-126546627D01*
X166148604Y-126538516D01*
X166130392Y-126531242D01*
X166109401Y-126524759D01*
X166084394Y-126519016D01*
X166054134Y-126513965D01*
X166017386Y-126509558D01*
X165972914Y-126505747D01*
X165919481Y-126502482D01*
X165855851Y-126499716D01*
X165780788Y-126497399D01*
X165693057Y-126495484D01*
X165591420Y-126493922D01*
X165474642Y-126492664D01*
X165341486Y-126491662D01*
X165190717Y-126490868D01*
X165021099Y-126490232D01*
X164831394Y-126489706D01*
X164620368Y-126489243D01*
X164386783Y-126488793D01*
X164129405Y-126488307D01*
X163846996Y-126487738D01*
X161689834Y-126483158D01*
X161689834Y-125879767D01*
X161689834Y-125276376D01*
X163794543Y-125276376D01*
X163801687Y-125276376D01*
X164088846Y-125276381D01*
G37*
G36*
X172821123Y-125276813D02*
G01*
X173042060Y-125276992D01*
X173259394Y-125277272D01*
X173471505Y-125277652D01*
X173676774Y-125278132D01*
X173873583Y-125278713D01*
X174060314Y-125279393D01*
X174235346Y-125280172D01*
X174397062Y-125281051D01*
X174543843Y-125282030D01*
X174674070Y-125283107D01*
X174786124Y-125284283D01*
X174878387Y-125285558D01*
X174949239Y-125286931D01*
X174997062Y-125288402D01*
X175020238Y-125289971D01*
X175095317Y-125307249D01*
X175204483Y-125353527D01*
X175302767Y-125421485D01*
X175386907Y-125508692D01*
X175453640Y-125612721D01*
X175499607Y-125702833D01*
X175503023Y-128858322D01*
X175506439Y-132013812D01*
X174902170Y-132013812D01*
X174297901Y-132013812D01*
X174297901Y-129255797D01*
X174297901Y-126497783D01*
X174202684Y-126497658D01*
X174199597Y-126497655D01*
X174170061Y-126497643D01*
X174116117Y-126497635D01*
X174039285Y-126497630D01*
X173941089Y-126497629D01*
X173823048Y-126497630D01*
X173686685Y-126497636D01*
X173533521Y-126497644D01*
X173365077Y-126497655D01*
X173182876Y-126497670D01*
X172988439Y-126497687D01*
X172783287Y-126497707D01*
X172568941Y-126497729D01*
X172346924Y-126497754D01*
X172118756Y-126497782D01*
X171866165Y-126497825D01*
X171621932Y-126497902D01*
X171401539Y-126498024D01*
X171203737Y-126498206D01*
X171027275Y-126498462D01*
X170870903Y-126498806D01*
X170733371Y-126499254D01*
X170613429Y-126499818D01*
X170509825Y-126500513D01*
X170421311Y-126501354D01*
X170346636Y-126502354D01*
X170284549Y-126503528D01*
X170233800Y-126504890D01*
X170193140Y-126506455D01*
X170161318Y-126508236D01*
X170137084Y-126510248D01*
X170119187Y-126512505D01*
X170106377Y-126515022D01*
X170097404Y-126517812D01*
X170091019Y-126520890D01*
X170056171Y-126547174D01*
X170024351Y-126580813D01*
X170019679Y-126587356D01*
X170013601Y-126598084D01*
X170008661Y-126611992D01*
X170004714Y-126631645D01*
X170001619Y-126659608D01*
X169999233Y-126698447D01*
X169997414Y-126750725D01*
X169996018Y-126819010D01*
X169994904Y-126905865D01*
X169993927Y-127013856D01*
X169992947Y-127145549D01*
X169992336Y-127243514D01*
X169991999Y-127376739D01*
X169992631Y-127488480D01*
X169994482Y-127581649D01*
X169997802Y-127659158D01*
X170002838Y-127723919D01*
X170009841Y-127778843D01*
X170019060Y-127826843D01*
X170030743Y-127870831D01*
X170045140Y-127913718D01*
X170062500Y-127958416D01*
X170090758Y-128018829D01*
X170146040Y-128112099D01*
X170211902Y-128202530D01*
X170281488Y-128280053D01*
X170296165Y-128294001D01*
X170398558Y-128374299D01*
X170519305Y-128445046D01*
X170652277Y-128503482D01*
X170791345Y-128546845D01*
X170930381Y-128572374D01*
X170948823Y-128573838D01*
X170998424Y-128575975D01*
X171072493Y-128577932D01*
X171169935Y-128579699D01*
X171289657Y-128581264D01*
X171430562Y-128582619D01*
X171591556Y-128583754D01*
X171771544Y-128584657D01*
X171969432Y-128585321D01*
X172184124Y-128585734D01*
X172414525Y-128585886D01*
X173781667Y-128585994D01*
X173790768Y-128943879D01*
X173792253Y-129006554D01*
X173794564Y-129124145D01*
X173796425Y-129245164D01*
X173797742Y-129362190D01*
X173798423Y-129467803D01*
X173798375Y-129554582D01*
X173796881Y-129807400D01*
X173357154Y-129807400D01*
X172917426Y-129807400D01*
X172783543Y-129926644D01*
X172770940Y-129937803D01*
X172729587Y-129974042D01*
X172671274Y-130024814D01*
X172598048Y-130088350D01*
X172511957Y-130162880D01*
X172415047Y-130246634D01*
X172309365Y-130337843D01*
X172196957Y-130434738D01*
X172079872Y-130535547D01*
X171960155Y-130638503D01*
X171908747Y-130682696D01*
X171789107Y-130785621D01*
X171672540Y-130886001D01*
X171561152Y-130982015D01*
X171457051Y-131071844D01*
X171362345Y-131153668D01*
X171279141Y-131225665D01*
X171209547Y-131286017D01*
X171155670Y-131332901D01*
X171119617Y-131364499D01*
X171089805Y-131390801D01*
X171026807Y-131446286D01*
X170951958Y-131512120D01*
X170870219Y-131583943D01*
X170786551Y-131657394D01*
X170705915Y-131728114D01*
X170640206Y-131785780D01*
X170573216Y-131844727D01*
X170514154Y-131896858D01*
X170465982Y-131939554D01*
X170431661Y-131970196D01*
X170414152Y-131986166D01*
X170385057Y-132013987D01*
X169450035Y-132010616D01*
X168515013Y-132007245D01*
X168670385Y-131869344D01*
X168681916Y-131859110D01*
X168750592Y-131798141D01*
X168823799Y-131733134D01*
X168893477Y-131671245D01*
X168951565Y-131619632D01*
X168975809Y-131598284D01*
X169023032Y-131557118D01*
X169086225Y-131502323D01*
X169163141Y-131435836D01*
X169251534Y-131359595D01*
X169349157Y-131275536D01*
X169453763Y-131185597D01*
X169563108Y-131091714D01*
X169674943Y-130995826D01*
X169723658Y-130954066D01*
X169892374Y-130809097D01*
X170053192Y-130670389D01*
X170205101Y-130538837D01*
X170347089Y-130415334D01*
X170478145Y-130300775D01*
X170597259Y-130196054D01*
X170703419Y-130102065D01*
X170795614Y-130019703D01*
X170872834Y-129949860D01*
X170934067Y-129893433D01*
X170978302Y-129851314D01*
X171004528Y-129824398D01*
X171011734Y-129813579D01*
X171011694Y-129813547D01*
X170997425Y-129811017D01*
X170962311Y-129806796D01*
X170911561Y-129801464D01*
X170850383Y-129795601D01*
X170623812Y-129765329D01*
X170391092Y-129711922D01*
X170168412Y-129636154D01*
X169952480Y-129537078D01*
X169928240Y-129524301D01*
X169723099Y-129400811D01*
X169535482Y-129259500D01*
X169366441Y-129101708D01*
X169217024Y-128928775D01*
X169088282Y-128742042D01*
X168981265Y-128542849D01*
X168897022Y-128332537D01*
X168836604Y-128112447D01*
X168834561Y-128102851D01*
X168819696Y-128027358D01*
X168807446Y-127952384D01*
X168797602Y-127874582D01*
X168789957Y-127790608D01*
X168784303Y-127697113D01*
X168780430Y-127590753D01*
X168778132Y-127468181D01*
X168777200Y-127326052D01*
X168777426Y-127161019D01*
X168777828Y-127081375D01*
X168779061Y-126941530D01*
X168781050Y-126823218D01*
X168784013Y-126723296D01*
X168788165Y-126638619D01*
X168793724Y-126566042D01*
X168800905Y-126502421D01*
X168809924Y-126444611D01*
X168820999Y-126389468D01*
X168834346Y-126333847D01*
X168849159Y-126280805D01*
X168911922Y-126114857D01*
X168996039Y-125957313D01*
X169099074Y-125810675D01*
X169218595Y-125677444D01*
X169352167Y-125560119D01*
X169497355Y-125461202D01*
X169651725Y-125383194D01*
X169812844Y-125328596D01*
X169857210Y-125318911D01*
X169927861Y-125307028D01*
X170006235Y-125296683D01*
X170082079Y-125289370D01*
X170082386Y-125289347D01*
X170116917Y-125287786D01*
X170175364Y-125286329D01*
X170256107Y-125284976D01*
X170357527Y-125283726D01*
X170478006Y-125282580D01*
X170615926Y-125281537D01*
X170769667Y-125280597D01*
X170937611Y-125279759D01*
X171118138Y-125279024D01*
X171309630Y-125278392D01*
X171510469Y-125277861D01*
X171719035Y-125277433D01*
X171933711Y-125277106D01*
X172152876Y-125276881D01*
X172374912Y-125276757D01*
X172598201Y-125276735D01*
X172821123Y-125276813D01*
G37*
G36*
X159944425Y-125276575D02*
G01*
X160023806Y-125276644D01*
X160181286Y-125276891D01*
X160315088Y-125277306D01*
X160426994Y-125277930D01*
X160518788Y-125278806D01*
X160592252Y-125279975D01*
X160649169Y-125281480D01*
X160691322Y-125283362D01*
X160720494Y-125285664D01*
X160738468Y-125288427D01*
X160747027Y-125291693D01*
X160747953Y-125295505D01*
X160741595Y-125304134D01*
X160719540Y-125331536D01*
X160683884Y-125374790D01*
X160636635Y-125431519D01*
X160579801Y-125499345D01*
X160515387Y-125575893D01*
X160445402Y-125658787D01*
X160371852Y-125745649D01*
X160296745Y-125834103D01*
X160222089Y-125921773D01*
X160149889Y-126006283D01*
X160082155Y-126085255D01*
X160020891Y-126156314D01*
X159984461Y-126198496D01*
X159922208Y-126270774D01*
X159850732Y-126353936D01*
X159772669Y-126444903D01*
X159690654Y-126540594D01*
X159607321Y-126637930D01*
X159525306Y-126733831D01*
X159447244Y-126825217D01*
X159375769Y-126909007D01*
X159313517Y-126982123D01*
X159263122Y-127041483D01*
X159227219Y-127084009D01*
X159224135Y-127087678D01*
X159192814Y-127124721D01*
X159147853Y-127177643D01*
X159092293Y-127242878D01*
X159029174Y-127316859D01*
X158961537Y-127396019D01*
X158892420Y-127476792D01*
X158884147Y-127486453D01*
X158814556Y-127567779D01*
X158746416Y-127647498D01*
X158682856Y-127721943D01*
X158627006Y-127787447D01*
X158581995Y-127840344D01*
X158550951Y-127876966D01*
X158541223Y-127888479D01*
X158505371Y-127930835D01*
X158456546Y-127988450D01*
X158397661Y-128057887D01*
X158331630Y-128135712D01*
X158261366Y-128218489D01*
X158189783Y-128302784D01*
X158149675Y-128350134D01*
X158085827Y-128426080D01*
X158028809Y-128494605D01*
X157980673Y-128553204D01*
X157943471Y-128599371D01*
X157919253Y-128630601D01*
X157910073Y-128644388D01*
X157909813Y-128646057D01*
X157910404Y-128650882D01*
X157913497Y-128658101D01*
X157920136Y-128668965D01*
X157931366Y-128684726D01*
X157948232Y-128706636D01*
X157971776Y-128735947D01*
X158003043Y-128773912D01*
X158043078Y-128821781D01*
X158092925Y-128880807D01*
X158153627Y-128952243D01*
X158226229Y-129037339D01*
X158311775Y-129137348D01*
X158411309Y-129253521D01*
X158525875Y-129387111D01*
X158656518Y-129539370D01*
X158863018Y-129780109D01*
X159251420Y-130233463D01*
X159638181Y-130685603D01*
X160015409Y-131127307D01*
X160024780Y-131138303D01*
X160074519Y-131196941D01*
X160136572Y-131270437D01*
X160207298Y-131354460D01*
X160283054Y-131444678D01*
X160360198Y-131536761D01*
X160435088Y-131626376D01*
X160473365Y-131672225D01*
X160538621Y-131750291D01*
X160598228Y-131821481D01*
X160649954Y-131883134D01*
X160691565Y-131932588D01*
X160720829Y-131967184D01*
X160735510Y-131984261D01*
X160761942Y-132013812D01*
X159934254Y-132013812D01*
X159106566Y-132013812D01*
X159004914Y-131892328D01*
X158950178Y-131826937D01*
X158903474Y-131771232D01*
X158861794Y-131721667D01*
X158821976Y-131674518D01*
X158780859Y-131626058D01*
X158735283Y-131572564D01*
X158682086Y-131510309D01*
X158618109Y-131435568D01*
X158540190Y-131344616D01*
X158480983Y-131275542D01*
X158366797Y-131142454D01*
X158263455Y-131022189D01*
X158171989Y-130915943D01*
X158093430Y-130824911D01*
X158028810Y-130750288D01*
X157979158Y-130693271D01*
X157945508Y-130655055D01*
X157944070Y-130653438D01*
X157919460Y-130625326D01*
X157881651Y-130581679D01*
X157834166Y-130526583D01*
X157780530Y-130464128D01*
X157724268Y-130398403D01*
X157685113Y-130352597D01*
X157587291Y-130238267D01*
X157499730Y-130136092D01*
X157423556Y-130047383D01*
X157359896Y-129973447D01*
X157309876Y-129915593D01*
X157274621Y-129875130D01*
X157255259Y-129853367D01*
X157249974Y-129847560D01*
X157225644Y-129820257D01*
X157191751Y-129781759D01*
X157153923Y-129738450D01*
X157137572Y-129720047D01*
X157103455Y-129684250D01*
X157076688Y-129659660D01*
X157061990Y-129650775D01*
X157058508Y-129651712D01*
X157051394Y-129656213D01*
X157040440Y-129665783D01*
X157024323Y-129681910D01*
X157001718Y-129706084D01*
X156971302Y-129739792D01*
X156931750Y-129784524D01*
X156881737Y-129841767D01*
X156819941Y-129913010D01*
X156745036Y-129999743D01*
X156655698Y-130103453D01*
X156550604Y-130225629D01*
X156344261Y-130465758D01*
X156149298Y-130692941D01*
X155967374Y-130905245D01*
X155799090Y-131101963D01*
X155645047Y-131282393D01*
X155505847Y-131445830D01*
X155382091Y-131591569D01*
X155274381Y-131718906D01*
X155183317Y-131827137D01*
X155026800Y-132013812D01*
X154206554Y-132013812D01*
X154040404Y-132013783D01*
X153897574Y-132013660D01*
X153777291Y-132013390D01*
X153677690Y-132012919D01*
X153596907Y-132012194D01*
X153533075Y-132011161D01*
X153484329Y-132009767D01*
X153448805Y-132007958D01*
X153424637Y-132005682D01*
X153409959Y-132002884D01*
X153402907Y-131999512D01*
X153401615Y-131995511D01*
X153404217Y-131990828D01*
X153426313Y-131962794D01*
X153462245Y-131918143D01*
X153506549Y-131864009D01*
X153560104Y-131799350D01*
X153623786Y-131723125D01*
X153698474Y-131634293D01*
X153785046Y-131531813D01*
X153884379Y-131414645D01*
X153997353Y-131281746D01*
X154124844Y-131132077D01*
X154267731Y-130964595D01*
X154426892Y-130778261D01*
X154516900Y-130672913D01*
X154620167Y-130551992D01*
X154722222Y-130432435D01*
X154820800Y-130316898D01*
X154913635Y-130208039D01*
X154998462Y-130108514D01*
X155073015Y-130020982D01*
X155135027Y-129948097D01*
X155182234Y-129892518D01*
X155230667Y-129835478D01*
X155310921Y-129741179D01*
X155398557Y-129638411D01*
X155490094Y-129531246D01*
X155582048Y-129423754D01*
X155670936Y-129320006D01*
X155753275Y-129224073D01*
X155825583Y-129140023D01*
X155884376Y-129071929D01*
X155965859Y-128977570D01*
X156044913Y-128885444D01*
X156112030Y-128806567D01*
X156166126Y-128742230D01*
X156206115Y-128693726D01*
X156230911Y-128662347D01*
X156239429Y-128649385D01*
X156238244Y-128645687D01*
X156225528Y-128625585D01*
X156203356Y-128596912D01*
X156201653Y-128594870D01*
X156183177Y-128573077D01*
X156149373Y-128533470D01*
X156101746Y-128477802D01*
X156041803Y-128407826D01*
X155971049Y-128325296D01*
X155890990Y-128231963D01*
X155803132Y-128129582D01*
X155708980Y-128019904D01*
X155610041Y-127904683D01*
X155507820Y-127785673D01*
X155403824Y-127664625D01*
X155299557Y-127543293D01*
X155196526Y-127423429D01*
X155096236Y-127306788D01*
X155000193Y-127195120D01*
X154909904Y-127090181D01*
X154826873Y-126993722D01*
X154752607Y-126907496D01*
X154688611Y-126833257D01*
X154636392Y-126772757D01*
X154611949Y-126744413D01*
X154570968Y-126696807D01*
X154518878Y-126636237D01*
X154458859Y-126566405D01*
X154394092Y-126491009D01*
X154327757Y-126413749D01*
X154210137Y-126276742D01*
X154057878Y-126099451D01*
X153920802Y-125939921D01*
X153799144Y-125798427D01*
X153693142Y-125675242D01*
X153603032Y-125570643D01*
X153529050Y-125484903D01*
X153471434Y-125418298D01*
X153430421Y-125371103D01*
X153406246Y-125343592D01*
X153392404Y-125327530D01*
X153371802Y-125300880D01*
X153363562Y-125285872D01*
X153363824Y-125285608D01*
X153380119Y-125283843D01*
X153420127Y-125282216D01*
X153481614Y-125280750D01*
X153562347Y-125279473D01*
X153660093Y-125278408D01*
X153772618Y-125277580D01*
X153897689Y-125277015D01*
X154033074Y-125276737D01*
X154176538Y-125276772D01*
X154989818Y-125277877D01*
X155061971Y-125352644D01*
X155063108Y-125353824D01*
X155081389Y-125373219D01*
X155104974Y-125398972D01*
X155134704Y-125432051D01*
X155171422Y-125473429D01*
X155215969Y-125524075D01*
X155269187Y-125584962D01*
X155331918Y-125657058D01*
X155405005Y-125741335D01*
X155489289Y-125838765D01*
X155585611Y-125950316D01*
X155694814Y-126076961D01*
X155817740Y-126219669D01*
X155955231Y-126379412D01*
X156108128Y-126557160D01*
X156277273Y-126753884D01*
X156308587Y-126790293D01*
X156367792Y-126859041D01*
X156422410Y-126922350D01*
X156469310Y-126976597D01*
X156505362Y-127018158D01*
X156527436Y-127043412D01*
X156529454Y-127045704D01*
X156552383Y-127072105D01*
X156589274Y-127114935D01*
X156637454Y-127171075D01*
X156694248Y-127237405D01*
X156756983Y-127310807D01*
X156822986Y-127388163D01*
X156840335Y-127408492D01*
X156902559Y-127481021D01*
X156958755Y-127545942D01*
X157006735Y-127600768D01*
X157044309Y-127643010D01*
X157069289Y-127670179D01*
X157079487Y-127679789D01*
X157080323Y-127679514D01*
X157087632Y-127673242D01*
X157102422Y-127657669D01*
X157125859Y-127631434D01*
X157159111Y-127593179D01*
X157203343Y-127541544D01*
X157259723Y-127475168D01*
X157329416Y-127392691D01*
X157413591Y-127292754D01*
X157513413Y-127173996D01*
X157520706Y-127165314D01*
X157690026Y-126964327D01*
X157872383Y-126748929D01*
X158069249Y-126517382D01*
X158282101Y-126267948D01*
X158308968Y-126236499D01*
X158394858Y-126135786D01*
X158485307Y-126029500D01*
X158575985Y-125922744D01*
X158662559Y-125820619D01*
X158740699Y-125728230D01*
X158806073Y-125650678D01*
X158855687Y-125591816D01*
X158916326Y-125520239D01*
X158971903Y-125455024D01*
X159019471Y-125399618D01*
X159056080Y-125357465D01*
X159078783Y-125332012D01*
X159130607Y-125276014D01*
X159944425Y-125276575D01*
G37*
G36*
X167113846Y-109521381D02*
G01*
X167376052Y-109521421D01*
X167614587Y-109521534D01*
X167830736Y-109521760D01*
X168025780Y-109522138D01*
X168201002Y-109522705D01*
X168357686Y-109523501D01*
X168497115Y-109524564D01*
X168620571Y-109525933D01*
X168729338Y-109527647D01*
X168824699Y-109529744D01*
X168907936Y-109532263D01*
X168980332Y-109535243D01*
X169043171Y-109538722D01*
X169097735Y-109542739D01*
X169145308Y-109547333D01*
X169187173Y-109552543D01*
X169224611Y-109558406D01*
X169258907Y-109564962D01*
X169291344Y-109572250D01*
X169323204Y-109580308D01*
X169355770Y-109589175D01*
X169390326Y-109598889D01*
X169413892Y-109605655D01*
X169573030Y-109658587D01*
X169720529Y-109722033D01*
X169864777Y-109799994D01*
X170014162Y-109896471D01*
X170168727Y-110012842D01*
X170312146Y-110144064D01*
X170436120Y-110286026D01*
X170544082Y-110442689D01*
X170639465Y-110618015D01*
X170695941Y-110747077D01*
X170752290Y-110917284D01*
X170791899Y-111097604D01*
X170815597Y-111292021D01*
X170824215Y-111504520D01*
X170823488Y-111584035D01*
X170805980Y-111820955D01*
X170765473Y-112045463D01*
X170702035Y-112257396D01*
X170615731Y-112456591D01*
X170506630Y-112642884D01*
X170374798Y-112816113D01*
X170220303Y-112976114D01*
X170177619Y-113014289D01*
X170008134Y-113144199D01*
X169821787Y-113256095D01*
X169621368Y-113348812D01*
X169409668Y-113421186D01*
X169189477Y-113472055D01*
X168963586Y-113500254D01*
X168962355Y-113500340D01*
X168928248Y-113501761D01*
X168869895Y-113503158D01*
X168789200Y-113504513D01*
X168688069Y-113505814D01*
X168568407Y-113507045D01*
X168432121Y-113508192D01*
X168281115Y-113509240D01*
X168117295Y-113510175D01*
X167942568Y-113510981D01*
X167758838Y-113511644D01*
X167568010Y-113512150D01*
X167371992Y-113512484D01*
X167205056Y-113512760D01*
X167006335Y-113513284D01*
X166818240Y-113513996D01*
X166642336Y-113514881D01*
X166480187Y-113515924D01*
X166333357Y-113517111D01*
X166203409Y-113518428D01*
X166091908Y-113519860D01*
X166000417Y-113521393D01*
X165930502Y-113523012D01*
X165883725Y-113524703D01*
X165861650Y-113526451D01*
X165762659Y-113552408D01*
X165646707Y-113604825D01*
X165546341Y-113678310D01*
X165461214Y-113773132D01*
X165390975Y-113889561D01*
X165361267Y-113957870D01*
X165322481Y-114094536D01*
X165306263Y-114237372D01*
X165312600Y-114381644D01*
X165341482Y-114522620D01*
X165392895Y-114655567D01*
X165407014Y-114682251D01*
X165464236Y-114767220D01*
X165534986Y-114846777D01*
X165612744Y-114914204D01*
X165690992Y-114962784D01*
X165692454Y-114963493D01*
X165710324Y-114972338D01*
X165726723Y-114980445D01*
X165742806Y-114987845D01*
X165759730Y-114994570D01*
X165778650Y-115000654D01*
X165800721Y-115006128D01*
X165827100Y-115011024D01*
X165858943Y-115015375D01*
X165897404Y-115019213D01*
X165943640Y-115022571D01*
X165998807Y-115025479D01*
X166064060Y-115027972D01*
X166140555Y-115030080D01*
X166229448Y-115031837D01*
X166331895Y-115033275D01*
X166449051Y-115034425D01*
X166582072Y-115035320D01*
X166732113Y-115035993D01*
X166900332Y-115036475D01*
X167087882Y-115036799D01*
X167295921Y-115036998D01*
X167525603Y-115037102D01*
X167778085Y-115037146D01*
X168054522Y-115037160D01*
X168356070Y-115037177D01*
X170769333Y-115037405D01*
X170769333Y-115648108D01*
X170769333Y-116258812D01*
X168434871Y-116258676D01*
X168338821Y-116258664D01*
X168013819Y-116258517D01*
X167711027Y-116258210D01*
X167430781Y-116257745D01*
X167173421Y-116257124D01*
X166939285Y-116256347D01*
X166728710Y-116255418D01*
X166542034Y-116254338D01*
X166379596Y-116253110D01*
X166241734Y-116251734D01*
X166128786Y-116250213D01*
X166041091Y-116248548D01*
X165978985Y-116246743D01*
X165942808Y-116244797D01*
X165769811Y-116223703D01*
X165542216Y-116176553D01*
X165326257Y-116108943D01*
X165123691Y-116021660D01*
X164936273Y-115915490D01*
X164765758Y-115791220D01*
X164613903Y-115649635D01*
X164572375Y-115604417D01*
X164433956Y-115430397D01*
X164318519Y-115245239D01*
X164226728Y-115050293D01*
X164159245Y-114846909D01*
X164116731Y-114636436D01*
X164112442Y-114602640D01*
X164102129Y-114474987D01*
X164098273Y-114333920D01*
X164100634Y-114187267D01*
X164108972Y-114042858D01*
X164123047Y-113908525D01*
X164142619Y-113792097D01*
X164150620Y-113755872D01*
X164207834Y-113555294D01*
X164284560Y-113369377D01*
X164382455Y-113195097D01*
X164503177Y-113029430D01*
X164648382Y-112869353D01*
X164812892Y-112722373D01*
X164997730Y-112591788D01*
X165199008Y-112481082D01*
X165415806Y-112390760D01*
X165647206Y-112321327D01*
X165785207Y-112287276D01*
X167407182Y-112279493D01*
X167408003Y-112279489D01*
X167651907Y-112278349D01*
X167871000Y-112277345D01*
X168066732Y-112276402D01*
X168240552Y-112275445D01*
X168393911Y-112274400D01*
X168528260Y-112273193D01*
X168645047Y-112271748D01*
X168745723Y-112269991D01*
X168831737Y-112267849D01*
X168904541Y-112265245D01*
X168965584Y-112262107D01*
X169016316Y-112258359D01*
X169058187Y-112253926D01*
X169092647Y-112248735D01*
X169121147Y-112242711D01*
X169145135Y-112235779D01*
X169166063Y-112227864D01*
X169185380Y-112218893D01*
X169204536Y-112208791D01*
X169224981Y-112197483D01*
X169248166Y-112184894D01*
X169274659Y-112169979D01*
X169371035Y-112098181D01*
X169451090Y-112009785D01*
X169514816Y-111907884D01*
X169562204Y-111795569D01*
X169593244Y-111675930D01*
X169607929Y-111552059D01*
X169606250Y-111427047D01*
X169588197Y-111303985D01*
X169553762Y-111185965D01*
X169502937Y-111076077D01*
X169435711Y-110977412D01*
X169352078Y-110893063D01*
X169252027Y-110826119D01*
X169243373Y-110821472D01*
X169223920Y-110810556D01*
X169206631Y-110800624D01*
X169190271Y-110791627D01*
X169173604Y-110783516D01*
X169155392Y-110776242D01*
X169134401Y-110769759D01*
X169109394Y-110764016D01*
X169079134Y-110758965D01*
X169042386Y-110754558D01*
X168997914Y-110750747D01*
X168944481Y-110747482D01*
X168880851Y-110744716D01*
X168805788Y-110742399D01*
X168718057Y-110740484D01*
X168616420Y-110738922D01*
X168499642Y-110737664D01*
X168366486Y-110736662D01*
X168215717Y-110735868D01*
X168046099Y-110735232D01*
X167856394Y-110734706D01*
X167645368Y-110734243D01*
X167411783Y-110733793D01*
X167154405Y-110733307D01*
X166871996Y-110732738D01*
X164714834Y-110728158D01*
X164714834Y-110124767D01*
X164714834Y-109521376D01*
X166819543Y-109521376D01*
X166826687Y-109521376D01*
X167113846Y-109521381D01*
G37*
G36*
X175846123Y-109521813D02*
G01*
X176067060Y-109521992D01*
X176284394Y-109522272D01*
X176496505Y-109522652D01*
X176701774Y-109523132D01*
X176898583Y-109523713D01*
X177085314Y-109524393D01*
X177260346Y-109525172D01*
X177422062Y-109526051D01*
X177568843Y-109527030D01*
X177699070Y-109528107D01*
X177811124Y-109529283D01*
X177903387Y-109530558D01*
X177974239Y-109531931D01*
X178022062Y-109533402D01*
X178045238Y-109534971D01*
X178120317Y-109552249D01*
X178229483Y-109598527D01*
X178327767Y-109666485D01*
X178411907Y-109753692D01*
X178478640Y-109857721D01*
X178524607Y-109947833D01*
X178528023Y-113103322D01*
X178531439Y-116258812D01*
X177927170Y-116258812D01*
X177322901Y-116258812D01*
X177322901Y-113500797D01*
X177322901Y-110742783D01*
X177227684Y-110742658D01*
X177224597Y-110742655D01*
X177195061Y-110742643D01*
X177141117Y-110742635D01*
X177064285Y-110742630D01*
X176966089Y-110742629D01*
X176848048Y-110742630D01*
X176711685Y-110742636D01*
X176558521Y-110742644D01*
X176390077Y-110742655D01*
X176207876Y-110742670D01*
X176013439Y-110742687D01*
X175808287Y-110742707D01*
X175593941Y-110742729D01*
X175371924Y-110742754D01*
X175143756Y-110742782D01*
X174891165Y-110742825D01*
X174646932Y-110742902D01*
X174426539Y-110743024D01*
X174228737Y-110743206D01*
X174052275Y-110743462D01*
X173895903Y-110743806D01*
X173758371Y-110744254D01*
X173638429Y-110744818D01*
X173534825Y-110745513D01*
X173446311Y-110746354D01*
X173371636Y-110747354D01*
X173309549Y-110748528D01*
X173258800Y-110749890D01*
X173218140Y-110751455D01*
X173186318Y-110753236D01*
X173162084Y-110755248D01*
X173144187Y-110757505D01*
X173131377Y-110760022D01*
X173122404Y-110762812D01*
X173116019Y-110765890D01*
X173081171Y-110792174D01*
X173049351Y-110825813D01*
X173044679Y-110832356D01*
X173038601Y-110843084D01*
X173033661Y-110856992D01*
X173029714Y-110876645D01*
X173026619Y-110904608D01*
X173024233Y-110943447D01*
X173022414Y-110995725D01*
X173021018Y-111064010D01*
X173019904Y-111150865D01*
X173018927Y-111258856D01*
X173017947Y-111390549D01*
X173017336Y-111488514D01*
X173016999Y-111621739D01*
X173017631Y-111733480D01*
X173019482Y-111826649D01*
X173022802Y-111904158D01*
X173027838Y-111968919D01*
X173034841Y-112023843D01*
X173044060Y-112071843D01*
X173055743Y-112115831D01*
X173070140Y-112158718D01*
X173087500Y-112203416D01*
X173115758Y-112263829D01*
X173171040Y-112357099D01*
X173236902Y-112447530D01*
X173306488Y-112525053D01*
X173321165Y-112539001D01*
X173423558Y-112619299D01*
X173544305Y-112690046D01*
X173677277Y-112748482D01*
X173816345Y-112791845D01*
X173955381Y-112817374D01*
X173973823Y-112818838D01*
X174023424Y-112820975D01*
X174097493Y-112822932D01*
X174194935Y-112824699D01*
X174314657Y-112826264D01*
X174455562Y-112827619D01*
X174616556Y-112828754D01*
X174796544Y-112829657D01*
X174994432Y-112830321D01*
X175209124Y-112830734D01*
X175439525Y-112830886D01*
X176806667Y-112830994D01*
X176815768Y-113188879D01*
X176817253Y-113251554D01*
X176819564Y-113369145D01*
X176821425Y-113490164D01*
X176822742Y-113607190D01*
X176823423Y-113712803D01*
X176823375Y-113799582D01*
X176821881Y-114052400D01*
X176382154Y-114052400D01*
X175942426Y-114052400D01*
X175808543Y-114171644D01*
X175795940Y-114182803D01*
X175754587Y-114219042D01*
X175696274Y-114269814D01*
X175623048Y-114333350D01*
X175536957Y-114407880D01*
X175440047Y-114491634D01*
X175334365Y-114582843D01*
X175221957Y-114679738D01*
X175104872Y-114780547D01*
X174985155Y-114883503D01*
X174933747Y-114927696D01*
X174814107Y-115030621D01*
X174697540Y-115131001D01*
X174586152Y-115227015D01*
X174482051Y-115316844D01*
X174387345Y-115398668D01*
X174304141Y-115470665D01*
X174234547Y-115531017D01*
X174180670Y-115577901D01*
X174144617Y-115609499D01*
X174114805Y-115635801D01*
X174051807Y-115691286D01*
X173976958Y-115757120D01*
X173895219Y-115828943D01*
X173811551Y-115902394D01*
X173730915Y-115973114D01*
X173665206Y-116030780D01*
X173598216Y-116089727D01*
X173539154Y-116141858D01*
X173490982Y-116184554D01*
X173456661Y-116215196D01*
X173439152Y-116231166D01*
X173410057Y-116258987D01*
X172475035Y-116255616D01*
X171540013Y-116252245D01*
X171695385Y-116114344D01*
X171706916Y-116104110D01*
X171775592Y-116043141D01*
X171848799Y-115978134D01*
X171918477Y-115916245D01*
X171976565Y-115864632D01*
X172000809Y-115843284D01*
X172048032Y-115802118D01*
X172111225Y-115747323D01*
X172188141Y-115680836D01*
X172276534Y-115604595D01*
X172374157Y-115520536D01*
X172478763Y-115430597D01*
X172588108Y-115336714D01*
X172699943Y-115240826D01*
X172748658Y-115199066D01*
X172917374Y-115054097D01*
X173078192Y-114915389D01*
X173230101Y-114783837D01*
X173372089Y-114660334D01*
X173503145Y-114545775D01*
X173622259Y-114441054D01*
X173728419Y-114347065D01*
X173820614Y-114264703D01*
X173897834Y-114194860D01*
X173959067Y-114138433D01*
X174003302Y-114096314D01*
X174029528Y-114069398D01*
X174036734Y-114058579D01*
X174036694Y-114058547D01*
X174022425Y-114056017D01*
X173987311Y-114051796D01*
X173936561Y-114046464D01*
X173875383Y-114040601D01*
X173648812Y-114010329D01*
X173416092Y-113956922D01*
X173193412Y-113881154D01*
X172977480Y-113782078D01*
X172953240Y-113769301D01*
X172748099Y-113645811D01*
X172560482Y-113504500D01*
X172391441Y-113346708D01*
X172242024Y-113173775D01*
X172113282Y-112987042D01*
X172006265Y-112787849D01*
X171922022Y-112577537D01*
X171861604Y-112357447D01*
X171859561Y-112347851D01*
X171844696Y-112272358D01*
X171832446Y-112197384D01*
X171822602Y-112119582D01*
X171814957Y-112035608D01*
X171809303Y-111942113D01*
X171805430Y-111835753D01*
X171803132Y-111713181D01*
X171802200Y-111571052D01*
X171802426Y-111406019D01*
X171802828Y-111326375D01*
X171804061Y-111186530D01*
X171806050Y-111068218D01*
X171809013Y-110968296D01*
X171813165Y-110883619D01*
X171818724Y-110811042D01*
X171825905Y-110747421D01*
X171834924Y-110689611D01*
X171845999Y-110634468D01*
X171859346Y-110578847D01*
X171874159Y-110525805D01*
X171936922Y-110359857D01*
X172021039Y-110202313D01*
X172124074Y-110055675D01*
X172243595Y-109922444D01*
X172377167Y-109805119D01*
X172522355Y-109706202D01*
X172676725Y-109628194D01*
X172837844Y-109573596D01*
X172882210Y-109563911D01*
X172952861Y-109552028D01*
X173031235Y-109541683D01*
X173107079Y-109534370D01*
X173107386Y-109534347D01*
X173141917Y-109532786D01*
X173200364Y-109531329D01*
X173281107Y-109529976D01*
X173382527Y-109528726D01*
X173503006Y-109527580D01*
X173640926Y-109526537D01*
X173794667Y-109525597D01*
X173962611Y-109524759D01*
X174143138Y-109524024D01*
X174334630Y-109523392D01*
X174535469Y-109522861D01*
X174744035Y-109522433D01*
X174958711Y-109522106D01*
X175177876Y-109521881D01*
X175399912Y-109521757D01*
X175623201Y-109521735D01*
X175846123Y-109521813D01*
G37*
G36*
X162969425Y-109521575D02*
G01*
X163048806Y-109521644D01*
X163206286Y-109521891D01*
X163340088Y-109522306D01*
X163451994Y-109522930D01*
X163543788Y-109523806D01*
X163617252Y-109524975D01*
X163674169Y-109526480D01*
X163716322Y-109528362D01*
X163745494Y-109530664D01*
X163763468Y-109533427D01*
X163772027Y-109536693D01*
X163772953Y-109540505D01*
X163766595Y-109549134D01*
X163744540Y-109576536D01*
X163708884Y-109619790D01*
X163661635Y-109676519D01*
X163604801Y-109744345D01*
X163540387Y-109820893D01*
X163470402Y-109903787D01*
X163396852Y-109990649D01*
X163321745Y-110079103D01*
X163247089Y-110166773D01*
X163174889Y-110251283D01*
X163107155Y-110330255D01*
X163045891Y-110401314D01*
X163009461Y-110443496D01*
X162947208Y-110515774D01*
X162875732Y-110598936D01*
X162797669Y-110689903D01*
X162715654Y-110785594D01*
X162632321Y-110882930D01*
X162550306Y-110978831D01*
X162472244Y-111070217D01*
X162400769Y-111154007D01*
X162338517Y-111227123D01*
X162288122Y-111286483D01*
X162252219Y-111329009D01*
X162249135Y-111332678D01*
X162217814Y-111369721D01*
X162172853Y-111422643D01*
X162117293Y-111487878D01*
X162054174Y-111561859D01*
X161986537Y-111641019D01*
X161917420Y-111721792D01*
X161909147Y-111731453D01*
X161839556Y-111812779D01*
X161771416Y-111892498D01*
X161707856Y-111966943D01*
X161652006Y-112032447D01*
X161606995Y-112085344D01*
X161575951Y-112121966D01*
X161566223Y-112133479D01*
X161530371Y-112175835D01*
X161481546Y-112233450D01*
X161422661Y-112302887D01*
X161356630Y-112380712D01*
X161286366Y-112463489D01*
X161214783Y-112547784D01*
X161174675Y-112595134D01*
X161110827Y-112671080D01*
X161053809Y-112739605D01*
X161005673Y-112798204D01*
X160968471Y-112844371D01*
X160944253Y-112875601D01*
X160935073Y-112889388D01*
X160934813Y-112891057D01*
X160935404Y-112895882D01*
X160938497Y-112903101D01*
X160945136Y-112913965D01*
X160956366Y-112929726D01*
X160973232Y-112951636D01*
X160996776Y-112980947D01*
X161028043Y-113018912D01*
X161068078Y-113066781D01*
X161117925Y-113125807D01*
X161178627Y-113197243D01*
X161251229Y-113282339D01*
X161336775Y-113382348D01*
X161436309Y-113498521D01*
X161550875Y-113632111D01*
X161681518Y-113784370D01*
X161888018Y-114025109D01*
X162276420Y-114478463D01*
X162663181Y-114930603D01*
X163040409Y-115372307D01*
X163049780Y-115383303D01*
X163099519Y-115441941D01*
X163161572Y-115515437D01*
X163232298Y-115599460D01*
X163308054Y-115689678D01*
X163385198Y-115781761D01*
X163460088Y-115871376D01*
X163498365Y-115917225D01*
X163563621Y-115995291D01*
X163623228Y-116066481D01*
X163674954Y-116128134D01*
X163716565Y-116177588D01*
X163745829Y-116212184D01*
X163760510Y-116229261D01*
X163786942Y-116258812D01*
X162959254Y-116258812D01*
X162131566Y-116258812D01*
X162029914Y-116137328D01*
X161975178Y-116071937D01*
X161928474Y-116016232D01*
X161886794Y-115966667D01*
X161846976Y-115919518D01*
X161805859Y-115871058D01*
X161760283Y-115817564D01*
X161707086Y-115755309D01*
X161643109Y-115680568D01*
X161565190Y-115589616D01*
X161505983Y-115520542D01*
X161391797Y-115387454D01*
X161288455Y-115267189D01*
X161196989Y-115160943D01*
X161118430Y-115069911D01*
X161053810Y-114995288D01*
X161004158Y-114938271D01*
X160970508Y-114900055D01*
X160969070Y-114898438D01*
X160944460Y-114870326D01*
X160906651Y-114826679D01*
X160859166Y-114771583D01*
X160805530Y-114709128D01*
X160749268Y-114643403D01*
X160710113Y-114597597D01*
X160612291Y-114483267D01*
X160524730Y-114381092D01*
X160448556Y-114292383D01*
X160384896Y-114218447D01*
X160334876Y-114160593D01*
X160299621Y-114120130D01*
X160280259Y-114098367D01*
X160274974Y-114092560D01*
X160250644Y-114065257D01*
X160216751Y-114026759D01*
X160178923Y-113983450D01*
X160162572Y-113965047D01*
X160128455Y-113929250D01*
X160101688Y-113904660D01*
X160086990Y-113895775D01*
X160083508Y-113896712D01*
X160076394Y-113901213D01*
X160065440Y-113910783D01*
X160049323Y-113926910D01*
X160026718Y-113951084D01*
X159996302Y-113984792D01*
X159956750Y-114029524D01*
X159906737Y-114086767D01*
X159844941Y-114158010D01*
X159770036Y-114244743D01*
X159680698Y-114348453D01*
X159575604Y-114470629D01*
X159369261Y-114710758D01*
X159174298Y-114937941D01*
X158992374Y-115150245D01*
X158824090Y-115346963D01*
X158670047Y-115527393D01*
X158530847Y-115690830D01*
X158407091Y-115836569D01*
X158299381Y-115963906D01*
X158208317Y-116072137D01*
X158051800Y-116258812D01*
X157231554Y-116258812D01*
X157065404Y-116258783D01*
X156922574Y-116258660D01*
X156802291Y-116258390D01*
X156702690Y-116257919D01*
X156621907Y-116257194D01*
X156558075Y-116256161D01*
X156509329Y-116254767D01*
X156473805Y-116252958D01*
X156449637Y-116250682D01*
X156434959Y-116247884D01*
X156427907Y-116244512D01*
X156426615Y-116240511D01*
X156429217Y-116235828D01*
X156451313Y-116207794D01*
X156487245Y-116163143D01*
X156531549Y-116109009D01*
X156585104Y-116044350D01*
X156648786Y-115968125D01*
X156723474Y-115879293D01*
X156810046Y-115776813D01*
X156909379Y-115659645D01*
X157022353Y-115526746D01*
X157149844Y-115377077D01*
X157292731Y-115209595D01*
X157451892Y-115023261D01*
X157541900Y-114917913D01*
X157645167Y-114796992D01*
X157747222Y-114677435D01*
X157845800Y-114561898D01*
X157938635Y-114453039D01*
X158023462Y-114353514D01*
X158098015Y-114265982D01*
X158160027Y-114193097D01*
X158207234Y-114137518D01*
X158255667Y-114080478D01*
X158335921Y-113986179D01*
X158423557Y-113883411D01*
X158515094Y-113776246D01*
X158607048Y-113668754D01*
X158695936Y-113565006D01*
X158778275Y-113469073D01*
X158850583Y-113385023D01*
X158909376Y-113316929D01*
X158990859Y-113222570D01*
X159069913Y-113130444D01*
X159137030Y-113051567D01*
X159191126Y-112987230D01*
X159231115Y-112938726D01*
X159255911Y-112907347D01*
X159264429Y-112894385D01*
X159263244Y-112890687D01*
X159250528Y-112870585D01*
X159228356Y-112841912D01*
X159226653Y-112839870D01*
X159208177Y-112818077D01*
X159174373Y-112778470D01*
X159126746Y-112722802D01*
X159066803Y-112652826D01*
X158996049Y-112570296D01*
X158915990Y-112476963D01*
X158828132Y-112374582D01*
X158733980Y-112264904D01*
X158635041Y-112149683D01*
X158532820Y-112030673D01*
X158428824Y-111909625D01*
X158324557Y-111788293D01*
X158221526Y-111668429D01*
X158121236Y-111551788D01*
X158025193Y-111440120D01*
X157934904Y-111335181D01*
X157851873Y-111238722D01*
X157777607Y-111152496D01*
X157713611Y-111078257D01*
X157661392Y-111017757D01*
X157636949Y-110989413D01*
X157595968Y-110941807D01*
X157543878Y-110881237D01*
X157483859Y-110811405D01*
X157419092Y-110736009D01*
X157352757Y-110658749D01*
X157235137Y-110521742D01*
X157082878Y-110344451D01*
X156945802Y-110184921D01*
X156824144Y-110043427D01*
X156718142Y-109920242D01*
X156628032Y-109815643D01*
X156554050Y-109729903D01*
X156496434Y-109663298D01*
X156455421Y-109616103D01*
X156431246Y-109588592D01*
X156417404Y-109572530D01*
X156396802Y-109545880D01*
X156388562Y-109530872D01*
X156388824Y-109530608D01*
X156405119Y-109528843D01*
X156445127Y-109527216D01*
X156506614Y-109525750D01*
X156587347Y-109524473D01*
X156685093Y-109523408D01*
X156797618Y-109522580D01*
X156922689Y-109522015D01*
X157058074Y-109521737D01*
X157201538Y-109521772D01*
X158014818Y-109522877D01*
X158086971Y-109597644D01*
X158088108Y-109598824D01*
X158106389Y-109618219D01*
X158129974Y-109643972D01*
X158159704Y-109677051D01*
X158196422Y-109718429D01*
X158240969Y-109769075D01*
X158294187Y-109829962D01*
X158356918Y-109902058D01*
X158430005Y-109986335D01*
X158514289Y-110083765D01*
X158610611Y-110195316D01*
X158719814Y-110321961D01*
X158842740Y-110464669D01*
X158980231Y-110624412D01*
X159133128Y-110802160D01*
X159302273Y-110998884D01*
X159333587Y-111035293D01*
X159392792Y-111104041D01*
X159447410Y-111167350D01*
X159494310Y-111221597D01*
X159530362Y-111263158D01*
X159552436Y-111288412D01*
X159554454Y-111290704D01*
X159577383Y-111317105D01*
X159614274Y-111359935D01*
X159662454Y-111416075D01*
X159719248Y-111482405D01*
X159781983Y-111555807D01*
X159847986Y-111633163D01*
X159865335Y-111653492D01*
X159927559Y-111726021D01*
X159983755Y-111790942D01*
X160031735Y-111845768D01*
X160069309Y-111888010D01*
X160094289Y-111915179D01*
X160104487Y-111924789D01*
X160105323Y-111924514D01*
X160112632Y-111918242D01*
X160127422Y-111902669D01*
X160150859Y-111876434D01*
X160184111Y-111838179D01*
X160228343Y-111786544D01*
X160284723Y-111720168D01*
X160354416Y-111637691D01*
X160438591Y-111537754D01*
X160538413Y-111418996D01*
X160545706Y-111410314D01*
X160715026Y-111209327D01*
X160897383Y-110993929D01*
X161094249Y-110762382D01*
X161307101Y-110512948D01*
X161333968Y-110481499D01*
X161419858Y-110380786D01*
X161510307Y-110274500D01*
X161600985Y-110167744D01*
X161687559Y-110065619D01*
X161765699Y-109973230D01*
X161831073Y-109895678D01*
X161880687Y-109836816D01*
X161941326Y-109765239D01*
X161996903Y-109700024D01*
X162044471Y-109644618D01*
X162081080Y-109602465D01*
X162103783Y-109577012D01*
X162155607Y-109521014D01*
X162969425Y-109521575D01*
G37*
%TD*%
M02*
