M48
; DRILL file {KiCad 8.0.3} date 2025-09-30T21:19:29-0400
; FORMAT={-:-/ absolute / metric / decimal}
; #@! TF.CreationDate,2025-09-30T21:19:29-04:00
; #@! TF.GenerationSoftware,Kicad,Pcbnew,8.0.3
; #@! TF.FileFunction,Plated,1,2,PTH
FMAT,2
METRIC
; #@! TA.AperFunction,Plated,PTH,ViaDrill
T1C0.300
; #@! TA.AperFunction,Plated,PTH,ComponentDrill
T2C0.700
; #@! TA.AperFunction,Plated,PTH,ComponentDrill
T3C0.750
; #@! TA.AperFunction,Plated,PTH,ComponentDrill
T4C2.200
%
G90
G05
T1
X152.52Y-110.775
X153.5Y-117.475
X154.15Y-117.475
X154.25Y-110.805
X154.34Y-107.005
X154.875Y-117.475
X155.575Y-117.5
X156.225Y-117.5
X158.075Y-129.745
X160.375Y-124.905
X160.415Y-121.005
X160.485Y-126.815
X160.535Y-122.765
X161.95Y-117.5
X162.6Y-117.5
X162.85Y-110.65
X163.325Y-117.5
X164.025Y-117.525
X164.58Y-110.745
X164.675Y-117.525
X164.85Y-106.975
X165.905Y-126.335
X170.45Y-117.525
X171.1Y-117.525
X171.825Y-117.525
X172.525Y-117.55
X172.96Y-110.63
X173.175Y-117.55
X174.65Y-110.755
X174.87Y-107.005
T2
X153.605Y-122.815
X153.605Y-124.085
X153.605Y-125.355
X153.605Y-126.625
X153.605Y-127.895
X154.875Y-122.815
X154.875Y-124.085
X154.875Y-125.355
X154.875Y-126.625
X154.875Y-127.895
T3
X146.04Y-106.01
X146.04Y-108.01
X146.04Y-110.01
X146.04Y-112.01
X146.04Y-114.01
X168.855Y-121.405
X168.855Y-123.405
X168.855Y-125.405
X168.855Y-127.405
X168.855Y-129.405
T4
X150.12Y-105.5
X150.125Y-114.65
X181.35Y-105.48
X181.375Y-114.66
M30
